<svg xmlns="http://www.w3.org/2000/svg" viewBox="0 0 918.54 1285.52"><defs><style>.cls-1{fill:#007b6d;}.cls-2{fill:#00ded1;}.cls-3{fill:#fff;}.cls-4{fill:#def1f6;}</style></defs><g id="Layer_2" data-name="Layer 2"><g id="Vector_layer" data-name="Vector layer"><path class="cls-1" d="M551.32,100c27.25-10.66,86.83-29.6,161.17-17.45,60.29,9.86,99.75,35.18,133.16,56.62,30.43,19.53,78.28,50.24,72.4,72.39-4.82,18.14-41.92,16.49-89,30.86-57.18,17.45-101.8,50.19-136,84.29"/><path class="cls-1" d="M342.28,354.18a261.26,261.26,0,0,0-71.22,88.06c-18.9,38.15-22.36,69.12-25.28,95.34-2.66,23.88-6.85,61.44,5.92,65.07,10.46,3,24.17-19.11,49.37-41.89,30.59-27.67,63.5-43.17,93-52.18"/><path d="M232,256.63c-.47,1.76-30.61,114.22-94.87,145.17-26.39,12.71-40.82,16.08-53.29,21.66,7.19-19,16.85-42.7,7.87-52.17-4.38-4.64-13-4.59-24.13-3.27-10.18,1.23-9.78,3.13-22.7,3.93,10.74-1.81,21.08-5.64,65.72-15.13C179.45,342.2,231.05,258.2,232,256.63Z"/><path class="cls-2" d="M388.79,937.2c49.78,19.63,81.48,42.22,120.28-2.54,53.21-61.37-110-490.54-208.88-519-54.66-11.2-210.65,38.9-218.63,21.82-1.25-2.68.6-9.53,2.3-14.07,11.75-5.29,30.24-10.66,55.1-22.72,55.51-26.93,84-118.87,88.69-135.28.43-1.49.66-2.36.7-2.5-.09.15-.65,1.06-1.64,2.6-9,14-54.3,80-112.74,92.49-39.91,8.54-61.45,12.6-72.19,14.45l-1.65.29A101.58,101.58,0,0,1,14,371.42c-23.4-4.64-20.19-60.86,30.81-88.9l.1-.06a112.27,112.27,0,0,1,12.17-5.74c8.62-3.46,19.35-6,26.07-11.42,8.43-4.11,16.19-7,21.44-12.24,17.51-17.48,33.7-96.32,33.7-96.32,5.13-13.79,10.44-27,16.82-38.57,0,0,123.84-215.44,375-64.54,401.45,241.2,55.16,865.2,34.48,919s56.71,176.13,21.19,255.8-22.87,79.12-84.59-21.88-74.46-89.92-58.59-151.64c-19.22,12.66-34.27,9.5-61.42-4.74s-60.85-63.3-106.51-69.63S180.16,922,294,918.83c38.7-1.07,69.16,8.25,94.81,18.37"/><path class="cls-3" d="M348.27,156.39a55.12,55.12,0,0,1-1.08,10.9A52.17,52.17,0,1,0,244.9,184.6a55.53,55.53,0,1,1,103.37-28.21Z"/><path class="cls-1" d="M347.19,167.29A55.54,55.54,0,0,1,244.9,184.6a52.18,52.18,0,1,1,102.29-17.31Z"/><path class="cls-4" d="M577.91,824.29c-4.08,71.29-15.49,102.81-40.35,123.43-25.42,21.08-62.34,28.66-93.76,21.36-24.2-5.62-42.52-19.47-55-31.88,49.78,19.63,81.48,42.22,120.28-2.54,53.21-61.37-110-490.54-208.88-519-54.66-11.2-210.65,38.9-218.63,21.82-1.25-2.68.6-9.53,2.3-14.07,11.75-5.29,30.24-10.66,55.1-22.72,55.51-26.93,84-118.87,88.69-135.28a222,222,0,0,1,46.43-.15c74.61,8.57,123.57,56.71,157.85,91.39,64,64.73,91.77,132.49,108,173.27C587.87,650.37,582.37,746.32,577.91,824.29Z"/><path class="cls-1" d="M497.11,394.6c-6,27,46.35,64.91,91.2,97.36A329.44,329.44,0,0,0,627,516.3c23.93,12.72,45.13,19.91,64.07,26.32,26,8.82,66.93,22.68,71.9,10.1,4.06-10.3-19.12-30.33-42.19-62.67-12.9-18.07-24.57-36.86-34.69-62.55-12.29-31.2-7.6-37.79-15.44-48.76C639.54,335.29,505.82,355.1,497.11,394.6Z"/></g></g></svg>