<svg xmlns="http://www.w3.org/2000/svg" viewBox="0 0 635.88 1164.71"><defs><style>.cls-1{fill:#b98000;}.cls-2{fill:#ffcc5a;}.cls-3{fill:#fff;}.cls-4{fill:#fbdc97;}.cls-5{fill:#992600;}.cls-6{fill:none;stroke:#992600;stroke-linecap:round;stroke-linejoin:round;stroke-width:5px;}</style></defs><g id="Layer_2" data-name="Layer 2"><g id="Vector_layer" data-name="Vector layer"><ellipse class="cls-1" cx="95.36" cy="192.14" rx="95.36" ry="30.87"/><ellipse class="cls-1" cx="547.17" cy="150.91" rx="95.36" ry="30.87" transform="translate(-15.69 224.11) rotate(-22.83)"/><path class="cls-2" d="M564.43,239.05V481.26a201,201,0,0,1-100,173.62q-2,22.92-3.37,45.57-4.11,64.75-4.28,127.34.72,13.28,1.43,26.55.75,13.81,1.49,27.64,3,56.44,6.08,112.9l7.23,134.23-4.17,35.6h-200c-4.69-12-9.08-24.67-13-38a490.89,490.89,0,0,1-19.75-118.18c-.82-18-.64-35.3.23-51.64.64-12,1.65-23.42,2.91-34.32q4.53-51,9.24-102.07,1.11-11.87,2.21-23.71,3.5-37.46,7.1-74.9c.14-1.54.29-3.09.44-4.63q2.46-25.59,5-51.19A200.9,200.9,0,0,1,140.79,481.26V239.05A129.52,129.52,0,0,1,270.31,109.53h164.6A129.52,129.52,0,0,1,564.43,239.05Z"/><path class="cls-3" d="M291.53,283.94a51,51,0,0,0-87.65,47.92,51,51,0,1,1,87.65-47.92Z"/><path class="cls-1" d="M296,297.22c0,29.85-24,54.07-53.55,54.07a53.19,53.19,0,0,1-40.8-19.06,54,54,0,0,1-2.33-15.81c0-29.87,24-54.07,53.55-54.07a53.19,53.19,0,0,1,40.81,19.07A54.6,54.6,0,0,1,296,297.22Z"/><path class="cls-3" d="M421.59,283.94a51,51,0,0,1,87.65,47.92,51,51,0,1,0-87.65-47.92Z"/><path class="cls-1" d="M417.67,298.09c0,30.48,23.69,55.2,52.9,55.2a51.92,51.92,0,0,0,40.3-19.46,57.13,57.13,0,0,0,2.3-16.14c0-30.48-23.68-55.19-52.89-55.19A51.91,51.91,0,0,0,420,282,57.51,57.51,0,0,0,417.67,298.09Z"/><path class="cls-4" d="M509.41,543.82v57.53c-36.56,49.64-88.3,80.59-145.65,80.59H341.47c-45.41,0-87.3-19.4-120.93-52.13v-86c0-82.42,51.94-149.23,116-149.23h56.87C457.47,394.59,509.41,461.4,509.41,543.82Z"/><circle class="cls-5" cx="306.55" cy="454.76" r="5.44"/><path class="cls-5" d="M423.05,454.76a5.44,5.44,0,1,1-5.43-5.44A5.44,5.44,0,0,1,423.05,454.76Z"/><path class="cls-6" d="M272.53,596.26c26,12.57,43.58,22.53,59.72,26.26C349,626.39,368,626.2,386.92,625c11.72-.73,30.82-2.14,50.23-14.44a89,89,0,0,0,18.2-15.32"/><rect class="cls-2" x="266.94" y="49.67" width="31.57" height="85.9"/><rect class="cls-2" x="426.11" y="49.67" width="31.57" height="85.9"/><circle class="cls-1" cx="283.54" cy="34.11" r="34.11"/><circle class="cls-1" cx="441.89" cy="34.11" r="34.11" transform="translate(-1.31 31.41) rotate(-4.07)"/><path class="cls-1" d="M310.14,151.14c6.7,21.77,6.79,28.46,10,29.13,8,1.64,18.39-36.76,28.43-35.42,8.24,1.09,8.86,27.94,16.14,28.39,7.44.47,12.5-27.28,19.21-26.74,7.08.57,9.24,32.11,12.61,31.95,3.86-.18.5-41.82,10.89-44.95,9.27-2.79,26.09,32.68,28.47,31.41,1.82-1-12.43-19.25-7.64-37.54,4.6-17.58,23.17-21.26,21.45-30.79-1.59-8.83-19.32-15.76-34.41-14.24-17.47,1.76-21.85,13.88-33.67,11.29-11.1-2.42-11.61-14-24.49-19.6-4-1.74-7.39-2-29.67,1.19-20.76,3-38.08,6.09-59.34,13-13.08,4.29-16,6.2-17.8,9.5-6.63,12.12,5.56,36.29,20.18,39.16,12.34,2.43,20.64-11.48,29.67-7.12C302.6,131,304.62,133.21,310.14,151.14Z"/><path class="cls-1" d="M329.54,890.2a70.51,70.51,0,0,1-93.2,66.72c.64-12,1.65-23.42,2.91-34.32q4.53-51,9.24-102.07a70.52,70.52,0,0,1,81.05,69.67Z"/><path class="cls-1" d="M456.82,827.79q.72,13.28,1.43,26.55a79.08,79.08,0,1,1,2.85-153.89Q457,765.21,456.82,827.79Z"/><path class="cls-1" d="M465.82,994.88A59.39,59.39,0,1,1,459.74,882Q462.79,938.43,465.82,994.88Z"/><path class="cls-1" d="M304.93,760.45a39.33,39.33,0,0,1-54.23,36.37q3.5-37.46,7.1-74.9a39.34,39.34,0,0,1,47.13,38.53Z"/><path class="cls-1" d="M419.76,1101.5a114.68,114.68,0,0,1-18.86,63.21h-132c-4.69-12-9.08-24.67-13-38a490.89,490.89,0,0,1-19.75-118.18,115.34,115.34,0,0,1,183.65,92.94Z"/><circle class="cls-1" cx="357.72" cy="253.9" r="13.01"/><circle class="cls-1" cx="392.17" cy="217.51" r="13.01"/><circle class="cls-1" cx="320.48" cy="210" r="24.23"/><circle class="cls-1" cx="327.94" cy="300.2" r="13.22"/><circle class="cls-1" cx="333.16" cy="356.82" r="13.22"/><circle class="cls-1" cx="377.81" cy="319.6" r="27.45"/></g></g></svg>