<svg xmlns="http://www.w3.org/2000/svg" viewBox="0 0 573.39 760.83"><defs><style>.cls-1{fill:#592db5;}.cls-2,.cls-5{fill:#fff;}.cls-2{stroke:#d4c9e8;}.cls-2,.cls-6{stroke-linecap:round;stroke-linejoin:round;stroke-width:5px;}.cls-3{fill:#d4c9e8;}.cls-4{fill:#19004e;}.cls-6{fill:none;stroke:#19004e;}</style></defs><g id="Layer_2" data-name="Layer 2"><g id="Vector_layer" data-name="Vector layer"><path class="cls-1" d="M383.06,396.16H182.24c-62.64,0-143.62,48.09-143.62-14.55l30.2-221.72A113.42,113.42,0,0,1,182.24,46.47H383.06C445.7,46.47,489.8,96.72,499.4,160l27.15,214.23C526.55,436.84,445.7,396.16,383.06,396.16Z"/><rect class="cls-2" x="95.7" y="678.49" width="72.36" height="72.36" rx="10.83" transform="translate(268.5 0.89) rotate(21.29)"/><rect class="cls-2" x="411.78" y="675.82" width="72.36" height="72.36" rx="10.83" transform="translate(1123.88 1212.76) rotate(158.71)"/><path class="cls-3" d="M573.39,479.32v28.94c0,113.25-91.81,205.07-205.07,205.07H312.51a31.91,31.91,0,0,1-14.1-3.12c-7.45-3.69-12.21-9.68-16-14.25a37.6,37.6,0,0,1-3.63,3.69,54.1,54.1,0,0,1-36.22,13.68H205.07C91.82,713.33,0,621.52,0,508.26V479.32C0,366.06,91.81,274.25,205.07,274.25H368.32C481.58,274.25,573.39,366.06,573.39,479.32Z"/><circle class="cls-4" cx="127.82" cy="470.62" r="27.86"/><circle class="cls-4" cx="448.18" cy="471.31" r="27.86"/><path class="cls-5" d="M444.87,219a53.83,53.83,0,0,1-3.47,19.11,54.19,54.19,0,0,0-104.88-17.65c0-.49,0-1,0-1.46a54.19,54.19,0,1,1,108.37,0Z"/><path class="cls-4" d="M441.4,238.07a54.19,54.19,0,0,1-104.88-17.65A54.19,54.19,0,0,1,441.4,238.07Z"/><path class="cls-5" d="M233.7,207.76a54.2,54.2,0,0,0-93,47.43,54.19,54.19,0,1,1,93-47.43Z"/><ellipse class="cls-1" cx="99.96" cy="60.16" rx="40.63" ry="54.19" transform="translate(-16.21 49.38) rotate(-25.74)"/><ellipse class="cls-1" cx="463.34" cy="51.15" rx="54.19" ry="40.63" transform="translate(187.37 426.84) rotate(-60)"/><path class="cls-4" d="M234.76,218.46a54.19,54.19,0,0,1-94,36.73,54.19,54.19,0,0,1,93-47.43A53.86,53.86,0,0,1,234.76,218.46Z"/><path class="cls-6" d="M146,139.55a37.14,37.14,0,0,1,47.88-15.14"/><path class="cls-6" d="M380.13,124.74a37.14,37.14,0,0,1,49.61,7.83"/></g></g></svg>