<?xml version="1.0" encoding="utf-8"?>
<!-- Generator: Adobe Illustrator 26.2.1, SVG Export Plug-In . SVG Version: 6.00 Build 0)  -->
<svg version="1.1" id="Layer_1" xmlns="http://www.w3.org/2000/svg" xmlns:xlink="http://www.w3.org/1999/xlink" x="0px" y="0px"
	 viewBox="0 0 814.9 747.8" style="enable-background:new 0 0 814.9 747.8;" xml:space="preserve">
<style type="text/css">
	.st0{fill:#FFB2B2;}
	.st1{fill:#FFFFFF;stroke:#FFB2B2;stroke-width:40;stroke-linecap:round;stroke-linejoin:round;}
	.st2{fill:#FFFFFF;}
	.st3{fill:#FFFFFF;stroke:#BF2600;stroke-width:5;stroke-linecap:round;stroke-linejoin:round;}
	.st4{fill:#BF2600;}
	.st5{fill:none;stroke:#BF2600;stroke-width:5;stroke-linecap:round;stroke-linejoin:round;}
	.st6{fill:#FFDDD6;}
	.st7{fill:#FFFFFF;stroke:#BF2600;stroke-width:6;stroke-linecap:round;stroke-linejoin:round;}
</style>
<g id="Layer_2_00000051345898658494457500000006260605875669811872_">
	<g id="Vector_layer">
		<path class="st0" d="M66.4,277.6C25.1,266-3.3,196.5,0.3,141.6c0.8-12.4,3.1-40.7,23.3-68.5c3.3-4.5,22.1-29.7,55.3-42.1
			c53.5-20,124.3,0.7,145.1,39.7C260.7,139.8,130.3,295.7,66.4,277.6z"/>
		<path class="st0" d="M760.9,237c38.4-14,58.7-83.1,53-133.6c-1.5-13.2-4.7-38.3-23.7-62c-21.6-26.9-50-35-58.7-37.3
			c-52-14-117.7,9.3-134.8,48C566.8,120.1,701.6,258.7,760.9,237z"/>
		<path class="st0" d="M803.1,317.4c-5.9,10-12.4,19.7-19.5,29c-12.1,15.9-51.6,68.1-103.8,86.6c-59.2,21-79.1-21-182.4-30.8
			c-92.1-8.7-173.4,15.5-204.2,24.6c-74.1,22-97.2,44.9-154.7,43.5c-36.8-0.9-68.5-11.3-93.2-23c-0.5-2.7-1-5.4-1.5-8.2
			c-5.7-33.2-6.5-67.1-2.1-100.5c1.2-9.5,2.9-18.9,4.9-28.2C78.2,165.2,205,51.8,364,28.7c19.9-2.9,40-4.3,60.1-4.3
			c5.1,0,10.1,0.1,15.1,0.3c166.2,5.9,305.5,109.7,352.8,251c2.7,7.9,5,16,7.1,24.2C800.6,305.6,801.9,311.5,803.1,317.4z"/>
		<path class="st1" d="M792.5,391.1c0,4.4-0.1,8.7-0.3,13.1c-0.3,7.8-1,15.5-1.8,23.1c-4.3,36.6-15,72.2-31.6,105.2
			c-2.5,4.9-5,9.7-7.7,14.4c-61,107.5-183.1,180.8-323.8,180.8c-121.2,0-228.7-54.5-295.1-138.3c-4.7-5.9-9.1-12-13.4-18.2
			c-21.2-30.6-36.9-64.7-46.4-100.7c-1.6-5.9-2.9-11.8-4.1-17.9c23.4,11,53.4,20.8,88.3,21.6c54.5,1.3,76.4-20.2,146.6-40.9
			c29.2-8.6,106.3-31.4,193.6-23.2c98,9.2,116.8,48.7,172.9,29c49.5-17.5,86.9-66.5,98.3-81.5c6.7-8.7,12.8-17.9,18.5-27.3
			C790.5,350.3,792.5,370.7,792.5,391.1z"/>
		<path class="st2" d="M337.3,290.4c0.6,55.3-43.9,100.6-99.2,101.2s-100.6-43.9-101.2-99.2c0-0.7,0-1.3,0-2
			c0-55.3,22.3-124.8,77.6-124.8c36.7,0,91.4,44.4,108.8,73.8C332.5,254.8,337.3,272.4,337.3,290.4z"/>
		<path class="st2" d="M680.4,282.7c-6.5,56.9-51.7,94.9-107,94.9c-55.3,0-100.2-44.8-100.2-100.2c0,0,0,0,0,0
			c0-55.3,67.8-136.7,123.2-136.7c36.7,0,67.7,36.6,77.5,69.4C678.8,226.2,682.5,264.2,680.4,282.7z"/>
		<path class="st3" d="M304.2,317.1c0,38.2-31,69.1-69.1,69.1s-69.1-31-69.1-69.1s31-69.1,69.1-69.1c24.4,0,47,12.9,59.5,33.9
			C300.9,292.5,304.2,304.7,304.2,317.1z"/>
		<path class="st4" d="M304.2,317.1c0,38.2-31,69.2-69.1,69.2c-13.5,0-26.8-4-38.1-11.4c-19.5-32.9-8.6-75.3,24.2-94.7
			c22.8-13.5,51.2-12.8,73.3,1.7C300.9,292.5,304.2,304.7,304.2,317.1z"/>
		<path class="st5" d="M278.8,511.6c12.9,12.7,30.3,19.9,48.5,19.9h0"/>
		<path class="st4" d="M489.2,527c0,49.5-31,89.5-69.1,89.5s-69.1-40.1-69.1-89.5c0-0.5,0-1,0-1.5c28.1-9,47.5-34.9,48.1-64.5
			l7.7,8.4c5.1,5.5,13.7,5.9,19.2,0.9c0.1-0.1,0.2-0.2,0.3-0.3c11.6,24.4,35.3,40.7,62.2,42.9C489,517.6,489.2,522.3,489.2,527z"/>
		<path class="st5" d="M503.5,514.8c28.6-6.1,51.2-28,58-56.4"/>
		<path class="st3" d="M646.4,297.7c0,38.2-31,69.1-69.1,69.1c-38.2,0-69.1-31-69.1-69.1l0,0c0-0.7,0-1.4,0-2
			c1.1-38.2,33-68.2,71.1-67.1C616.6,229.7,646.3,260.3,646.4,297.7L646.4,297.7z"/>
		<path class="st4" d="M636.7,331.1c0,0.7,0,1.4,0,2c-19.6,32.8-62,43.5-94.8,24c-20.9-12.5-33.7-35-33.7-59.4c0-0.7,0-1.4,0-2
			c19.6-32.8,62-43.5,94.8-24C623.9,284.2,636.7,306.8,636.7,331.1L636.7,331.1z"/>
		<path class="st6" d="M460.3,421l-14.2,19.9l-3.3,4.6L424,471.7c-0.4,0.5-0.8,1.1-1.3,1.5c-4.8,5.2-12.9,5.5-18.1,0.7
			c-0.5-0.4-0.9-0.9-1.3-1.4l-7.6-9l0,0L384,449.8l-5.1-6l-15.6-18.6c-6.5-7.7-3.5-19.3,4.3-23.1c1.6-0.8,3.3-1.2,5.1-1.3l76.3-3.3
			C460.6,396.9,467.4,411.1,460.3,421z"/>
		<path class="st7" d="M349.4,530.5l-5.4,16.2l-4,11.8c-0.4,1.1-1.6,1.8-2.8,1.4c-0.7-0.2-1.2-0.8-1.4-1.5l-3-12l-3.4-14.3
			c6.8,0,13.5-1,20-3C349.6,529.5,349.6,530,349.4,530.5z"/>
		<path class="st7" d="M507.9,514.4l-2.1,16.6l-1.6,12.3c-0.1,1.2-1.2,2.1-2.4,1.9c-0.8-0.1-1.4-0.6-1.7-1.3l-5.3-11.2l-7.2-15.4
			c-0.2-0.5-0.3-1-0.1-1.5c1.6,0.1,3.2,0.2,4.8,0.2C497.5,516,502.7,515.5,507.9,514.4z"/>
		<path class="st4" d="M83.4,199.1c-15.2-4.3-27.1-29.8-24.8-51c1-8,3.7-15.7,8.1-22.4c1.9-3,9.1-13.8,21.4-19
			c19.5-8.2,46.5,0,54.4,14.9C156.3,147.4,107.4,205.8,83.4,199.1z"/>
		<path class="st4" d="M729.3,161.9c14.4-5.2,21.9-31.3,19.9-50.1c-0.5-4.7-1.6-13.5-8-22.1c-8.2-11-19.7-14.2-22.9-15.1
			c-19.5-5.3-44.1,3.4-50.5,18C656.5,118.1,707,170,729.3,161.9z"/>
		<path class="st4" d="M481.3,104.6c0,10.3-8,18.9-18.3,19.7l-35.2,2.6l-2.5,22.2l15.9-1.1c8-0.6,15,5.4,15.6,13.5c0,0,0,0,0,0
			c0,0.4,0,0.7,0,1.1c0,7.6-5.9,14-13.5,14.5l-21.3,1.5l-3.2,28.6l9.7-0.7c5.4-0.4,10.1,3.7,10.5,9.1c0,0.2,0,0.5,0,0.7
			c0,5.1-4,9.4-9.1,9.8l-13.4,1l-6.5,58.3c-2,17.4-15.4,17.4-17.4,0l-6.3-56.1l-19.8,1.5c-5.4,0.4-10.1-3.6-10.5-9c0,0,0,0,0,0
			c0-0.2,0-0.5,0-0.7c0-5.1,4-9.4,9.1-9.8l19-1.4l-3.1-28.1l-31.8,2.4c-8,0.6-15-5.4-15.6-13.5c0,0,0,0,0,0c0-0.4,0-0.7,0-1.1
			c0-7.6,5.9-13.9,13.5-14.5l30.8-2.3l-2.4-21.9l-40.3,3c-10.9,0.8-20.4-7.4-21.2-18.3c0-0.5-0.1-1-0.1-1.5c0-10.4,8-19,18.4-19.7
			l38.8-2.9l-7-62.7c19.9-2.9,40-4.3,60.1-4.3c5.1,0,10.1,0.1,15.1,0.3l-7,62.3l27.8-2.1c10.9-0.8,20.4,7.4,21.2,18.3c0,0,0,0,0,0
			C481.3,103.6,481.3,104.1,481.3,104.6z"/>
		<path class="st4" d="M799.1,299.8l-45.6,3.9l-39.7,3.3c-6.4,0.5-7.4-4.3-1.2-6.2l37.9-12l41.4-13.1
			C794.7,283.6,797,291.6,799.1,299.8z"/>
		<path class="st4" d="M811.5,401.7c-0.4,8.3-1,16.5-1.9,24.6L768.1,414L730,402.7c-6.2-1.8-5.3-6.7,1.1-6.3l39.7,2.6L811.5,401.7z"
			/>
		<path class="st4" d="M779.8,537.5c-2.6,5.2-5.3,10.3-8.1,15.3l-7-3.6L729.2,531c-5.7-2.9-4-7.5,2.3-6l38.5,9.9L779.8,537.5z"/>
		<path class="st4" d="M141.9,328.2l-39.6,4.2l-60.7,6.4c1.2-9.5,2.9-18.9,4.9-28.2l55.9,6.6l39.6,4.6
			C148.3,322.6,148.3,327.5,141.9,328.2z"/>
		<path class="st4" d="M145.5,419l-35.3,18.4l-54.3,28.2c-1.9,1.1-4.2,1.4-6.3,0.9c-2.3-8.9-4.3-18-5.9-27.1
			c0.6-0.3,1.2-0.5,1.8-0.7l59.2-15.5l38.5-10.2C149.5,411.4,151.2,416,145.5,419z"/>
		<path class="st4" d="M174.1,544.8l-31.3,24.5l-30,23.5c-5-6.3-9.7-12.7-14.2-19.3l36.2-17.1l36-17
			C176.6,536.6,179.2,540.8,174.1,544.8z"/>
	</g>
</g>
</svg>
