<svg xmlns="http://www.w3.org/2000/svg" viewBox="0 0 814.9 747.75"><defs><style>.cls-1{fill:#ffb2b2;}.cls-2,.cls-3,.cls-4,.cls-8{fill:#fff;}.cls-2{stroke:#ffb2b2;stroke-width:40px;}.cls-2,.cls-4,.cls-6,.cls-8{stroke-linecap:round;stroke-linejoin:round;}.cls-4,.cls-6,.cls-8{stroke:#992600;}.cls-4,.cls-6{stroke-width:5px;}.cls-5{fill:#992600;}.cls-6{fill:none;}.cls-7{fill:#fcddd6;}.cls-8{stroke-width:6px;}</style></defs><g id="Layer_2" data-name="Layer 2"><g id="Vector_layer" data-name="Vector layer"><path class="cls-1" d="M66.37,277.63C25.12,266-3.33,196.53.31,141.64c.83-12.42,3.08-40.72,23.33-68.5,3.29-4.52,22.11-29.66,55.26-42.07,53.48-20,124.27.67,145.08,39.73C260.74,139.78,130.3,295.68,66.37,277.63Z"/><path class="cls-1" d="M760.94,237c38.44-14,58.71-83.14,53-133.65-1.49-13.18-4.66-38.32-23.7-62-21.6-26.88-50-35-58.66-37.28-52-14-117.73,9.29-134.77,47.95C566.84,120.08,701.59,258.68,760.94,237Z"/><path class="cls-1" d="M803.09,317.42a304,304,0,0,1-19.48,29c-12.06,15.91-51.58,68.05-103.76,86.59-59.22,21-79.08-21-182.44-30.76-92.1-8.71-173.43,15.48-204.25,24.65-74.05,22-97.21,44.87-154.68,43.49-36.85-.89-68.52-11.28-93.22-23q-.81-4.07-1.52-8.16a335.94,335.94,0,0,1-2.13-100.49q1.85-14.29,4.9-28.22C78.24,165.19,205,51.79,364,28.67a416.06,416.06,0,0,1,60.12-4.34q7.59,0,15.11.27c166.24,5.95,305.47,109.7,352.84,251q4,11.92,7.09,24.19Q801.36,308.54,803.09,317.42Z"/><path class="cls-2" d="M792.51,391.11q0,6.57-.26,13.09-.51,11.67-1.83,23.15a314.76,314.76,0,0,1-31.59,105.16q-3.68,7.31-7.71,14.41c-61,107.49-183.1,180.83-323.78,180.83-121.24,0-228.66-54.45-295.08-138.28q-7-8.88-13.44-18.18A320.94,320.94,0,0,1,72.4,470.56q-2.34-8.83-4.13-17.87c23.41,11,53.42,20.77,88.35,21.61,54.47,1.3,76.42-20.21,146.61-40.93,29.21-8.63,106.3-31.39,193.59-23.2,98,9.2,116.79,48.74,172.92,28.95,49.46-17.45,86.92-66.51,98.35-81.49a284.64,284.64,0,0,0,18.46-27.33A311.56,311.56,0,0,1,792.51,391.11Z"/><path class="cls-3" d="M337.29,290.35a100.2,100.2,0,1,1-200.39,0c0-55.33,22.28-124.82,77.62-124.82,36.69,0,91.35,44.35,108.8,73.78A99.67,99.67,0,0,1,337.29,290.35Z"/><path class="cls-3" d="M680.44,282.73c-6.47,56.87-51.66,94.95-107,94.95a100.18,100.18,0,0,1-100.19-100.2c0-55.33,67.84-136.69,123.18-136.69,36.7,0,67.65,36.63,77.53,69.39C678.82,226.22,682.54,264.21,680.44,282.73Z"/><path class="cls-4" d="M304.21,317.08a69.13,69.13,0,1,1-9.64-35.22A69.14,69.14,0,0,1,304.21,317.08Z"/><path class="cls-5" d="M304.21,317.08A69.15,69.15,0,0,1,197,374.82a69.15,69.15,0,0,1,97.54-93A68.73,68.73,0,0,1,304.21,317.08Z"/><path class="cls-6" d="M278.81,511.58a68.88,68.88,0,0,0,48.49,19.86h.05"/><path class="cls-5" d="M489.22,527c0,49.45-31,89.54-69.14,89.54S350.94,576.41,350.94,527c0-.52,0-1,0-1.55A69.15,69.15,0,0,0,399,461l7.66,8.39a13.59,13.59,0,0,0,19.51.58,75.79,75.79,0,0,0,62.23,42.94A115.25,115.25,0,0,1,489.22,527Z"/><path class="cls-6" d="M503.46,514.83a75.85,75.85,0,0,0,58-56.44"/><path class="cls-4" d="M646.4,297.71a69.14,69.14,0,1,1-138.28,0c0-.69,0-1.37,0-2a69.14,69.14,0,0,1,138.25,2Z"/><path class="cls-5" d="M636.67,331.09c0,.68,0,1.37,0,2.05a69.14,69.14,0,0,1-128.52-35.43c0-.69,0-1.37,0-2a69.14,69.14,0,0,1,128.52,35.43Z"/><path class="cls-7" d="M460.32,421l-14.21,19.87-3.29,4.61L424,471.74a13.68,13.68,0,0,1-1.26,1.53,12.83,12.83,0,0,1-19.41-.62l-7.61-9h0L384,449.76l-5.06-6L363.32,425.2c-6.47-7.68-3.54-19.27,4.31-23.14a12.67,12.67,0,0,1,5.13-1.32l76.33-3.33C460.56,396.9,467.35,411.13,460.32,421Z"/><path class="cls-8" d="M349.42,530.54,344,546.69l-4,11.76a2.19,2.19,0,0,1-4.2-.18l-3-12L329.38,532a68.64,68.64,0,0,0,20-3A2.14,2.14,0,0,1,349.42,530.54Z"/><path class="cls-8" d="M507.89,514.39,505.78,531l-1.56,12.31a2.19,2.19,0,0,1-4.16.66l-5.27-11.24-7.24-15.41a2.07,2.07,0,0,1-.12-1.48c1.58.1,3.17.15,4.78.15A75.69,75.69,0,0,0,507.89,514.39Z"/><path class="cls-5" d="M83.42,199.05c-15.25-4.31-27.13-29.77-24.77-51a53.57,53.57,0,0,1,8.08-22.44c1.92-3,9.08-13.83,21.39-19,19.46-8.2,46.46,0,54.41,14.9C156.32,147.36,107.4,205.82,83.42,199.05Z"/><path class="cls-5" d="M729.29,161.91c14.38-5.25,21.91-31.28,19.88-50.12-.51-4.72-1.57-13.53-8-22.12-8.19-11-19.65-14.24-22.9-15.12-19.52-5.3-44.13,3.45-50.54,18C656.5,118.05,707,170,729.29,161.91Z"/><path class="cls-5" d="M481.3,104.56A19.81,19.81,0,0,1,463,124.29l-35.18,2.62-2.49,22.23L441.21,148a14.58,14.58,0,0,1,15.62,13.46c0,.37,0,.74,0,1.1a14.58,14.58,0,0,1-13.5,14.53L422,178.64l-3.2,28.59,9.72-.72A9.81,9.81,0,0,1,439,215.57c0,.25,0,.49,0,.74a9.81,9.81,0,0,1-9.09,9.77l-13.39,1-6.52,58.31c-1.95,17.42-15.42,17.42-17.37,0l-6.27-56.07-19.77,1.47a9.81,9.81,0,0,1-10.52-9.06c0-.25,0-.49,0-.73a9.82,9.82,0,0,1,9.09-9.78l19.05-1.42-3.15-28.12-31.82,2.37a14.59,14.59,0,0,1-15.63-13.47c0-.37,0-.74,0-1.1A14.58,14.58,0,0,1,347.09,155l30.75-2.29L375.4,130.8l-40.28,3a19.81,19.81,0,0,1-21.22-18.29c0-.5-.06-1-.06-1.49a19.81,19.81,0,0,1,18.35-19.73L371,91.41l-7-62.74a416.06,416.06,0,0,1,60.12-4.34q7.59,0,15.11.27l-7,62.25L460,84.79a19.79,19.79,0,0,1,21.22,18.28C481.28,103.57,481.3,104.06,481.3,104.56Z"/><path class="cls-5" d="M799.14,299.81l-45.56,3.86L713.92,307c-6.4.55-7.36-4.29-1.24-6.23l37.94-12,41.43-13.14Q796,287.54,799.14,299.81Z"/><path class="cls-5" d="M811.52,401.74q-.53,12.4-1.93,24.6L768.12,414,730,402.67c-6.15-1.82-5.28-6.68,1.13-6.26L770.8,399Z"/><path class="cls-5" d="M779.81,537.47q-3.87,7.77-8.13,15.32l-7-3.6L729.25,531c-5.71-2.93-4-7.54,2.26-5.95l38.55,9.9Z"/><path class="cls-5" d="M141.93,328.18l-39.59,4.2-60.73,6.44q1.85-14.29,4.9-28.22l55.92,6.57L142,321.82C148.34,322.57,148.31,327.5,141.93,328.18Z"/><path class="cls-5" d="M145.54,419l-35.32,18.35-54.29,28.2a8.77,8.77,0,0,1-6.31.94q-3.49-13.38-5.88-27.15a10.73,10.73,0,0,1,1.83-.66l59.18-15.52L143.25,413C149.46,411.41,151.24,416,145.54,419Z"/><path class="cls-5" d="M174.11,544.79l-31.34,24.54-30,23.48q-7.43-9.43-14.18-19.32l36.18-17.1,36-17C176.57,536.64,179.16,540.84,174.11,544.79Z"/></g></g></svg>