<svg xmlns="http://www.w3.org/2000/svg" xmlns:xlink="http://www.w3.org/1999/xlink" viewBox="0 0 1082.4 725.88"><defs><style>.cls-1,.cls-7{fill:none;}.cls-2{fill:#00bd79;}.cls-3{clip-path:url(#clip-path);}.cls-4{fill:#006249;}.cls-5{fill:#bee8da;}.cls-5,.cls-7{stroke:#006249;stroke-linecap:round;stroke-linejoin:round;stroke-width:5px;}.cls-6{fill:#fff;}</style><clipPath id="clip-path" transform="translate(0 64.03)"><path class="cls-1" d="M331.35,149.64c34.36-46.94,56.51-77.19,96.74-103.18,87.1-56.28,207-59.07,296.86-21.08C797.83,56.2,794.23,89.9,907.63,144.82c68.11,33,91.07,31.33,98.37,52.7C1027,258.9,877.71,390,717.92,443.44c-124.56,41.68-118.79-9.54-347.79,28.1-30.4,5-79.55,14-108.08-13.7-29.21-28.33-21.27-80-14.88-121.55C249.68,319.94,262.62,243.52,331.35,149.64Z"/></clipPath></defs><g id="Layer_2" data-name="Layer 2"><g id="Vector_layer" data-name="Vector layer"><path class="cls-2" d="M963.09,173.68c3.27-16.28,30-13,49-39.56,14-19.51,11.77-38.18,15.83-38,5.66.28,13.17,36.75,3.16,72.79-4.53,16.34-11.5,41.45-28.48,44.31C983.65,216.44,959.71,190.49,963.09,173.68Z" transform="translate(0 64.03)"/><path class="cls-2" d="M773.77,335.45c21.87,41,22.79,71.63,19.44,92.23-5.5,33.86,29.76,54.46,38.64,84.46,7,23.65-29,32.55-32.31,37.39-4.88,7.2-52.52-3.82-85.45-38-23-23.88-21.94-41.53-57.68-105.51-9.79-17.53-18.4-31.48-24-40.29Z" transform="translate(0 64.03)"/><path class="cls-2" d="M864.06,369.83c20.59,41.62,45,60.21,63.69,69.48,30.74,15.23,27,55.89,46.19,80.57,15.16,19.46,43.37-4.66,49.21-4.52,8.7.22,27.47-44.92,18.85-91.59-6-32.62-21-42-52.24-108.3-8.55-18.17-14.89-33.29-18.8-43Z" transform="translate(0 64.03)"/><path class="cls-2" d="M410.87,449.19c-8.55,45.63-.22,75.15,9.16,93.8,15.42,30.65,39.75,44,40.29,75.24.42,24.67-14.31,39.25-9.73,42.88,6.82,5.41,49-19.41,70.1-61.89,14.78-29.69,8.45-46.2,23.32-118,4.08-19.67,8.1-35.56,10.79-45.65Z" transform="translate(0 64.03)"/><path class="cls-2" d="M290.27,371.16c-21.87,41-22.79,71.62-19.44,92.22,5.5,33.87,24.71,53.87,15.82,83.87-7,23.65-25.43,33.14-22.15,38,4.88,7.2,52.52-3.81,85.45-38,23-23.88,21.94-41.53,57.68-105.5,9.79-17.53,18.4-31.48,24-40.3Z" transform="translate(0 64.03)"/><g class="cls-3"><path class="cls-4" d="M280.07,135.26c40.74-55.66,67-91.53,114.72-122.36,103.28-66.73,245.49-70,352-25C833.22,24.45,829,64.41,963.42,129.54c80.76,39.12,108,37.15,116.64,62.49,24.87,72.79-152.12,228.2-341.6,291.61C590.76,533.07,597.6,472.33,326.05,517c-36.05,5.93-94.32,16.56-128.15-16.25-34.65-33.59-25.23-94.85-17.65-144.13C183.23,337.2,198.57,246.58,280.07,135.26Z" transform="translate(0 64.03)"/><path class="cls-5" d="M239.9,104.63l74.37-70.46a60.57,60.57,0,0,1,58.9-14.09l98.2,29.17a60.56,60.56,0,0,1,41.66,44l23.84,99.63a60.56,60.56,0,0,1-17.25,58l-74.36,70.47a60.57,60.57,0,0,1-58.9,14.09l-98.2-29.17a60.58,60.58,0,0,1-41.66-44l-23.84-99.64A60.58,60.58,0,0,1,239.9,104.63Z" transform="translate(0 64.03)"/><path class="cls-5" d="M551.89,25.53l74.37-70.46A60.57,60.57,0,0,1,685.16-59l98.2,29.17a60.58,60.58,0,0,1,41.66,44l23.84,99.63a60.56,60.56,0,0,1-17.25,58.05l-74.36,70.47a60.57,60.57,0,0,1-58.9,14.09l-98.21-29.17a60.58,60.58,0,0,1-41.65-44L534.65,83.59A60.59,60.59,0,0,1,551.89,25.53Z" transform="translate(0 64.03)"/><path class="cls-5" d="M774.16,257l74.37-70.47a60.57,60.57,0,0,1,58.9-14.09l98.2,29.17a60.58,60.58,0,0,1,41.66,44l23.84,99.64a60.56,60.56,0,0,1-17.25,58.05l-74.36,70.46a60.58,60.58,0,0,1-58.9,14.1l-98.2-29.17a60.6,60.6,0,0,1-41.66-44l-23.84-99.64A60.58,60.58,0,0,1,774.16,257Z" transform="translate(0 64.03)"/><path class="cls-5" d="M470.65,339.24,545,268.77a60.57,60.57,0,0,1,58.9-14.09l98.21,29.17a60.57,60.57,0,0,1,41.65,44l23.84,99.64a60.58,60.58,0,0,1-17.24,58.05L676,556a60.55,60.55,0,0,1-58.89,14.09L518.9,540.88a60.53,60.53,0,0,1-41.65-44L453.4,397.29A60.56,60.56,0,0,1,470.65,339.24Z" transform="translate(0 64.03)"/></g><path class="cls-2" d="M429.39,326.88c1.39,72.88-96.12,132-214.7,132S0,399.77,0,326.88c0-21.75,8.56-42.28,23.73-60.37a25.36,25.36,0,0,1-1.8-9.38c0-2.46.11-18.8.32-21.21C28,169.76,111.91,106,214.54,106s186.73,63.94,192.32,130.22c.2,2.34.3,18.59.3,21a25.78,25.78,0,0,1-1.36,8.26C420.5,281.49,428.91,301.71,429.39,326.88Z" transform="translate(0 64.03)"/><path class="cls-6" d="M154.33,198.38a37,37,0,1,1-.05-1.83h0C154.31,197.16,154.33,197.77,154.33,198.38Z" transform="translate(0 64.03)"/><path class="cls-4" d="M154.33,198.38a36.93,36.93,0,0,1-68.52,19.13c0-.6,0-1.21,0-1.82a36.94,36.94,0,0,1,68.52-19.14h0C154.31,197.16,154.33,197.77,154.33,198.38Z" transform="translate(0 64.03)"/><path class="cls-6" d="M352.14,201.12a36.93,36.93,0,0,1-73.85,0c0-1.13,0-2.25.15-3.35a36.93,36.93,0,0,1,73.7,3.35Z" transform="translate(0 64.03)"/><path class="cls-4" d="M347.87,215.32c0,1.13-.05,2.25-.15,3.35a36.94,36.94,0,0,1-69.43-17.55c0-1.13,0-2.25.15-3.35a36.94,36.94,0,0,1,69.43,17.55Z" transform="translate(0 64.03)"/><path d="M185.75,283.84a4.17,4.17,0,1,1-4.17-4.17A4.17,4.17,0,0,1,185.75,283.84Z" transform="translate(0 64.03)"/><circle cx="252.4" cy="349.31" r="4.17"/><path class="cls-7" d="M153.69,275.19a100.63,100.63,0,0,1,36.4-19.78c8.95-2.66,29.12-8.35,53-.79a85.25,85.25,0,0,1,39.56,26.9" transform="translate(0 64.03)"/><path class="cls-7" d="M119.69,329.21c7.07,5.57,22.17,16.1,46.17,23.29" transform="translate(0 64.03)"/><path class="cls-7" d="M274.19,351.51a182.37,182.37,0,0,0,43.13-16.95" transform="translate(0 64.03)"/><path class="cls-4" d="M282.49,346.34c-6.55,11-18.3,27.68-35.37,38-8.86,5.34-28.86,16.82-53.24,3.92-18.39-9.73-31-29-37.94-41.87a164,164,0,0,0,16.81,5.53c42.82,11.55,79,2.85,95-1.22Q275.53,348.72,282.49,346.34Z" transform="translate(0 64.03)"/><path class="cls-2" d="M259.44,349a24.1,24.1,0,0,1-4,2.9c-6.22,3.63-12.46,3.39-14.77,3.42-5.3.09-12.33,2.08-22.78,10.55a54.15,54.15,0,0,0-13.66-8.42,27.18,27.18,0,0,0-9.81-2.13c-2.3,0-8.55.21-14.77-3.42a24.55,24.55,0,0,1-4-2.9Z" transform="translate(0 64.03)"/></g></g></svg>