<svg width="237" height="376" viewBox="0 0 237 376" fill="none" xmlns="http://www.w3.org/2000/svg">
<g opacity="0.3" filter="url(#filter0_d_414_546)">
<rect width="179" height="360" rx="5" transform="matrix(1 0 0 -1 4 362)" fill="#82CDED"/>
<rect x="0.5" y="-0.5" width="178" height="359" rx="4.5" transform="matrix(1 0 0 -1 4 361)" stroke="#82CDED"/>
</g>
<rect x="69.5" y="76.5" width="48" height="19" rx="9.5" stroke="black" stroke-opacity="0.5"/>
<path d="M83.6243 83.582C84.3443 83.582 84.6413 84.176 84.6413 84.743C84.6413 85.319 84.3353 85.895 83.5793 85.895H82.0043V83.582H83.6243ZM81.9953 86.678H83.6333C84.9473 86.678 85.4783 85.724 85.4783 84.743C85.4783 83.771 84.9473 82.799 83.6333 82.799H81.5093C81.3203 82.799 81.1583 82.961 81.1583 83.159V88.622C81.1583 88.856 81.3383 89.045 81.5723 89.045C81.8153 89.045 81.9953 88.856 81.9953 88.622V86.678ZM89.4155 83.582C90.1355 83.582 90.4145 84.176 90.4145 84.743C90.4145 85.319 90.1355 85.895 89.3795 85.895H87.9035V83.582H89.4155ZM90.1895 88.856C90.3335 89.054 90.5855 89.108 90.7745 88.964C90.9725 88.829 91.0085 88.577 90.8735 88.379L89.6585 86.651C90.8195 86.552 91.2785 85.661 91.2785 84.743C91.2785 83.771 90.7475 82.799 89.4425 82.799H87.4085C87.2195 82.799 87.0575 82.961 87.0575 83.159V88.622C87.0575 88.856 87.2375 89.045 87.4715 89.045C87.7145 89.045 87.8945 88.856 87.8945 88.622V86.678H88.6955L90.1895 88.856ZM93.8289 83.177C93.8289 82.943 93.6489 82.754 93.4059 82.754C93.1719 82.754 92.9919 82.943 92.9919 83.177V88.622C92.9919 88.856 93.1719 89.045 93.4059 89.045C93.6489 89.045 93.8289 88.856 93.8289 88.622V83.177ZM99.4574 88.811C99.5564 88.982 99.6824 89.045 99.8624 89.045H99.9794C100.195 89.045 100.375 88.865 100.375 88.649V83.177C100.375 82.943 100.195 82.754 99.9524 82.754C99.7184 82.754 99.5384 82.943 99.5384 83.177V87.434L96.8654 82.997C96.7664 82.817 96.6314 82.754 96.4424 82.754H96.3254C96.1004 82.754 95.9114 82.943 95.9114 83.168V88.622C95.9114 88.856 96.0914 89.045 96.3344 89.045C96.5684 89.045 96.7484 88.856 96.7484 88.622V84.329L99.4574 88.811ZM103.739 83.582V88.622C103.739 88.856 103.919 89.045 104.153 89.045C104.396 89.045 104.576 88.856 104.576 88.622V83.582H106.124C106.34 83.582 106.52 83.411 106.52 83.186C106.52 82.97 106.34 82.799 106.124 82.799H102.182C101.966 82.799 101.786 82.97 101.786 83.186C101.786 83.411 101.966 83.582 102.182 83.582H103.739Z" fill="#16161D"/>
<rect x="69.5" y="324.5" width="90" height="19" rx="9.5" stroke="black" stroke-opacity="0.5"/>
<path d="M79.611 330.799C79.386 330.799 79.188 330.997 79.188 331.231V336.622C79.188 336.856 79.368 337.045 79.602 337.045C79.845 337.045 80.025 336.856 80.025 336.622V334.345H81.879C82.095 334.345 82.275 334.174 82.275 333.949C82.275 333.733 82.095 333.562 81.879 333.562H80.025V331.582H82.455C82.671 331.582 82.851 331.411 82.851 331.186C82.851 330.97 82.671 330.799 82.455 330.799H79.611ZM85.2211 331.177C85.2211 330.943 85.0411 330.754 84.7981 330.754C84.5641 330.754 84.3841 330.943 84.3841 331.177V336.622C84.3841 336.856 84.5641 337.045 84.7981 337.045C85.0411 337.045 85.2211 336.856 85.2211 336.622V331.177ZM90.8496 336.811C90.9486 336.982 91.0746 337.045 91.2546 337.045H91.3716C91.5876 337.045 91.7676 336.865 91.7676 336.649V331.177C91.7676 330.943 91.5876 330.754 91.3446 330.754C91.1106 330.754 90.9306 330.943 90.9306 331.177V335.434L88.2576 330.997C88.1586 330.817 88.0236 330.754 87.8346 330.754H87.7176C87.4926 330.754 87.3036 330.943 87.3036 331.168V336.622C87.3036 336.856 87.4836 337.045 87.7266 337.045C87.9606 337.045 88.1406 336.856 88.1406 336.622V332.329L90.8496 336.811ZM94.6905 331.177C94.6905 330.943 94.5105 330.754 94.2675 330.754C94.0335 330.754 93.8535 330.943 93.8535 331.177V336.622C93.8535 336.856 94.0335 337.045 94.2675 337.045C94.5105 337.045 94.6905 336.856 94.6905 336.622V331.177ZM97.259 335.443C97.205 335.272 97.061 335.146 96.881 335.146C96.665 335.146 96.467 335.281 96.467 335.533C96.467 335.587 96.476 335.65 96.494 335.713C96.746 336.505 97.475 337.09 98.564 337.09C99.896 337.09 100.652 336.226 100.652 335.227C100.652 334.381 100.04 333.787 98.978 333.526L98.168 333.328C97.385 333.139 97.286 332.734 97.286 332.464C97.286 331.897 97.844 331.528 98.447 331.528C99.014 331.528 99.455 331.762 99.608 332.338C99.671 332.563 99.842 332.626 99.995 332.626C100.31 332.626 100.409 332.446 100.409 332.248C100.409 332.176 100.4 332.104 100.382 332.041C100.157 331.24 99.446 330.727 98.456 330.727C97.403 330.727 96.449 331.429 96.449 332.473C96.449 333.004 96.647 333.769 97.961 334.093L98.762 334.291C99.293 334.426 99.824 334.696 99.815 335.308C99.815 335.812 99.383 336.307 98.564 336.307C97.889 336.307 97.385 335.902 97.259 335.443ZM106.164 336.622C106.164 336.856 106.344 337.045 106.578 337.045C106.821 337.045 107.001 336.856 107.001 336.622V331.177C107.001 330.943 106.821 330.754 106.578 330.754C106.344 330.754 106.164 330.943 106.164 331.177V333.535H103.167V331.177C103.167 330.943 102.987 330.754 102.744 330.754C102.51 330.754 102.33 330.943 102.33 331.177V336.622C102.33 336.856 102.51 337.045 102.744 337.045C102.987 337.045 103.167 336.856 103.167 336.622V334.3H106.164V336.622ZM112.542 334.669L113.568 331.762L114.594 334.669H112.542ZM114.153 331.159C114.054 330.907 113.874 330.754 113.595 330.754H113.55C113.253 330.754 113.082 330.907 112.974 331.159L110.958 336.469C110.868 336.694 110.967 336.928 111.192 337.018C111.417 337.099 111.651 336.991 111.732 336.775L112.254 335.425H114.882L115.395 336.775C115.476 336.991 115.71 337.099 115.935 337.018C116.16 336.928 116.259 336.694 116.169 336.469L114.153 331.159ZM117.144 333.904C117.144 335.668 118.53 337.09 120.285 337.09C121.095 337.09 121.815 336.802 122.346 336.316C122.508 336.172 122.535 335.911 122.391 335.731C122.229 335.551 121.968 335.542 121.797 335.686C121.392 336.046 120.879 336.28 120.285 336.28C118.989 336.28 117.981 335.227 117.981 333.913C117.981 332.599 118.989 331.537 120.285 331.537C120.879 331.537 121.392 331.771 121.797 332.131C121.968 332.275 122.229 332.266 122.391 332.086C122.535 331.906 122.508 331.645 122.346 331.501C121.815 331.015 121.095 330.727 120.285 330.727C118.53 330.727 117.144 332.14 117.144 333.904ZM125.315 331.582V336.622C125.315 336.856 125.495 337.045 125.729 337.045C125.972 337.045 126.152 336.856 126.152 336.622V331.582H127.7C127.916 331.582 128.096 331.411 128.096 331.186C128.096 330.97 127.916 330.799 127.7 330.799H123.758C123.542 330.799 123.362 330.97 123.362 331.186C123.362 331.411 123.542 331.582 123.758 331.582H125.315ZM130.342 331.177C130.342 330.943 130.162 330.754 129.919 330.754C129.685 330.754 129.505 330.943 129.505 331.177V336.622C129.505 336.856 129.685 337.045 129.919 337.045C130.162 337.045 130.342 336.856 130.342 336.622V331.177ZM133.559 336.712C133.613 336.91 133.766 337.045 134.009 337.045H134.09C134.324 337.045 134.477 336.91 134.54 336.712L136.169 331.267C136.178 331.231 136.187 331.186 136.187 331.15C136.187 330.925 136.034 330.754 135.773 330.754C135.575 330.754 135.422 330.862 135.35 331.105L134.045 335.623L132.731 331.105C132.659 330.862 132.497 330.754 132.308 330.754C132.047 330.754 131.894 330.925 131.894 331.15C131.894 331.186 131.903 331.231 131.912 331.267L133.559 336.712ZM138.581 331.177C138.581 330.943 138.401 330.754 138.158 330.754C137.924 330.754 137.744 330.943 137.744 331.177V336.622C137.744 336.856 137.924 337.045 138.158 337.045C138.401 337.045 138.581 336.856 138.581 336.622V331.177ZM141.951 331.582V336.622C141.951 336.856 142.131 337.045 142.365 337.045C142.608 337.045 142.788 336.856 142.788 336.622V331.582H144.336C144.552 331.582 144.732 331.411 144.732 331.186C144.732 330.97 144.552 330.799 144.336 330.799H140.394C140.178 330.799 139.998 330.97 139.998 331.186C139.998 331.411 140.178 331.582 140.394 331.582H141.951ZM147.536 334.147V336.622C147.536 336.856 147.716 337.045 147.959 337.045C148.211 337.045 148.391 336.856 148.391 336.622V334.147L150.335 331.411C150.461 331.222 150.425 330.961 150.227 330.826C150.047 330.7 149.795 330.745 149.66 330.934L147.959 333.31L146.276 330.934C146.141 330.745 145.889 330.7 145.709 330.826C145.511 330.961 145.484 331.213 145.61 331.402L147.536 334.147Z" fill="#16161D"/>
<path d="M34.3273 36.534C34.8673 38.028 36.4333 39.18 38.5033 39.18C40.8793 39.18 42.5533 37.794 42.7333 35.85C42.9313 34.068 41.8873 32.664 39.3853 31.998L37.8013 31.584C36.3253 31.206 36.1453 30.45 36.1453 29.964C36.1453 28.938 37.1533 28.254 38.2873 28.254C38.9713 28.254 39.7993 28.416 40.3573 29.37C40.6093 29.856 40.9873 30.108 41.5453 29.928C42.0133 29.784 42.2293 29.226 42.0493 28.758C41.4553 27.21 40.2133 26.454 38.3233 26.454C36.1453 26.454 34.2373 27.876 34.2373 30C34.2373 31.098 34.6513 32.61 37.3153 33.33L38.8813 33.726C40.0333 33.996 40.9153 34.59 40.8433 35.742C40.7173 36.642 39.9613 37.434 38.5033 37.434C37.1713 37.434 36.5413 36.75 36.1453 35.94C35.9113 35.364 35.4253 35.184 34.9033 35.328C34.4173 35.454 34.1653 36.048 34.3273 36.534ZM46.0895 34.104C46.2695 32.808 47.2775 32.034 48.5735 32.034C49.8335 32.034 50.7875 32.79 50.9675 34.104H46.0895ZM52.7855 34.608C52.7135 32.034 50.9135 30.414 48.5735 30.414C46.1795 30.414 44.2535 32.106 44.2535 34.77C44.2535 37.434 46.1795 39.18 48.5735 39.18C49.8155 39.18 51.0395 38.73 51.8855 37.848C52.2095 37.506 52.1915 36.948 51.8495 36.678C51.4715 36.372 50.9675 36.498 50.6615 36.75C50.0495 37.254 49.5455 37.56 48.6635 37.56C47.3135 37.56 46.2695 36.75 46.0895 35.454H51.9395C52.3895 35.454 52.7855 35.094 52.7855 34.608ZM56.508 26.868C56.508 26.364 56.094 25.932 55.554 25.932C55.05 25.932 54.654 26.364 54.654 26.868V38.154C54.654 38.658 55.05 39.09 55.554 39.09C56.094 39.09 56.508 38.658 56.508 38.154V26.868ZM62.8461 32.124C63.2601 32.124 63.6201 31.8 63.6201 31.386C63.6201 30.936 63.2601 30.594 62.8461 30.594H61.6401V29.82C61.6401 28.758 61.9101 27.804 63.1341 27.804H63.2781C63.7641 27.804 64.1781 27.408 64.1781 26.886C64.1781 26.4 63.7641 26.022 63.2781 26.022H63.1341C60.8301 26.022 59.7861 27.516 59.7861 29.82V30.594H58.8501C58.4361 30.594 58.0761 30.936 58.0761 31.386C58.0761 31.8 58.4361 32.124 58.8501 32.124H59.7861V38.154C59.7861 38.658 60.2001 39.09 60.7401 39.09C61.2441 39.09 61.6401 38.658 61.6401 38.154V32.124H62.8461ZM73.2491 28.992L75.1031 34.194H71.3951L73.2491 28.992ZM76.7231 38.478C76.9031 38.964 77.4791 39.216 78.0011 39.036C78.4691 38.874 78.6851 38.28 78.5051 37.794L74.5991 27.444C74.3651 26.85 73.9331 26.508 73.3031 26.508H73.1951C72.5111 26.508 72.1151 26.85 71.8811 27.444L67.9751 37.794C67.7951 38.28 68.0111 38.874 68.4791 39.036C69.0011 39.216 69.5771 38.964 69.7571 38.478L70.7471 35.904H75.7511L76.7231 38.478ZM85.4406 30.594C84.9186 30.594 84.5406 30.864 84.3606 31.404L82.6686 36.264L80.8866 31.134C80.7066 30.63 80.2566 30.432 79.7706 30.522C79.2666 30.612 78.9786 31.206 79.1586 31.674L81.6606 38.316C81.8406 38.838 82.2186 39.09 82.6326 39.09H82.7046C83.1366 39.09 83.4786 38.838 83.6586 38.316L85.4766 33.132L87.2946 38.316C87.4746 38.838 87.8166 39.09 88.2486 39.09H88.3206C88.7346 39.09 89.1126 38.838 89.2926 38.316L91.7946 31.674C91.9746 31.206 91.6866 30.612 91.1826 30.522C90.6966 30.432 90.2466 30.63 90.0666 31.134L88.2846 36.264L86.5926 31.404C86.4126 30.864 86.0346 30.594 85.5126 30.594H85.4406ZM100.072 38.154C100.072 38.658 100.468 39.09 100.972 39.09C101.512 39.09 101.926 38.658 101.926 38.154V31.44C101.926 30.936 101.512 30.504 100.972 30.504C100.468 30.504 100.072 30.936 100.072 31.44V31.782C99.4961 30.828 98.2541 30.414 97.2461 30.414C94.9781 30.414 92.9801 32.106 92.9801 34.788C92.9801 37.47 94.9781 39.18 97.2461 39.18C98.2901 39.18 99.5141 38.712 100.072 37.794V38.154ZM94.8881 34.77C94.8881 33.222 96.0581 32.214 97.4621 32.214C98.7221 32.214 100.054 33.114 100.054 34.77C100.054 36.426 98.8301 37.38 97.4621 37.38C96.0581 37.38 94.8881 36.318 94.8881 34.77ZM108.521 32.16C109.061 32.16 109.871 32.358 110.033 31.548C110.141 31.062 109.835 30.594 109.367 30.486C109.115 30.432 108.845 30.414 108.575 30.414C107.531 30.414 106.703 31.026 106.271 32.52V31.44C106.271 30.936 105.857 30.504 105.317 30.504C104.813 30.504 104.417 30.936 104.417 31.44V38.154C104.417 38.658 104.813 39.09 105.317 39.09C105.857 39.09 106.271 38.658 106.271 38.154V35.976C106.271 33.744 106.937 32.16 108.521 32.16ZM112.57 34.104C112.75 32.808 113.758 32.034 115.054 32.034C116.314 32.034 117.268 32.79 117.448 34.104H112.57ZM119.266 34.608C119.194 32.034 117.394 30.414 115.054 30.414C112.66 30.414 110.734 32.106 110.734 34.77C110.734 37.434 112.66 39.18 115.054 39.18C116.296 39.18 117.52 38.73 118.366 37.848C118.69 37.506 118.672 36.948 118.33 36.678C117.952 36.372 117.448 36.498 117.142 36.75C116.53 37.254 116.026 37.56 115.144 37.56C113.794 37.56 112.75 36.75 112.57 35.454H118.42C118.87 35.454 119.266 35.094 119.266 34.608ZM121.098 38.154C121.098 38.658 121.494 39.09 121.998 39.09C122.538 39.09 122.952 38.658 122.952 38.154V34.482C122.952 32.826 124.014 32.232 125.112 32.232C126.192 32.232 126.876 32.988 126.876 34.32V38.154C126.876 38.658 127.272 39.09 127.776 39.09C128.316 39.09 128.73 38.658 128.73 38.154V34.104C128.73 31.728 127.56 30.414 125.526 30.414C124.59 30.414 123.438 30.882 122.952 31.854V31.44C122.952 30.936 122.556 30.504 122.052 30.504C121.512 30.504 121.098 30.936 121.098 31.44V38.154ZM132.504 34.104C132.684 32.808 133.692 32.034 134.988 32.034C136.248 32.034 137.202 32.79 137.382 34.104H132.504ZM139.2 34.608C139.128 32.034 137.328 30.414 134.988 30.414C132.594 30.414 130.668 32.106 130.668 34.77C130.668 37.434 132.594 39.18 134.988 39.18C136.23 39.18 137.454 38.73 138.3 37.848C138.624 37.506 138.606 36.948 138.264 36.678C137.886 36.372 137.382 36.498 137.076 36.75C136.464 37.254 135.96 37.56 135.078 37.56C133.728 37.56 132.684 36.75 132.504 35.454H138.354C138.804 35.454 139.2 35.094 139.2 34.608ZM140.636 37.272C141.086 38.496 142.4 39.18 143.696 39.18C145.622 39.18 147.044 38.262 147.044 36.642C147.044 35.796 146.666 34.608 144.848 34.158L143.552 33.834C143.102 33.708 142.598 33.546 142.49 33.222C142.4 32.97 142.418 32.736 142.562 32.502C142.742 32.214 143.264 32.052 143.732 32.052C144.164 32.052 144.704 32.214 145.172 32.628C145.568 32.97 145.946 32.988 146.252 32.736C146.54 32.52 146.666 32.088 146.414 31.656C145.856 30.774 144.83 30.414 143.714 30.414C142.166 30.414 140.816 31.386 140.708 32.628C140.6 33.978 141.248 34.95 143.03 35.436L144.164 35.706C144.776 35.85 145.298 36.084 145.298 36.624C145.298 37.254 144.686 37.632 143.84 37.632C143.012 37.632 142.364 37.272 142.022 36.624C141.878 36.318 141.536 36.084 141.086 36.264C140.69 36.408 140.492 36.822 140.636 37.272ZM148.581 37.272C149.031 38.496 150.345 39.18 151.641 39.18C153.567 39.18 154.989 38.262 154.989 36.642C154.989 35.796 154.611 34.608 152.793 34.158L151.497 33.834C151.047 33.708 150.543 33.546 150.435 33.222C150.345 32.97 150.363 32.736 150.507 32.502C150.687 32.214 151.209 32.052 151.677 32.052C152.109 32.052 152.649 32.214 153.117 32.628C153.513 32.97 153.891 32.988 154.197 32.736C154.485 32.52 154.611 32.088 154.359 31.656C153.801 30.774 152.775 30.414 151.659 30.414C150.111 30.414 148.761 31.386 148.653 32.628C148.545 33.978 149.193 34.95 150.975 35.436L152.109 35.706C152.721 35.85 153.243 36.084 153.243 36.624C153.243 37.254 152.631 37.632 151.785 37.632C150.957 37.632 150.309 37.272 149.967 36.624C149.823 36.318 149.481 36.084 149.031 36.264C148.635 36.408 148.437 36.822 148.581 37.272ZM71.0079 48.992L72.8619 54.194H69.1539L71.0079 48.992ZM74.4819 58.478C74.6619 58.964 75.2379 59.216 75.7599 59.036C76.2279 58.874 76.4439 58.28 76.2639 57.794L72.3579 47.444C72.1239 46.85 71.6919 46.508 71.0619 46.508H70.9539C70.2699 46.508 69.8739 46.85 69.6399 47.444L65.7339 57.794C65.5539 58.28 65.7699 58.874 66.2379 59.036C66.7599 59.216 67.3359 58.964 67.5159 58.478L68.5059 55.904H73.5099L74.4819 58.478ZM77.3443 54.806C77.3443 57.47 79.4143 59.18 81.8263 59.18C82.7983 59.18 83.6803 58.91 84.4003 58.406C84.7963 58.136 84.8863 57.614 84.6163 57.164C84.3643 56.75 83.7343 56.732 83.3383 56.966C82.9063 57.218 82.3663 57.38 81.8263 57.38C80.4223 57.38 79.1803 56.372 79.1803 54.806C79.1803 53.24 80.4223 52.214 81.8263 52.214C82.3663 52.214 82.9063 52.376 83.3383 52.628C83.7343 52.862 84.3643 52.844 84.6163 52.43C84.8863 51.98 84.7963 51.458 84.4003 51.188C83.6803 50.684 82.7983 50.414 81.8263 50.414C79.4143 50.414 77.3443 52.142 77.3443 54.806ZM87.3728 58.154C87.3728 58.658 87.7688 59.09 88.2728 59.09C88.8128 59.09 89.2268 58.658 89.2268 58.154V52.124H90.3248C90.7388 52.124 91.0988 51.8 91.0988 51.386C91.0988 50.936 90.7388 50.594 90.3248 50.594H89.2268V48.254C89.2268 47.75 88.8128 47.318 88.2728 47.318C87.7688 47.318 87.3728 47.75 87.3728 48.254V50.594H86.5448C86.1308 50.594 85.7708 50.936 85.7708 51.386C85.7708 51.8 86.1308 52.124 86.5448 52.124H87.3728V58.154ZM92.2715 47.192C92.2715 47.858 92.8475 48.362 93.5135 48.362C94.1975 48.362 94.7375 47.858 94.7375 47.192C94.7375 46.526 94.1975 46.022 93.5135 46.022C92.8475 46.022 92.2715 46.526 92.2715 47.192ZM94.4495 58.154C94.4495 58.658 94.0355 59.09 93.4955 59.09C92.9915 59.09 92.5955 58.658 92.5955 58.154V51.44C92.5955 50.936 92.9915 50.504 93.4955 50.504C94.0355 50.504 94.4495 50.936 94.4495 51.44V58.154ZM104.065 51.674C104.263 51.206 103.957 50.612 103.453 50.522C102.967 50.432 102.517 50.666 102.337 51.134L100.141 56.642L97.9453 51.134C97.7653 50.666 97.3153 50.432 96.8293 50.522C96.3253 50.612 96.0193 51.206 96.2173 51.674L98.9533 58.244C99.1693 58.766 99.5473 59.09 100.087 59.09H100.195C100.735 59.09 101.095 58.766 101.311 58.244L104.065 51.674ZM105.508 47.192C105.508 47.858 106.084 48.362 106.75 48.362C107.434 48.362 107.974 47.858 107.974 47.192C107.974 46.526 107.434 46.022 106.75 46.022C106.084 46.022 105.508 46.526 105.508 47.192ZM107.686 58.154C107.686 58.658 107.272 59.09 106.732 59.09C106.228 59.09 105.832 58.658 105.832 58.154V51.44C105.832 50.936 106.228 50.504 106.732 50.504C107.272 50.504 107.686 50.936 107.686 51.44V58.154ZM110.84 58.154C110.84 58.658 111.236 59.09 111.74 59.09C112.28 59.09 112.694 58.658 112.694 58.154V52.124H113.792C114.206 52.124 114.566 51.8 114.566 51.386C114.566 50.936 114.206 50.594 113.792 50.594H112.694V48.254C112.694 47.75 112.28 47.318 111.74 47.318C111.236 47.318 110.84 47.75 110.84 48.254V50.594H110.012C109.598 50.594 109.238 50.936 109.238 51.386C109.238 51.8 109.598 52.124 110.012 52.124H110.84V58.154ZM123.1 51.71C123.298 51.242 123.01 50.666 122.524 50.54C122.038 50.414 121.57 50.666 121.372 51.134L119.23 56.354L117.106 51.134C116.908 50.666 116.44 50.414 115.954 50.54C115.468 50.666 115.18 51.242 115.378 51.71L118.24 58.604L116.872 61.97C116.692 62.438 116.962 63.014 117.448 63.14C117.934 63.266 118.402 63.014 118.6 62.546L123.1 51.71Z" fill="#16161D"/>
<path d="M32.5408 114L29.8508 107.33H28.8208L26.1408 114H27.0608L27.6508 112.52H31.0308L31.6208 114H32.5408ZM30.7808 111.78H27.8908L29.3408 108.07L30.7808 111.78ZM33.1028 111.58C33.1028 113.02 34.0728 114.12 35.5128 114.12C36.3928 114.12 36.9128 113.76 37.2828 113.28L36.7828 112.82C36.4628 113.25 36.0528 113.45 35.5528 113.45C34.5228 113.45 33.8828 112.65 33.8828 111.58C33.8828 110.51 34.5228 109.72 35.5528 109.72C36.0528 109.72 36.4628 109.91 36.7828 110.35L37.2828 109.89C36.9128 109.41 36.3928 109.05 35.5128 109.05C34.0728 109.05 33.1028 110.15 33.1028 111.58ZM39.554 114.12C39.994 114.12 40.264 113.99 40.454 113.81L40.234 113.25C40.134 113.36 39.934 113.45 39.724 113.45C39.394 113.45 39.234 113.19 39.234 112.83V109.83H40.214V109.17H39.234V107.85H38.484V109.17H37.684V109.83H38.484V112.99C38.484 113.71 38.844 114.12 39.554 114.12ZM41.6434 108.36C41.9234 108.36 42.1534 108.13 42.1534 107.85C42.1534 107.57 41.9234 107.35 41.6434 107.35C41.3734 107.35 41.1434 107.57 41.1434 107.85C41.1434 108.13 41.3734 108.36 41.6434 108.36ZM42.0234 114V109.17H41.2734V114H42.0234ZM45.6295 114L47.6395 109.17H46.8195L45.2195 113.13L43.6095 109.17H42.7995L44.8095 114H45.6295ZM48.7919 108.36C49.0719 108.36 49.3019 108.13 49.3019 107.85C49.3019 107.57 49.0719 107.35 48.7919 107.35C48.5219 107.35 48.2919 107.57 48.2919 107.85C48.2919 108.13 48.5219 108.36 48.7919 108.36ZM49.1719 114V109.17H48.4219V114H49.1719ZM51.888 114.12C52.328 114.12 52.598 113.99 52.788 113.81L52.568 113.25C52.468 113.36 52.268 113.45 52.058 113.45C51.728 113.45 51.568 113.19 51.568 112.83V109.83H52.548V109.17H51.568V107.85H50.818V109.17H50.018V109.83H50.818V112.99C50.818 113.71 51.178 114.12 51.888 114.12ZM53.3374 115.89C53.4774 115.93 53.7274 115.96 53.8874 115.96C54.5274 115.95 55.0174 115.68 55.3074 114.98L57.7274 109.17H56.9074L55.3074 113.13L53.6974 109.17H52.8874L54.9074 114.05L54.5874 114.78C54.4174 115.18 54.1974 115.29 53.8674 115.29C53.7474 115.29 53.5674 115.26 53.4574 115.21L53.3374 115.89ZM60.8479 110.67C60.8479 112.64 62.1779 114.12 64.1579 114.12C66.1279 114.12 67.4679 112.64 67.4679 110.67C67.4679 108.7 66.1279 107.22 64.1579 107.22C62.1779 107.22 60.8479 108.7 60.8479 110.67ZM66.6079 110.67C66.6079 112.22 65.6479 113.38 64.1579 113.38C62.6579 113.38 61.7079 112.22 61.7079 110.67C61.7079 109.11 62.6579 107.96 64.1579 107.96C65.6479 107.96 66.6079 109.11 66.6079 110.67ZM70.8444 114L72.8544 109.17H72.0344L70.4344 113.13L68.8244 109.17H68.0144L70.0244 114H70.8444ZM73.3567 111.58C73.3567 113.09 74.3867 114.12 75.8167 114.12C76.6067 114.12 77.2567 113.86 77.7367 113.38L77.3767 112.89C76.9967 113.28 76.4367 113.5 75.8867 113.5C74.8467 113.5 74.2067 112.74 74.1467 111.83H78.0567V111.64C78.0567 110.19 77.1967 109.05 75.7367 109.05C74.3567 109.05 73.3567 110.18 73.3567 111.58ZM75.7267 109.67C76.8267 109.67 77.3067 110.56 77.3167 111.28H74.1467C74.1867 110.54 74.6967 109.67 75.7267 109.67ZM80.0215 114V110.58C80.2415 110.19 80.8715 109.81 81.3315 109.81C81.4515 109.81 81.5415 109.82 81.6315 109.84V109.07C80.9715 109.07 80.4115 109.44 80.0215 109.95V109.17H79.2715V114H80.0215ZM84.6823 114L86.6923 109.17H85.8723L84.2723 113.13L82.6623 109.17H81.8523L83.8623 114H84.6823ZM87.8446 108.36C88.1246 108.36 88.3546 108.13 88.3546 107.85C88.3546 107.57 88.1246 107.35 87.8446 107.35C87.5746 107.35 87.3446 107.57 87.3446 107.85C87.3446 108.13 87.5746 108.36 87.8446 108.36ZM88.2246 114V109.17H87.4746V114H88.2246ZM89.4407 111.58C89.4407 113.09 90.4707 114.12 91.9007 114.12C92.6907 114.12 93.3407 113.86 93.8207 113.38L93.4607 112.89C93.0807 113.28 92.5207 113.5 91.9707 113.5C90.9307 113.5 90.2907 112.74 90.2307 111.83H94.1407V111.64C94.1407 110.19 93.2807 109.05 91.8207 109.05C90.4407 109.05 89.4407 110.18 89.4407 111.58ZM91.8107 109.67C92.9107 109.67 93.3907 110.56 93.4007 111.28H90.2307C90.2707 110.54 90.7807 109.67 91.8107 109.67ZM100.285 114L101.825 109.17H101.045L99.8655 113.02L98.5955 109.17H97.9555L96.6855 113.02L95.5055 109.17H94.7255L96.2655 114H97.0155L98.2755 110.12L99.5355 114H100.285Z" fill="#16161D"/>
<path d="M46.3065 166V157.732H45.2145V166H46.3065ZM51.1949 160.252C50.5829 160.252 49.6709 160.564 49.3349 161.248V160.396H48.2909V166H49.3349V162.964C49.3349 161.752 50.2709 161.284 51.0509 161.284C51.8309 161.284 52.4069 161.884 52.4069 162.82V166H53.4509V162.76C53.4629 161.188 52.5869 160.252 51.1949 160.252ZM56.8373 166.144C58.0013 166.144 59.0093 165.484 59.0093 164.44C59.0093 163.804 58.7093 163.108 57.5453 162.82L56.7173 162.616C56.3573 162.532 55.9973 162.328 55.9973 161.944C55.9973 161.512 56.3573 161.164 56.8973 161.164C57.3413 161.164 57.7853 161.452 57.7973 161.884H58.8053C58.8053 160.756 57.8213 160.252 56.8733 160.252C55.7453 160.252 54.9533 160.984 54.9533 161.908C54.9533 162.808 55.4933 163.264 56.4293 163.516L57.1973 163.696C57.6413 163.792 57.9653 164.008 57.9653 164.428C57.9653 164.884 57.5453 165.232 56.8373 165.232C56.1533 165.232 55.7333 164.836 55.7213 164.356H54.7493C54.7973 165.508 55.8293 166.144 56.8373 166.144ZM61.8841 160.396V158.284H60.8401V160.396H59.8321V161.296H60.8401V166H61.8841V161.296H63.0961V160.396H61.8841ZM66.8916 160.252C66.1476 160.252 65.6076 160.684 65.3196 161.668V160.396H64.2636V166H65.3196V163.948C65.3196 162.472 65.7636 161.26 66.8796 161.26C67.0956 161.26 67.3956 161.308 67.6956 161.452L67.8636 160.468C67.6956 160.36 67.2876 160.252 66.8916 160.252ZM72.9482 163.48C72.9362 164.692 72.0002 165.16 71.2202 165.16C70.4402 165.16 69.8762 164.56 69.8762 163.612V160.396H68.8322V163.636C68.8202 165.208 69.6842 166.144 71.0882 166.144C71.7122 166.144 72.6122 165.832 72.9482 165.124V166H73.9922V160.396H72.9482V163.48ZM78.4225 166.144C79.2985 166.144 80.0665 165.808 80.5585 165.256L79.8985 164.572C79.5505 164.932 79.0465 165.16 78.4585 165.16C77.3545 165.16 76.4665 164.344 76.4665 163.192C76.4665 162.04 77.3545 161.236 78.4585 161.236C79.0465 161.236 79.5505 161.464 79.8985 161.824L80.5585 161.14C80.0665 160.6 79.2985 160.252 78.4225 160.252C76.8145 160.252 75.4105 161.416 75.4105 163.192C75.4105 164.968 76.8145 166.144 78.4225 166.144ZM83.3528 160.396V158.284H82.3088V160.396H81.3008V161.296H82.3088V166H83.3528V161.296H84.5648V160.396H83.3528ZM86.2483 159.028C86.6563 159.028 86.9923 158.728 86.9923 158.332C86.9923 157.936 86.6563 157.636 86.2483 157.636C85.8523 157.636 85.5163 157.936 85.5163 158.332C85.5163 158.728 85.8523 159.028 86.2483 159.028ZM86.7763 166V160.396H85.7323V166H86.7763ZM91.1357 166.144C92.7317 166.144 94.0757 164.968 94.0757 163.192C94.0757 161.416 92.7317 160.252 91.1357 160.252C89.5397 160.252 88.2077 161.416 88.2077 163.192C88.2077 164.968 89.5397 166.144 91.1357 166.144ZM91.1357 165.16C90.1157 165.16 89.2637 164.356 89.2637 163.192C89.2637 162.04 90.1157 161.236 91.1357 161.236C92.1677 161.236 93.0317 162.04 93.0317 163.192C93.0317 164.356 92.1677 165.16 91.1357 165.16ZM98.4332 160.252C97.8212 160.252 96.9092 160.564 96.5732 161.248V160.396H95.5292V166H96.5732V162.964C96.5732 161.752 97.5092 161.284 98.2892 161.284C99.0692 161.284 99.6452 161.884 99.6452 162.82V166H100.689V162.76C100.701 161.188 99.8252 160.252 98.4332 160.252ZM106.848 161.272C106.476 160.612 105.684 160.252 104.844 160.252C103.26 160.252 102.048 161.536 102.048 163.192C102.048 164.908 103.332 166.144 104.796 166.144C105.696 166.144 106.476 165.676 106.848 165.004V166H107.892V160.396H106.848V161.272ZM104.952 165.16C103.92 165.16 103.104 164.26 103.104 163.192C103.104 162.136 103.92 161.236 104.94 161.236C105.876 161.236 106.848 162.04 106.848 163.192C106.848 164.332 105.948 165.16 104.952 165.16ZM110.765 166V157.348H109.721V166H110.765ZM117.793 164.176L115.897 157.732H114.781L117.277 166H118.321L120.805 157.732H119.689L117.793 164.176ZM122.553 159.028C122.961 159.028 123.297 158.728 123.297 158.332C123.297 157.936 122.961 157.636 122.553 157.636C122.157 157.636 121.821 157.936 121.821 158.332C121.821 158.728 122.157 159.028 122.553 159.028ZM123.081 166V160.396H122.037V166H123.081ZM129.324 161.272C128.952 160.612 128.16 160.252 127.32 160.252C125.784 160.252 124.524 161.416 124.524 163.192C124.524 164.956 125.796 166.144 127.332 166.144C128.136 166.144 128.952 165.76 129.324 165.124V166H130.368V157.348H129.324V161.272ZM127.416 165.16C126.396 165.16 125.58 164.296 125.58 163.18C125.58 162.052 126.396 161.236 127.416 161.236C128.34 161.236 129.324 161.968 129.324 163.18C129.324 164.38 128.424 165.16 127.416 165.16ZM137.489 163.18C137.489 161.404 136.301 160.252 134.705 160.252C133.109 160.252 131.825 161.404 131.825 163.18C131.825 164.956 133.109 166.144 134.705 166.144C135.785 166.144 136.793 165.616 137.273 164.644L136.373 164.284C136.049 164.848 135.425 165.16 134.741 165.16C133.781 165.16 133.061 164.644 132.905 163.648H137.465C137.477 163.492 137.489 163.336 137.489 163.18ZM132.917 162.748C133.085 161.74 133.757 161.236 134.705 161.236C135.629 161.236 136.313 161.788 136.445 162.748H132.917ZM141.456 166.144C143.052 166.144 144.396 164.968 144.396 163.192C144.396 161.416 143.052 160.252 141.456 160.252C139.86 160.252 138.528 161.416 138.528 163.192C138.528 164.968 139.86 166.144 141.456 166.144ZM141.456 165.16C140.436 165.16 139.584 164.356 139.584 163.192C139.584 162.04 140.436 161.236 141.456 161.236C142.488 161.236 143.352 162.04 143.352 163.192C143.352 164.356 142.488 165.16 141.456 165.16Z" fill="#16161D"/>
<path d="M66.3942 255.732V264H69.5982C71.9502 264 73.3302 262.224 73.3302 259.884C73.3302 257.532 71.9502 255.732 69.5982 255.732H66.3942ZM67.4862 262.992V256.74H69.5982C71.3382 256.74 72.2382 258.12 72.2382 259.884C72.2382 261.648 71.3382 262.992 69.5982 262.992H67.4862ZM75.3186 257.028C75.7266 257.028 76.0626 256.728 76.0626 256.332C76.0626 255.936 75.7266 255.636 75.3186 255.636C74.9226 255.636 74.5866 255.936 74.5866 256.332C74.5866 256.728 74.9226 257.028 75.3186 257.028ZM75.8466 264V258.396H74.8026V264H75.8466ZM80.29 258.252C79.546 258.252 79.006 258.684 78.718 259.668V258.396H77.662V264H78.718V261.948C78.718 260.472 79.162 259.26 80.278 259.26C80.494 259.26 80.794 259.308 81.094 259.452L81.262 258.468C81.094 258.36 80.686 258.252 80.29 258.252ZM87.4071 261.18C87.4071 259.404 86.2191 258.252 84.6231 258.252C83.0271 258.252 81.7431 259.404 81.7431 261.18C81.7431 262.956 83.0271 264.144 84.6231 264.144C85.7031 264.144 86.7111 263.616 87.1911 262.644L86.2911 262.284C85.9671 262.848 85.3431 263.16 84.6591 263.16C83.6991 263.16 82.9791 262.644 82.8231 261.648H87.3831C87.3951 261.492 87.4071 261.336 87.4071 261.18ZM82.8351 260.748C83.0031 259.74 83.6751 259.236 84.6231 259.236C85.5471 259.236 86.2311 259.788 86.3631 260.748H82.8351ZM91.446 264.144C92.322 264.144 93.09 263.808 93.582 263.256L92.922 262.572C92.574 262.932 92.07 263.16 91.482 263.16C90.378 263.16 89.49 262.344 89.49 261.192C89.49 260.04 90.378 259.236 91.482 259.236C92.07 259.236 92.574 259.464 92.922 259.824L93.582 259.14C93.09 258.6 92.322 258.252 91.446 258.252C89.838 258.252 88.434 259.416 88.434 261.192C88.434 262.968 89.838 264.144 91.446 264.144ZM96.3763 258.396V256.284H95.3323V258.396H94.3243V259.296H95.3323V264H96.3763V259.296H97.5883V258.396H96.3763ZM99.2718 257.028C99.6798 257.028 100.016 256.728 100.016 256.332C100.016 255.936 99.6798 255.636 99.2718 255.636C98.8758 255.636 98.5398 255.936 98.5398 256.332C98.5398 256.728 98.8758 257.028 99.2718 257.028ZM99.7998 264V258.396H98.7558V264H99.7998ZM104.159 264.144C105.755 264.144 107.099 262.968 107.099 261.192C107.099 259.416 105.755 258.252 104.159 258.252C102.563 258.252 101.231 259.416 101.231 261.192C101.231 262.968 102.563 264.144 104.159 264.144ZM104.159 263.16C103.139 263.16 102.287 262.356 102.287 261.192C102.287 260.04 103.139 259.236 104.159 259.236C105.191 259.236 106.055 260.04 106.055 261.192C106.055 262.356 105.191 263.16 104.159 263.16ZM111.457 258.252C110.845 258.252 109.933 258.564 109.597 259.248V258.396H108.553V264H109.597V260.964C109.597 259.752 110.533 259.284 111.313 259.284C112.093 259.284 112.669 259.884 112.669 260.82V264H113.713V260.76C113.725 259.188 112.849 258.252 111.457 258.252ZM117.099 264.144C118.263 264.144 119.271 263.484 119.271 262.44C119.271 261.804 118.971 261.108 117.807 260.82L116.979 260.616C116.619 260.532 116.259 260.328 116.259 259.944C116.259 259.512 116.619 259.164 117.159 259.164C117.603 259.164 118.047 259.452 118.059 259.884H119.067C119.067 258.756 118.083 258.252 117.135 258.252C116.007 258.252 115.215 258.984 115.215 259.908C115.215 260.808 115.755 261.264 116.691 261.516L117.459 261.696C117.903 261.792 118.227 262.008 118.227 262.428C118.227 262.884 117.807 263.232 117.099 263.232C116.415 263.232 115.995 262.836 115.983 262.356H115.011C115.059 263.508 116.091 264.144 117.099 264.144Z" fill="#16161D"/>
<rect opacity="0.3" x="105" y="107" width="56" height="7" fill="#16161D"/>
<rect opacity="0.3" x="26" y="298" width="56" height="7" fill="#16161D"/>
<rect opacity="0.3" x="26" y="120" width="135" height="7" fill="#16161D"/>
<rect opacity="0.3" x="26" y="272" width="135" height="7" fill="#16161D"/>
<rect opacity="0.3" x="26" y="133" width="135" height="7" fill="#16161D"/>
<rect opacity="0.3" x="26" y="285" width="135" height="7" fill="#16161D"/>
<rect opacity="0.2" x="36" y="174" width="117" height="64" rx="2" fill="#16161D"/>
<path d="M88 212.43V199.766C88 198.989 88.848 198.509 89.5145 198.909L101.387 206.032C102.074 206.444 102.021 207.457 101.295 207.796L89.4229 213.336C88.7599 213.645 88 213.161 88 212.43Z" stroke="black"/>
<path d="M219.58 333.646V332.918H216.892V330.02H216.094V332.918H213.406V333.646H216.094V336.628H216.892V333.646H219.58ZM227.154 338V336.964H222.576C225.18 334.906 227.112 333.17 227.112 331.266C227.112 329.404 225.53 328.522 223.976 328.522C222.66 328.522 221.442 329.054 220.728 329.992L221.442 330.734C221.988 330.034 222.856 329.558 223.976 329.558C224.942 329.558 225.922 330.076 225.922 331.266C225.922 332.876 224.102 334.43 220.742 337.076V338H227.154ZM228.931 333.338C228.931 335.606 229.939 338.168 232.501 338.168C235.049 338.168 236.071 335.606 236.071 333.338C236.071 331.056 235.049 328.522 232.501 328.522C229.939 328.522 228.931 331.056 228.931 333.338ZM234.881 333.338C234.881 335.2 234.279 337.132 232.501 337.132C230.723 337.132 230.121 335.2 230.121 333.338C230.121 331.476 230.723 329.558 232.501 329.558C234.279 329.558 234.881 331.476 234.881 333.338Z" fill="#017B6D"/>
<g clip-path="url(#clip0_414_546)">
<path d="M198.431 316.976C199.787 316.445 202.752 315.503 206.451 316.108C209.45 316.598 211.414 317.858 213.076 318.925C214.59 319.896 216.971 321.424 216.678 322.527C216.439 323.429 214.593 323.347 212.25 324.062C209.405 324.93 207.185 326.559 205.483 328.256" fill="#007B6D"/>
<path d="M188.03 329.623C186.543 330.806 185.333 332.302 184.487 334.004C183.546 335.902 183.374 337.443 183.229 338.748C183.097 339.936 182.888 341.805 183.524 341.985C184.044 342.135 184.726 341.035 185.98 339.901C187.502 338.524 189.139 337.753 190.607 337.305" fill="#007B6D"/>
<path d="M182.543 324.769C182.52 324.857 181.02 330.452 177.823 331.992C176.51 332.624 175.792 332.792 175.172 333.07C175.529 332.124 176.01 330.945 175.563 330.474C175.345 330.243 174.916 330.246 174.362 330.311C173.856 330.373 173.876 330.467 173.233 330.507C173.767 330.417 174.282 330.226 176.503 329.754C179.929 329.027 182.496 324.847 182.543 324.769Z" fill="black"/>
<path d="M190.345 358.631C192.821 359.608 194.399 360.732 196.329 358.505C198.977 355.451 190.856 334.098 185.936 332.682C183.217 332.124 175.455 334.617 175.058 333.767C174.996 333.634 175.088 333.293 175.173 333.067C175.757 332.804 176.677 332.537 177.914 331.937C180.676 330.597 182.094 326.022 182.327 325.206C182.348 325.132 182.36 325.088 182.362 325.081C182.357 325.089 182.329 325.134 182.28 325.211C181.832 325.907 179.578 329.191 176.671 329.813C174.685 330.238 173.613 330.44 173.079 330.532L172.997 330.546C172.562 330.58 172.125 330.558 171.697 330.48C170.532 330.25 170.692 327.452 173.23 326.057L173.235 326.054C173.43 325.947 173.633 325.852 173.84 325.769C174.269 325.596 174.803 325.47 175.137 325.2C175.557 324.996 175.943 324.852 176.204 324.591C177.075 323.722 177.881 319.799 177.881 319.799C178.136 319.113 178.4 318.456 178.718 317.88C178.718 317.88 184.879 307.16 197.376 314.669C217.35 326.67 200.121 357.717 199.092 360.394C198.063 363.071 201.913 369.158 200.146 373.122C198.379 377.086 199.008 377.058 195.937 372.033C192.866 367.008 192.232 367.559 193.022 364.488C192.066 365.118 191.317 364.961 189.966 364.252C188.615 363.544 186.938 361.103 184.666 360.788C182.395 360.473 179.964 357.875 185.628 357.717C187.554 357.664 189.069 358.128 190.346 358.631" fill="#00DED1"/>
<path d="M188.328 319.782C188.329 319.964 188.311 320.145 188.275 320.324C188.253 319.96 188.154 319.606 187.986 319.283C187.818 318.959 187.583 318.675 187.298 318.449C187.013 318.222 186.683 318.058 186.33 317.968C185.978 317.877 185.61 317.861 185.251 317.922C184.891 317.983 184.549 318.119 184.246 318.32C183.943 318.522 183.685 318.785 183.49 319.093C183.296 319.401 183.168 319.746 183.115 320.107C183.063 320.467 183.086 320.835 183.185 321.185C182.969 320.819 182.841 320.409 182.81 319.985C182.779 319.561 182.846 319.136 183.006 318.742C183.166 318.349 183.414 317.998 183.732 317.716C184.05 317.434 184.428 317.229 184.838 317.117C185.248 317.005 185.678 316.989 186.095 317.071C186.512 317.152 186.904 317.329 187.242 317.586C187.58 317.844 187.853 318.176 188.042 318.557C188.23 318.938 188.328 319.357 188.328 319.782V319.782Z" fill="white"/>
<path d="M188.275 320.324C188.165 320.872 187.891 321.374 187.49 321.764C187.088 322.153 186.578 322.412 186.026 322.505C185.475 322.599 184.908 322.522 184.401 322.287C183.893 322.051 183.469 321.667 183.185 321.185C183.086 320.834 183.061 320.466 183.113 320.105C183.166 319.744 183.293 319.398 183.488 319.09C183.683 318.782 183.94 318.518 184.244 318.316C184.547 318.114 184.89 317.978 185.25 317.917C185.609 317.856 185.978 317.872 186.331 317.963C186.684 318.054 187.014 318.218 187.299 318.445C187.585 318.672 187.819 318.957 187.987 319.28C188.155 319.604 188.253 319.96 188.275 320.324V320.324Z" fill="#007B6D"/>
<path d="M199.754 353.013C199.551 356.561 198.984 358.129 197.747 359.155C196.482 360.204 194.645 360.581 193.082 360.218C191.878 359.938 190.966 359.249 190.345 358.631C192.822 359.608 194.399 360.732 196.33 358.505C198.977 355.451 190.857 334.098 185.937 332.682C183.217 332.124 175.456 334.617 175.059 333.767C174.996 333.634 175.088 333.293 175.173 333.067C175.758 332.804 176.678 332.537 177.915 331.937C180.677 330.597 182.094 326.022 182.327 325.206C183.095 325.123 183.869 325.12 184.638 325.198C188.35 325.625 190.786 328.02 192.492 329.746C195.676 332.966 197.058 336.338 197.865 338.367C200.25 344.36 199.976 349.134 199.754 353.013Z" fill="#DEF1F6"/>
<path d="M195.734 331.634C195.436 332.977 198.04 334.864 200.272 336.478C200.885 336.926 201.528 337.331 202.197 337.689C203.388 338.322 204.442 338.68 205.385 338.999C206.678 339.438 208.715 340.127 208.962 339.501C209.164 338.989 208.011 337.992 206.863 336.383C206.221 335.484 205.64 334.549 205.137 333.271C204.525 331.718 204.759 331.391 204.369 330.845C202.821 328.683 196.167 329.669 195.734 331.634Z" fill="#007B6D"/>
</g>
<defs>
<filter id="filter0_d_414_546" x="0" y="0" width="187" height="368" filterUnits="userSpaceOnUse" color-interpolation-filters="sRGB">
<feFlood flood-opacity="0" result="BackgroundImageFix"/>
<feColorMatrix in="SourceAlpha" type="matrix" values="0 0 0 0 0 0 0 0 0 0 0 0 0 0 0 0 0 0 127 0" result="hardAlpha"/>
<feOffset dy="2"/>
<feGaussianBlur stdDeviation="2"/>
<feComposite in2="hardAlpha" operator="out"/>
<feColorMatrix type="matrix" values="0 0 0 0 0 0 0 0 0 0 0 0 0 0 0 0 0 0 0.25 0"/>
<feBlend mode="normal" in2="BackgroundImageFix" result="effect1_dropShadow_414_546"/>
<feBlend mode="normal" in="SourceGraphic" in2="effect1_dropShadow_414_546" result="shape"/>
</filter>
<clipPath id="clip0_414_546">
<rect width="45.7027" height="63.962" fill="white" transform="translate(171 312)"/>
</clipPath>
</defs>
</svg>
