<svg width="327" height="404" viewBox="0 0 327 404" fill="none" xmlns="http://www.w3.org/2000/svg">
<g opacity="0.3" filter="url(#filter0_d_477_543)">
<rect x="114" y="195" width="51" height="24" rx="5" fill="#FBBD33"/>
</g>
<path d="M114.532 187.684C115.302 188.552 116.492 189.168 118.116 189.168C120.636 189.168 121.56 187.782 121.56 186.424C121.56 184.464 119.824 183.988 118.298 183.582C117.108 183.26 116.03 182.98 116.03 182.042C116.03 181.16 116.828 180.558 117.948 180.558C118.97 180.558 119.95 180.908 120.65 181.678L121.35 180.824C120.566 179.998 119.46 179.522 118.032 179.522C116.198 179.522 114.826 180.572 114.826 182.112C114.826 183.946 116.492 184.366 117.99 184.758C119.222 185.094 120.356 185.402 120.356 186.522C120.356 187.236 119.824 188.132 118.158 188.132C116.842 188.132 115.834 187.488 115.218 186.802L114.532 187.684ZM126.207 189.168C128.265 189.168 129.553 187.572 129.553 185.612C129.553 183.652 128.265 182.07 126.207 182.07C124.149 182.07 122.861 183.652 122.861 185.612C122.861 187.572 124.149 189.168 126.207 189.168ZM126.207 188.23C124.765 188.23 123.953 186.998 123.953 185.612C123.953 184.24 124.765 183.008 126.207 183.008C127.649 183.008 128.447 184.24 128.447 185.612C128.447 186.998 127.649 188.23 126.207 188.23ZM130.873 185.612C130.873 187.628 132.231 189.168 134.247 189.168C135.479 189.168 136.207 188.664 136.725 187.992L136.025 187.348C135.577 187.95 135.003 188.23 134.303 188.23C132.861 188.23 131.965 187.11 131.965 185.612C131.965 184.114 132.861 183.008 134.303 183.008C135.003 183.008 135.577 183.274 136.025 183.89L136.725 183.246C136.207 182.574 135.479 182.07 134.247 182.07C132.231 182.07 130.873 183.61 130.873 185.612ZM138.714 181.104C139.106 181.104 139.428 180.782 139.428 180.39C139.428 179.998 139.106 179.69 138.714 179.69C138.336 179.69 138.014 179.998 138.014 180.39C138.014 180.782 138.336 181.104 138.714 181.104ZM139.246 189V182.238H138.196V189H139.246ZM146.619 189V184.352C146.619 182.714 145.429 182.07 144.001 182.07C142.895 182.07 142.027 182.434 141.299 183.19L141.789 183.918C142.391 183.274 143.049 182.98 143.861 182.98C144.841 182.98 145.569 183.498 145.569 184.408V185.626C145.023 184.996 144.253 184.702 143.329 184.702C142.181 184.702 140.963 185.416 140.963 186.928C140.963 188.398 142.181 189.168 143.329 189.168C144.239 189.168 145.009 188.846 145.569 188.23V189H146.619ZM145.569 187.572C145.163 188.132 144.449 188.412 143.707 188.412C142.727 188.412 142.041 187.796 142.041 186.942C142.041 186.074 142.727 185.458 143.707 185.458C144.449 185.458 145.163 185.738 145.569 186.298V187.572ZM149.774 189V179.662H148.724V189H149.774ZM163.514 189L159.748 179.662H158.306L154.554 189H155.842L156.668 186.928H161.4L162.226 189H163.514ZM161.05 185.892H157.004L159.034 180.698L161.05 185.892ZM171.362 189L173.518 182.238H172.426L170.774 187.628L168.996 182.238H168.1L166.322 187.628L164.67 182.238H163.578L165.734 189H166.784L168.548 183.568L170.312 189H171.362ZM180.019 189V184.352C180.019 182.714 178.829 182.07 177.401 182.07C176.295 182.07 175.427 182.434 174.699 183.19L175.189 183.918C175.791 183.274 176.449 182.98 177.261 182.98C178.241 182.98 178.969 183.498 178.969 184.408V185.626C178.423 184.996 177.653 184.702 176.729 184.702C175.581 184.702 174.363 185.416 174.363 186.928C174.363 188.398 175.581 189.168 176.729 189.168C177.639 189.168 178.409 188.846 178.969 188.23V189H180.019ZM178.969 187.572C178.563 188.132 177.849 188.412 177.107 188.412C176.127 188.412 175.441 187.796 175.441 186.942C175.441 186.074 176.127 185.458 177.107 185.458C177.849 185.458 178.563 185.738 178.969 186.298V187.572ZM183.174 189V184.212C183.482 183.666 184.364 183.134 185.008 183.134C185.176 183.134 185.302 183.148 185.428 183.176V182.098C184.504 182.098 183.72 182.616 183.174 183.33V182.238H182.124V189H183.174ZM186.353 185.612C186.353 187.726 187.795 189.168 189.797 189.168C190.903 189.168 191.813 188.804 192.485 188.132L191.981 187.446C191.449 187.992 190.665 188.3 189.895 188.3C188.439 188.3 187.543 187.236 187.459 185.962H192.933V185.696C192.933 183.666 191.729 182.07 189.685 182.07C187.753 182.07 186.353 183.652 186.353 185.612ZM189.671 182.938C191.211 182.938 191.883 184.184 191.897 185.192H187.459C187.515 184.156 188.229 182.938 189.671 182.938ZM200.248 189V184.254C200.248 182.784 199.506 182.07 198.092 182.07C197.084 182.07 196.16 182.658 195.684 183.218V182.238H194.634V189H195.684V184.058C196.076 183.512 196.86 183.008 197.686 183.008C198.596 183.008 199.198 183.386 199.198 184.576V189H200.248ZM201.953 185.612C201.953 187.726 203.395 189.168 205.397 189.168C206.503 189.168 207.413 188.804 208.085 188.132L207.581 187.446C207.049 187.992 206.265 188.3 205.495 188.3C204.039 188.3 203.143 187.236 203.059 185.962H208.533V185.696C208.533 183.666 207.329 182.07 205.285 182.07C203.353 182.07 201.953 183.652 201.953 185.612ZM205.271 182.938C206.811 182.938 207.483 184.184 207.497 185.192H203.059C203.115 184.156 203.829 182.938 205.271 182.938ZM209.646 188.104C210.332 188.832 211.27 189.168 212.376 189.168C214.126 189.168 215.036 188.258 215.036 187.124C215.036 185.626 213.678 185.29 212.502 185.024C211.62 184.814 210.85 184.604 210.85 183.946C210.85 183.344 211.424 182.924 212.348 182.924C213.216 182.924 213.958 183.288 214.364 183.778L214.854 183.05C214.308 182.504 213.496 182.07 212.348 182.07C210.738 182.07 209.828 182.966 209.828 184.016C209.828 185.416 211.13 185.724 212.278 185.99C213.188 186.214 214.014 186.452 214.014 187.194C214.014 187.852 213.454 188.314 212.418 188.314C211.494 188.314 210.64 187.866 210.192 187.348L209.646 188.104ZM216.153 188.104C216.839 188.832 217.777 189.168 218.883 189.168C220.633 189.168 221.543 188.258 221.543 187.124C221.543 185.626 220.185 185.29 219.009 185.024C218.127 184.814 217.357 184.604 217.357 183.946C217.357 183.344 217.931 182.924 218.855 182.924C219.723 182.924 220.465 183.288 220.871 183.778L221.361 183.05C220.815 182.504 220.003 182.07 218.855 182.07C217.245 182.07 216.335 182.966 216.335 184.016C216.335 185.416 217.637 185.724 218.785 185.99C219.695 186.214 220.521 186.452 220.521 187.194C220.521 187.852 219.961 188.314 218.925 188.314C218.001 188.314 217.147 187.866 216.699 187.348L216.153 188.104Z" fill="#B98000"/>
<g clip-path="url(#clip0_477_543)">
<path d="M30.4618 176.772C33.4783 176.772 35.9237 175.98 35.9237 175.004C35.9237 174.027 33.4783 173.236 30.4618 173.236C27.4453 173.236 25 174.027 25 175.004C25 175.98 27.4453 176.772 30.4618 176.772Z" fill="#B98000"/>
<path d="M57.0256 174.272C59.8058 173.101 61.7524 171.423 61.3735 170.523C60.9947 169.623 58.4337 169.842 55.6536 171.013C52.8734 172.183 50.9267 173.861 51.3056 174.761C51.6845 175.661 54.2454 175.442 57.0256 174.272Z" fill="#B98000"/>
<path d="M57.3283 177.691V191.564C57.3267 193.578 56.7969 195.556 55.7919 197.301C54.7869 199.046 53.3417 200.497 51.6007 201.508C51.5243 202.384 51.46 203.254 51.4077 204.119C51.2507 206.591 51.169 209.022 51.1625 211.412C51.19 211.919 51.2173 212.426 51.2444 212.933C51.2731 213.46 51.3015 213.988 51.3298 214.516C51.4443 216.671 51.5604 218.826 51.678 220.982L52.0921 228.67L51.8533 230.709H40.3981C40.1295 230.022 39.878 229.296 39.6535 228.533C39.0014 226.331 38.6216 224.058 38.5223 221.764C38.4753 220.733 38.4856 219.742 38.5355 218.806C38.5721 218.119 38.63 217.465 38.7021 216.841C38.8751 214.893 39.0515 212.945 39.2314 210.994C39.2738 210.541 39.3159 210.089 39.358 209.636C39.4916 208.206 39.6271 206.776 39.7646 205.346C39.7726 205.258 39.7812 205.17 39.7898 205.081C39.8837 204.104 39.9792 203.127 40.0762 202.149C37.9978 201.267 36.2248 199.794 34.9779 197.912C33.731 196.029 33.0654 193.822 33.0639 191.564V177.691C33.0639 175.724 33.8455 173.837 35.2367 172.446C36.6279 171.055 38.5148 170.273 40.4823 170.273H49.9099C51.8774 170.273 53.7643 171.055 55.1555 172.446C56.5467 173.837 57.3283 175.724 57.3283 177.691Z" fill="#FFCC5A"/>
<path d="M41.6977 180.262C41.2627 179.75 40.6642 179.403 40.0033 179.28C39.3423 179.158 38.6594 179.267 38.0696 179.59C37.4798 179.912 37.0192 180.428 36.7656 181.051C36.512 181.673 36.4809 182.364 36.6774 183.007C36.3968 182.676 36.1932 182.287 36.0816 181.868C35.97 181.449 35.9531 181.01 36.0322 180.584C36.1112 180.158 36.2842 179.754 36.5386 179.403C36.7931 179.052 37.1225 178.761 37.503 178.553C37.8836 178.345 38.3057 178.225 38.7387 178.2C39.1717 178.175 39.6047 178.248 40.0063 178.411C40.408 178.575 40.7682 178.826 41.0607 179.146C41.3533 179.466 41.5709 179.847 41.6977 180.262Z" fill="white"/>
<path d="M41.9537 181.023C41.9537 182.732 40.5791 184.12 38.8866 184.12C38.4409 184.12 38.0007 184.022 37.5969 183.833C37.1931 183.645 36.8357 183.37 36.5497 183.028C36.4606 182.734 36.4156 182.429 36.4163 182.122C36.4163 180.411 37.7909 179.025 39.4834 179.025C39.9292 179.025 40.3696 179.123 40.7734 179.312C41.1773 179.501 41.5349 179.776 41.8208 180.118C41.9092 180.411 41.954 180.716 41.9537 181.023Z" fill="#B98000"/>
<path d="M49.147 180.262C49.582 179.75 50.1805 179.403 50.8414 179.28C51.5024 179.158 52.1853 179.267 52.7751 179.59C53.3649 179.912 53.8255 180.428 54.0791 181.051C54.3327 181.673 54.3638 182.364 54.1672 183.007C54.4479 182.676 54.6515 182.287 54.7631 181.868C54.8747 181.449 54.8916 181.01 54.8125 180.584C54.7335 180.158 54.5605 179.754 54.306 179.403C54.0516 179.052 53.7222 178.761 53.3417 178.553C52.9611 178.345 52.539 178.225 52.106 178.2C51.673 178.175 51.24 178.248 50.8383 178.411C50.4367 178.575 50.0765 178.826 49.784 179.146C49.4914 179.466 49.2738 179.847 49.147 180.262Z" fill="white"/>
<path d="M48.9225 181.073C48.9225 182.818 50.2794 184.234 51.9524 184.234C52.3959 184.232 52.8334 184.131 53.2328 183.938C53.6321 183.746 53.9833 183.466 54.2606 183.12C54.3485 182.819 54.3929 182.508 54.3923 182.195C54.3923 180.449 53.036 179.034 51.363 179.034C50.9195 179.036 50.4821 179.138 50.0829 179.331C49.6837 179.524 49.3328 179.805 49.0559 180.151C48.968 180.45 48.9231 180.761 48.9225 181.073Z" fill="#B98000"/>
<path d="M54.177 195.147V198.442C52.083 201.285 49.1195 203.058 45.8347 203.058H44.558C41.9571 203.058 39.5578 201.947 37.6317 200.072V195.146C37.6317 190.426 40.6066 186.599 44.2757 186.599H47.533C51.2021 186.6 54.177 190.426 54.177 195.147Z" fill="#FBDC97"/>
<path d="M42.558 190.358C42.73 190.358 42.8695 190.218 42.8695 190.046C42.8695 189.874 42.73 189.734 42.558 189.734C42.3859 189.734 42.2464 189.874 42.2464 190.046C42.2464 190.218 42.3859 190.358 42.558 190.358Z" fill="#992600"/>
<path d="M49.2306 190.046C49.2306 190.108 49.2123 190.168 49.1781 190.219C49.1438 190.27 49.0951 190.31 49.0382 190.334C48.9812 190.357 48.9185 190.364 48.8581 190.352C48.7976 190.339 48.7421 190.31 48.6985 190.266C48.655 190.222 48.6253 190.167 48.6134 190.106C48.6014 190.046 48.6077 189.983 48.6314 189.926C48.655 189.869 48.695 189.821 48.7464 189.787C48.7977 189.752 48.858 189.734 48.9196 189.734C49.0022 189.735 49.0813 189.767 49.1396 189.826C49.1979 189.884 49.2306 189.963 49.2306 190.046Z" fill="#992600"/>
<path d="M40.6094 198.151C42.0986 198.871 43.1055 199.441 44.03 199.655C44.9893 199.876 46.0776 199.866 47.1612 199.797C47.8325 199.755 48.9265 199.674 50.0382 198.97C50.4234 198.725 50.774 198.43 51.0806 198.092" stroke="#992600" stroke-width="0.28638" stroke-linecap="round" stroke-linejoin="round"/>
<path d="M42.0975 166.844H40.2893V171.764H42.0975V166.844Z" fill="#FFCC5A"/>
<path d="M51.2141 166.844H49.4059V171.764H51.2141V166.844Z" fill="#FFCC5A"/>
<path d="M41.24 167.906C42.319 167.906 43.1937 167.032 43.1937 165.953C43.1937 164.874 42.319 163.999 41.24 163.999C40.1611 163.999 39.2864 164.874 39.2864 165.953C39.2864 167.032 40.1611 167.906 41.24 167.906Z" fill="#B98000"/>
<path d="M50.4482 167.899C51.5244 167.823 52.3348 166.888 52.2583 165.812C52.1817 164.736 51.2471 163.925 50.1708 164.002C49.0946 164.079 48.2842 165.013 48.3607 166.089C48.4373 167.166 49.3719 167.976 50.4482 167.899Z" fill="#B98000"/>
<path d="M42.7636 172.656C43.1473 173.903 43.1525 174.286 43.3364 174.324C43.7946 174.418 44.3897 172.219 44.9647 172.296C45.4367 172.358 45.4722 173.896 45.8891 173.922C46.3153 173.949 46.6051 172.359 46.9894 172.39C47.3949 172.423 47.5186 174.229 47.7117 174.22C47.9328 174.21 47.7403 171.825 48.3354 171.645C48.8664 171.486 49.8297 173.517 49.9661 173.445C50.0703 173.387 49.2541 172.342 49.5285 171.294C49.7919 170.287 50.8556 170.077 50.757 169.531C50.666 169.025 49.6505 168.628 48.7862 168.715C47.7856 168.816 47.5347 169.51 46.8577 169.362C46.2219 169.223 46.1927 168.56 45.455 168.239C45.2259 168.14 45.0317 168.125 43.7556 168.307C42.5666 168.479 41.5745 168.656 40.3569 169.052C39.6077 169.298 39.4404 169.407 39.3373 169.596C38.9576 170.29 39.6558 171.675 40.4932 171.839C41.2 171.978 41.6754 171.182 42.1926 171.431C42.3317 171.502 42.4474 171.629 42.7636 172.656Z" fill="#B98000"/>
<path d="M43.8747 214.986C43.8744 215.628 43.7211 216.26 43.4276 216.831C43.1341 217.401 42.7088 217.894 42.187 218.267C41.6652 218.641 41.0619 218.885 40.4271 218.979C39.7923 219.073 39.1442 219.014 38.5366 218.807C38.5733 218.12 38.6311 217.466 38.7033 216.842C38.8763 214.894 39.0527 212.946 39.2325 210.995C39.8071 210.909 40.3937 210.947 40.9522 211.108C41.5107 211.268 42.0279 211.547 42.4686 211.926C42.9093 212.305 43.263 212.775 43.5057 213.303C43.7484 213.831 43.8743 214.405 43.8747 214.986Z" fill="#B98000"/>
<path d="M51.1648 211.412C51.1923 211.919 51.2196 212.426 51.2467 212.932C50.5789 213.077 49.8868 213.069 49.2225 212.909C48.5582 212.748 47.9389 212.439 47.4108 212.005C46.8828 211.572 46.4598 211.024 46.1735 210.403C45.8872 209.783 45.7451 209.105 45.7577 208.422C45.7704 207.739 45.9375 207.067 46.2466 206.458C46.5556 205.848 46.9986 205.316 47.5424 204.902C48.0861 204.488 48.7165 204.203 49.3863 204.067C50.0561 203.931 50.7479 203.949 51.41 204.118C51.2534 206.591 51.1717 209.022 51.1648 211.412Z" fill="#B98000"/>
<path d="M51.6803 220.982C51.1796 221.174 50.6406 221.244 50.1074 221.188C49.5741 221.132 49.0617 220.951 48.6119 220.659C48.162 220.367 47.7876 219.973 47.5191 219.509C47.2505 219.045 47.0955 218.524 47.0667 217.988C47.0378 217.453 47.136 216.918 47.3531 216.428C47.5702 215.938 47.9002 215.506 48.316 215.167C48.7319 214.829 49.2219 214.593 49.7461 214.48C50.2702 214.367 50.8137 214.38 51.3321 214.517C51.4485 216.671 51.5646 218.826 51.6803 220.982Z" fill="#B98000"/>
<path d="M42.4652 207.555C42.4649 207.924 42.3737 208.288 42.1997 208.614C42.0257 208.94 41.7741 209.218 41.4672 209.424C41.1603 209.63 40.8075 209.757 40.4399 209.794C40.0722 209.832 39.7011 209.778 39.3591 209.638C39.4927 208.207 39.6283 206.777 39.7658 205.348C40.0927 205.282 40.4303 205.289 40.7541 205.369C41.0779 205.45 41.3798 205.601 41.6381 205.812C41.8964 206.023 42.1045 206.289 42.2476 206.59C42.3906 206.892 42.4649 207.221 42.4652 207.555Z" fill="#B98000"/>
<path d="M49.0422 227.089C49.0444 228.375 48.6688 229.634 47.962 230.709H40.4015C40.1329 230.022 39.8815 229.296 39.6569 228.533C39.0049 226.331 38.625 224.058 38.5257 221.764C39.5099 221.04 40.6754 220.604 41.8927 220.503C43.11 220.402 44.3314 220.641 45.4212 221.192C46.5111 221.744 47.4267 222.587 48.0663 223.627C48.7059 224.668 49.0445 225.865 49.0445 227.087L49.0422 227.089Z" fill="#B98000"/>
<path d="M45.4888 179.287C45.9003 179.287 46.2339 178.953 46.2339 178.542C46.2339 178.13 45.9003 177.796 45.4888 177.796C45.0772 177.796 44.7436 178.13 44.7436 178.542C44.7436 178.953 45.0772 179.287 45.4888 179.287Z" fill="#B98000"/>
<path d="M47.4619 177.203C47.8735 177.203 48.2071 176.869 48.2071 176.458C48.2071 176.046 47.8735 175.712 47.4619 175.712C47.0504 175.712 46.7168 176.046 46.7168 176.458C46.7168 176.869 47.0504 177.203 47.4619 177.203Z" fill="#B98000"/>
<path d="M43.3558 177.415C44.1223 177.415 44.7436 176.793 44.7436 176.027C44.7436 175.26 44.1223 174.639 43.3558 174.639C42.5894 174.639 41.968 175.26 41.968 176.027C41.968 176.793 42.5894 177.415 43.3558 177.415Z" fill="#B98000"/>
<path d="M43.7831 181.951C44.2013 181.951 44.5403 181.612 44.5403 181.194C44.5403 180.776 44.2013 180.437 43.7831 180.437C43.3649 180.437 43.0259 180.776 43.0259 181.194C43.0259 181.612 43.3649 181.951 43.7831 181.951Z" fill="#B98000"/>
<path d="M44.0821 185.194C44.5003 185.194 44.8393 184.855 44.8393 184.436C44.8393 184.018 44.5003 183.679 44.0821 183.679C43.6639 183.679 43.3249 184.018 43.3249 184.436C43.3249 184.855 43.6639 185.194 44.0821 185.194Z" fill="#B98000"/>
<path d="M46.6394 183.877C47.5078 183.877 48.2117 183.173 48.2117 182.305C48.2117 181.436 47.5078 180.732 46.6394 180.732C45.7711 180.732 45.0672 181.436 45.0672 182.305C45.0672 183.173 45.7711 183.877 46.6394 183.877Z" fill="#B98000"/>
</g>
<g opacity="0.3" filter="url(#filter1_d_477_543)">
<rect x="114" y="112" width="109" height="24" rx="5" fill="#82CDED"/>
</g>
<path d="M114.532 104.684C115.302 105.552 116.492 106.168 118.116 106.168C120.636 106.168 121.56 104.782 121.56 103.424C121.56 101.464 119.824 100.988 118.298 100.582C117.108 100.26 116.03 99.98 116.03 99.042C116.03 98.16 116.828 97.558 117.948 97.558C118.97 97.558 119.95 97.908 120.65 98.678L121.35 97.824C120.566 96.998 119.46 96.522 118.032 96.522C116.198 96.522 114.826 97.572 114.826 99.112C114.826 100.946 116.492 101.366 117.99 101.758C119.222 102.094 120.356 102.402 120.356 103.522C120.356 104.236 119.824 105.132 118.158 105.132C116.842 105.132 115.834 104.488 115.218 103.802L114.532 104.684ZM122.861 102.612C122.861 104.726 124.303 106.168 126.305 106.168C127.411 106.168 128.321 105.804 128.993 105.132L128.489 104.446C127.957 104.992 127.173 105.3 126.403 105.3C124.947 105.3 124.051 104.236 123.967 102.962H129.441V102.696C129.441 100.666 128.237 99.07 126.193 99.07C124.261 99.07 122.861 100.652 122.861 102.612ZM126.179 99.938C127.719 99.938 128.391 101.184 128.405 102.192H123.967C124.023 101.156 124.737 99.938 126.179 99.938ZM132.192 106V96.662H131.142V106H132.192ZM137.002 100.162V99.238H135.63V98.72C135.63 97.866 136.008 97.39 136.694 97.39C136.932 97.39 137.128 97.446 137.296 97.544L137.562 96.76C137.296 96.592 136.932 96.522 136.54 96.522C135.364 96.522 134.58 97.32 134.58 98.72V99.238H133.46V100.162H134.58V106H135.63V100.162H137.002ZM149.897 106L146.131 96.662H144.689L140.937 106H142.225L143.051 103.928H147.783L148.609 106H149.897ZM147.433 102.892H143.387L145.417 97.698L147.433 102.892ZM157.745 106L159.901 99.238H158.809L157.157 104.628L155.379 99.238H154.483L152.705 104.628L151.053 99.238H149.961L152.117 106H153.167L154.931 100.568L156.695 106H157.745ZM166.402 106V101.352C166.402 99.714 165.212 99.07 163.784 99.07C162.678 99.07 161.81 99.434 161.082 100.19L161.572 100.918C162.174 100.274 162.832 99.98 163.644 99.98C164.624 99.98 165.352 100.498 165.352 101.408V102.626C164.806 101.996 164.036 101.702 163.112 101.702C161.964 101.702 160.746 102.416 160.746 103.928C160.746 105.398 161.964 106.168 163.112 106.168C164.022 106.168 164.792 105.846 165.352 105.23V106H166.402ZM165.352 104.572C164.946 105.132 164.232 105.412 163.49 105.412C162.51 105.412 161.824 104.796 161.824 103.942C161.824 103.074 162.51 102.458 163.49 102.458C164.232 102.458 164.946 102.738 165.352 103.298V104.572ZM169.557 106V101.212C169.865 100.666 170.747 100.134 171.391 100.134C171.559 100.134 171.685 100.148 171.811 100.176V99.098C170.887 99.098 170.103 99.616 169.557 100.33V99.238H168.507V106H169.557ZM172.736 102.612C172.736 104.726 174.178 106.168 176.18 106.168C177.286 106.168 178.196 105.804 178.868 105.132L178.364 104.446C177.832 104.992 177.048 105.3 176.278 105.3C174.822 105.3 173.926 104.236 173.842 102.962H179.316V102.696C179.316 100.666 178.112 99.07 176.068 99.07C174.136 99.07 172.736 100.652 172.736 102.612ZM176.054 99.938C177.594 99.938 178.266 101.184 178.28 102.192H173.842C173.898 101.156 174.612 99.938 176.054 99.938ZM186.631 106V101.254C186.631 99.784 185.889 99.07 184.475 99.07C183.467 99.07 182.543 99.658 182.067 100.218V99.238H181.017V106H182.067V101.058C182.459 100.512 183.243 100.008 184.069 100.008C184.979 100.008 185.581 100.386 185.581 101.576V106H186.631ZM188.336 102.612C188.336 104.726 189.778 106.168 191.78 106.168C192.886 106.168 193.796 105.804 194.468 105.132L193.964 104.446C193.432 104.992 192.648 105.3 191.878 105.3C190.422 105.3 189.526 104.236 189.442 102.962H194.916V102.696C194.916 100.666 193.712 99.07 191.668 99.07C189.736 99.07 188.336 100.652 188.336 102.612ZM191.654 99.938C193.194 99.938 193.866 101.184 193.88 102.192H189.442C189.498 101.156 190.212 99.938 191.654 99.938ZM196.028 105.104C196.714 105.832 197.652 106.168 198.758 106.168C200.508 106.168 201.418 105.258 201.418 104.124C201.418 102.626 200.06 102.29 198.884 102.024C198.002 101.814 197.232 101.604 197.232 100.946C197.232 100.344 197.806 99.924 198.73 99.924C199.598 99.924 200.34 100.288 200.746 100.778L201.236 100.05C200.69 99.504 199.878 99.07 198.73 99.07C197.12 99.07 196.21 99.966 196.21 101.016C196.21 102.416 197.512 102.724 198.66 102.99C199.57 103.214 200.396 103.452 200.396 104.194C200.396 104.852 199.836 105.314 198.8 105.314C197.876 105.314 197.022 104.866 196.574 104.348L196.028 105.104ZM202.536 105.104C203.222 105.832 204.16 106.168 205.266 106.168C207.016 106.168 207.926 105.258 207.926 104.124C207.926 102.626 206.568 102.29 205.392 102.024C204.51 101.814 203.74 101.604 203.74 100.946C203.74 100.344 204.314 99.924 205.238 99.924C206.106 99.924 206.848 100.288 207.254 100.778L207.744 100.05C207.198 99.504 206.386 99.07 205.238 99.07C203.628 99.07 202.718 99.966 202.718 101.016C202.718 102.416 204.02 102.724 205.168 102.99C206.078 103.214 206.904 103.452 206.904 104.194C206.904 104.852 206.344 105.314 205.308 105.314C204.384 105.314 203.53 104.866 203.082 104.348L202.536 105.104Z" fill="#017B6D"/>
<g clip-path="url(#clip1_477_543)">
<path d="M47.9892 87.8957C49.3232 87.3738 52.2399 86.4467 55.8791 87.0414C58.8306 87.5241 60.7623 88.7636 62.3978 89.8132C63.8875 90.7693 66.2299 92.2727 65.9421 93.357C65.7061 94.245 63.8899 94.1642 61.5852 94.8677C58.786 95.7219 56.6017 97.3247 54.9275 98.994" fill="#007B6D"/>
<path d="M37.7559 100.339C36.2925 101.504 35.1024 102.975 34.2694 104.65C33.3442 106.517 33.1748 108.033 33.0319 109.317C32.9016 110.486 32.6965 112.325 33.3217 112.502C33.8337 112.649 34.5049 111.567 35.7385 110.452C37.236 109.097 38.8471 108.338 40.2912 107.897" fill="#007B6D"/>
<path d="M32.3573 95.5635C32.3343 95.6496 30.8588 101.155 27.713 102.67C26.4211 103.292 25.7147 103.457 25.1043 103.73C25.4563 102.8 25.9291 101.64 25.4895 101.177C25.2751 100.949 24.8531 100.952 24.3083 101.016C23.8099 101.077 23.8295 101.17 23.197 101.209C23.7228 101.12 24.229 100.933 26.4143 100.468C29.7848 99.7525 32.3108 95.6403 32.3573 95.5635Z" fill="black"/>
<path d="M40.0328 128.88C42.4697 129.841 44.0215 130.947 45.9209 128.755C48.5258 125.751 40.536 104.742 35.6954 103.348C33.0196 102.8 25.3833 105.253 24.9927 104.417C24.9315 104.285 25.022 103.95 25.1053 103.728C25.6805 103.469 26.5856 103.206 27.8026 102.616C30.52 101.297 31.9147 96.7964 32.1443 95.993C32.1654 95.9201 32.1766 95.8775 32.1786 95.8707C32.1742 95.878 32.1468 95.9225 32.0983 95.9979C31.6577 96.6833 29.4401 99.9142 26.5793 100.526C24.6255 100.944 23.571 101.142 23.0453 101.233L22.9645 101.247C22.5371 101.281 22.1072 101.259 21.6853 101.183C20.5398 100.955 20.697 98.2033 23.1936 96.8306L23.1985 96.8277C23.3913 96.7222 23.5902 96.6284 23.7943 96.5467C24.2162 96.3773 24.7415 96.253 25.0705 95.9877C25.4832 95.7865 25.8631 95.645 26.1201 95.3885C26.9772 94.5327 27.7698 90.6732 27.7698 90.6732C28.0209 89.9981 28.2809 89.3515 28.5932 88.7851C28.5932 88.7851 34.6557 78.2384 46.9509 85.6256C66.6034 97.4333 49.6512 127.98 48.6388 130.614C47.6265 133.248 51.415 139.236 49.6762 143.137C47.9373 147.037 48.5566 147.01 45.5352 142.065C42.5137 137.121 41.8901 137.664 42.667 134.642C41.7261 135.262 40.9893 135.107 39.6602 134.41C38.3311 133.713 36.6814 131.311 34.4461 131.001C32.2109 130.692 29.8195 128.136 35.3924 127.98C37.2869 127.928 38.7781 128.384 40.0337 128.88" fill="#00DED1"/>
<path d="M38.0491 90.6561C38.0493 90.8353 38.0316 91.014 37.9963 91.1897C37.9745 90.832 37.8777 90.4829 37.7122 90.165C37.5467 89.8472 37.3161 89.5677 37.0354 89.3448C36.7548 89.1219 36.4304 88.9606 36.0833 88.8713C35.7363 88.782 35.3743 88.7668 35.0209 88.8266C34.6676 88.8864 34.3308 89.0199 34.0324 89.2184C33.734 89.4169 33.4808 89.676 33.2891 89.9788C33.0974 90.2816 32.9716 90.6214 32.9199 90.976C32.8682 91.3306 32.8916 91.6921 32.9888 92.0371C32.7766 91.677 32.6502 91.2729 32.6196 90.856C32.589 90.4392 32.6549 90.0209 32.8123 89.6337C32.9696 89.2464 33.2141 88.9007 33.5267 88.6233C33.8394 88.346 34.2118 88.1444 34.615 88.0344C35.0183 87.9243 35.4414 87.9088 35.8516 87.9889C36.2619 88.0689 36.6481 88.2426 36.9803 88.4962C37.3125 88.7498 37.5818 89.0766 37.7672 89.4512C37.9525 89.8258 38.049 90.2381 38.0491 90.6561Z" fill="white"/>
<path d="M37.9963 91.1895C37.8881 91.7292 37.6187 92.2233 37.2237 92.6065C36.8287 92.9898 36.3267 93.2441 35.7841 93.336C35.2414 93.4278 34.6837 93.3528 34.1846 93.1208C33.6854 92.8889 33.2685 92.5109 32.9888 92.0369C32.8909 91.6917 32.8668 91.3298 32.9182 90.9746C32.9695 90.6195 33.0951 90.2792 33.2867 89.9758C33.4784 89.6724 33.7318 89.4128 34.0304 89.214C34.3291 89.0151 34.6663 88.8813 35.0201 88.8215C35.3739 88.7616 35.7363 88.7769 36.0838 88.8665C36.4313 88.956 36.756 89.1178 37.0368 89.3412C37.3175 89.5646 37.5481 89.8447 37.7134 90.1631C37.8788 90.4816 37.9751 90.8313 37.9963 91.1895Z" fill="#007B6D"/>
<path d="M49.2909 123.352C49.0912 126.842 48.5326 128.385 47.3156 129.395C46.0712 130.427 44.2638 130.798 42.7257 130.44C41.541 130.165 40.6442 129.487 40.0332 128.88C42.4702 129.841 44.022 130.947 45.9214 128.755C48.5263 125.751 40.5365 104.742 35.6959 103.348C33.0201 102.8 25.3838 105.253 24.9932 104.416C24.932 104.285 25.0225 103.95 25.1057 103.728C25.681 103.469 26.5861 103.206 27.8031 102.615C30.5205 101.297 31.9152 96.7963 32.1448 95.993C32.9001 95.9111 33.6619 95.9087 34.4177 95.9857C38.0702 96.4052 40.467 98.7618 42.1451 100.46C45.2782 103.628 46.6376 106.945 47.4321 108.942C49.7785 114.838 49.5092 119.535 49.2909 123.352Z" fill="#DEF1F6"/>
<path d="M45.3354 102.317C45.0417 103.639 47.6045 105.495 49.8 107.083C50.403 107.524 51.0359 107.922 51.6941 108.275C52.8655 108.898 53.9034 109.25 54.8305 109.563C56.1033 109.995 58.107 110.674 58.3503 110.058C58.5491 109.554 57.4143 108.573 56.285 106.99C55.6535 106.105 55.0822 105.186 54.5867 103.928C53.9851 102.401 54.2147 102.078 53.8309 101.541C52.3079 99.4138 45.7618 100.384 45.3354 102.317Z" fill="#007B6D"/>
</g>
<g opacity="0.3" filter="url(#filter2_d_477_543)">
<rect x="114" y="355" width="81" height="24" rx="5" fill="#592DB5"/>
</g>
<path d="M114.532 347.684C115.302 348.552 116.492 349.168 118.116 349.168C120.636 349.168 121.56 347.782 121.56 346.424C121.56 344.464 119.824 343.988 118.298 343.582C117.108 343.26 116.03 342.98 116.03 342.042C116.03 341.16 116.828 340.558 117.948 340.558C118.97 340.558 119.95 340.908 120.65 341.678L121.35 340.824C120.566 339.998 119.46 339.522 118.032 339.522C116.198 339.522 114.826 340.572 114.826 342.112C114.826 343.946 116.492 344.366 117.99 344.758C119.222 345.094 120.356 345.402 120.356 346.522C120.356 347.236 119.824 348.132 118.158 348.132C116.842 348.132 115.834 347.488 115.218 346.802L114.532 347.684ZM122.861 345.612C122.861 347.726 124.303 349.168 126.305 349.168C127.411 349.168 128.321 348.804 128.993 348.132L128.489 347.446C127.957 347.992 127.173 348.3 126.403 348.3C124.947 348.3 124.051 347.236 123.967 345.962H129.441V345.696C129.441 343.666 128.237 342.07 126.193 342.07C124.261 342.07 122.861 343.652 122.861 345.612ZM126.179 342.938C127.719 342.938 128.391 344.184 128.405 345.192H123.967C124.023 344.156 124.737 342.938 126.179 342.938ZM132.192 349V339.662H131.142V349H132.192ZM137.002 343.162V342.238H135.63V341.72C135.63 340.866 136.008 340.39 136.694 340.39C136.932 340.39 137.128 340.446 137.296 340.544L137.562 339.76C137.296 339.592 136.932 339.522 136.54 339.522C135.364 339.522 134.58 340.32 134.58 341.72V342.238H133.46V343.162H134.58V349H135.63V343.162H137.002ZM151.045 349V339.662H149.379L146.467 346.774L143.569 339.662H141.903V349H143.065V341.23L146.229 349H146.705L149.883 341.23V349H151.045ZM158.459 349V344.352C158.459 342.714 157.269 342.07 155.841 342.07C154.735 342.07 153.867 342.434 153.139 343.19L153.629 343.918C154.231 343.274 154.889 342.98 155.701 342.98C156.681 342.98 157.409 343.498 157.409 344.408V345.626C156.863 344.996 156.093 344.702 155.169 344.702C154.021 344.702 152.803 345.416 152.803 346.928C152.803 348.398 154.021 349.168 155.169 349.168C156.079 349.168 156.849 348.846 157.409 348.23V349H158.459ZM157.409 347.572C157.003 348.132 156.289 348.412 155.547 348.412C154.567 348.412 153.881 347.796 153.881 346.942C153.881 346.074 154.567 345.458 155.547 345.458C156.289 345.458 157.003 345.738 157.409 346.298V347.572ZM166.178 349V344.254C166.178 342.784 165.436 342.07 164.022 342.07C163.014 342.07 162.09 342.658 161.614 343.218V342.238H160.564V349H161.614V344.058C162.006 343.512 162.79 343.008 163.616 343.008C164.526 343.008 165.128 343.386 165.128 344.576V349H166.178ZM173.553 349V344.352C173.553 342.714 172.363 342.07 170.935 342.07C169.829 342.07 168.961 342.434 168.233 343.19L168.723 343.918C169.325 343.274 169.983 342.98 170.795 342.98C171.775 342.98 172.503 343.498 172.503 344.408V345.626C171.957 344.996 171.187 344.702 170.263 344.702C169.115 344.702 167.897 345.416 167.897 346.928C167.897 348.398 169.115 349.168 170.263 349.168C171.173 349.168 171.943 348.846 172.503 348.23V349H173.553ZM172.503 347.572C172.097 348.132 171.383 348.412 170.641 348.412C169.661 348.412 168.975 347.796 168.975 346.942C168.975 346.074 169.661 345.458 170.641 345.458C171.383 345.458 172.097 345.738 172.503 346.298V347.572ZM175.643 350.736C176.441 351.52 177.225 351.744 178.373 351.744C180.025 351.744 181.593 351.044 181.593 348.804V342.238H180.543V343.26C179.997 342.518 179.185 342.07 178.275 342.07C176.497 342.07 175.265 343.414 175.265 345.584C175.265 347.768 176.511 349.084 178.275 349.084C179.227 349.084 180.053 348.566 180.543 347.88V348.846C180.543 350.33 179.493 350.876 178.373 350.876C177.407 350.876 176.735 350.624 176.175 349.952L175.643 350.736ZM180.543 347.054C180.179 347.642 179.367 348.16 178.527 348.16C177.169 348.16 176.357 347.068 176.357 345.584C176.357 344.086 177.169 343.008 178.527 343.008C179.367 343.008 180.179 343.512 180.543 344.1V347.054ZM183.304 345.612C183.304 347.726 184.746 349.168 186.748 349.168C187.854 349.168 188.764 348.804 189.436 348.132L188.932 347.446C188.4 347.992 187.616 348.3 186.846 348.3C185.39 348.3 184.494 347.236 184.41 345.962H189.884V345.696C189.884 343.666 188.68 342.07 186.636 342.07C184.704 342.07 183.304 343.652 183.304 345.612ZM186.622 342.938C188.162 342.938 188.834 344.184 188.848 345.192H184.41C184.466 344.156 185.18 342.938 186.622 342.938ZM200.797 349V344.114C200.797 342.756 200.139 342.07 198.907 342.07C197.927 342.07 197.017 342.714 196.639 343.33C196.443 342.63 195.855 342.07 194.819 342.07C193.825 342.07 192.915 342.784 192.635 343.218V342.238H191.585V349H192.635V344.058C192.999 343.512 193.727 343.008 194.413 343.008C195.295 343.008 195.659 343.554 195.659 344.408V349H196.709V344.044C197.059 343.512 197.801 343.008 198.501 343.008C199.369 343.008 199.747 343.554 199.747 344.408V349H200.797ZM202.5 345.612C202.5 347.726 203.942 349.168 205.944 349.168C207.05 349.168 207.96 348.804 208.632 348.132L208.128 347.446C207.596 347.992 206.812 348.3 206.042 348.3C204.586 348.3 203.69 347.236 203.606 345.962H209.08V345.696C209.08 343.666 207.876 342.07 205.832 342.07C203.9 342.07 202.5 343.652 202.5 345.612ZM205.818 342.938C207.358 342.938 208.03 344.184 208.044 345.192H203.606C203.662 344.156 204.376 342.938 205.818 342.938ZM216.394 349V344.254C216.394 342.784 215.652 342.07 214.238 342.07C213.23 342.07 212.306 342.658 211.83 343.218V342.238H210.78V349H211.83V344.058C212.222 343.512 213.006 343.008 213.832 343.008C214.742 343.008 215.344 343.386 215.344 344.576V349H216.394ZM220.199 349.168C220.815 349.168 221.193 348.986 221.459 348.734L221.151 347.95C221.011 348.104 220.731 348.23 220.437 348.23C219.975 348.23 219.751 347.866 219.751 347.362V343.162H221.123V342.238H219.751V340.39H218.701V342.238H217.581V343.162H218.701V347.586C218.701 348.594 219.205 349.168 220.199 349.168Z" fill="#19004E"/>
<g clip-path="url(#clip2_477_543)">
<path d="M51.6473 358.798H34.0077C28.5055 358.798 21.3923 363.022 21.3923 357.52L24.045 338.044C24.045 335.402 25.0947 332.868 26.963 331C28.8314 329.131 31.3654 328.082 34.0077 328.082H51.6473C57.1495 328.082 61.0232 332.495 61.8665 338.054L64.2513 356.871C64.2513 362.371 57.1495 358.798 51.6473 358.798Z" fill="#592DB5"/>
<path d="M32.8137 384.623L28.6643 383.006C28.1747 382.815 27.6233 383.057 27.4325 383.547L25.8155 387.696C25.6247 388.186 25.867 388.737 26.3565 388.928L30.506 390.545C30.9955 390.736 31.547 390.493 31.7377 390.004L33.3547 385.854C33.5455 385.365 33.3033 384.813 32.8137 384.623Z" fill="white" stroke="#D4C9E8" stroke-width="0.439191" stroke-linecap="round" stroke-linejoin="round"/>
<path d="M56.4283 390.31L60.5777 388.693C61.0673 388.502 61.3095 387.951 61.1187 387.461L59.5017 383.312C59.311 382.822 58.7595 382.58 58.27 382.771L54.1205 384.388C53.631 384.579 53.3888 385.13 53.5795 385.62L55.1965 389.769C55.3873 390.259 55.9387 390.501 56.4283 390.31Z" fill="white" stroke="#D4C9E8" stroke-width="0.439191" stroke-linecap="round" stroke-linejoin="round"/>
<path d="M68.3656 366.102V368.644C68.3656 378.592 60.3012 386.657 50.3526 386.657H45.4503C45.022 386.662 44.5983 386.568 44.2118 386.383C43.5574 386.059 43.1393 385.533 42.8064 385.132C42.7077 385.247 42.6012 385.355 42.4876 385.456C41.6116 386.235 40.4785 386.663 39.3061 386.657H36.013C26.0653 386.657 18 378.593 18 368.644V366.102C18 356.154 26.0644 348.089 36.013 348.089H50.3526C60.3012 348.089 68.3656 356.154 68.3656 366.102Z" fill="#D4C9E8"/>
<path d="M29.2275 367.785C30.579 367.785 31.6747 366.69 31.6747 365.338C31.6747 363.987 30.579 362.891 29.2275 362.891C27.876 362.891 26.7803 363.987 26.7803 365.338C26.7803 366.69 27.876 367.785 29.2275 367.785Z" fill="#19004E"/>
<path d="M57.3674 367.846C58.7189 367.846 59.8145 366.75 59.8145 365.399C59.8145 364.047 58.7189 362.952 57.3674 362.952C56.0158 362.952 54.9202 364.047 54.9202 365.399C54.9202 366.75 56.0158 367.846 57.3674 367.846Z" fill="#19004E"/>
<path d="M57.0766 343.236C57.0776 343.81 56.9744 344.378 56.7718 344.915C56.7421 343.812 56.3301 342.753 55.6063 341.92C54.8824 341.088 53.8917 340.532 52.8035 340.349C51.7154 340.166 50.5974 340.366 49.6408 340.916C48.6842 341.467 47.9484 342.332 47.5593 343.364C47.5593 343.321 47.5593 343.277 47.5593 343.236C47.5508 342.606 47.6676 341.98 47.9029 341.395C48.1382 340.81 48.4875 340.278 48.9303 339.829C49.3731 339.38 49.9007 339.023 50.4824 338.78C51.0641 338.537 51.6883 338.412 52.3189 338.412C52.9494 338.412 53.5736 338.537 54.1553 338.78C54.737 339.023 55.2646 339.38 55.7074 339.829C56.1503 340.278 56.4995 340.81 56.7348 341.395C56.9702 341.98 57.0869 342.606 57.0784 343.236H57.0766Z" fill="white"/>
<path d="M56.7718 344.911C56.3827 345.944 55.647 346.809 54.6904 347.359C53.7338 347.909 52.6158 348.11 51.5276 347.927C50.4395 347.744 49.4487 347.188 48.7249 346.355C48.001 345.522 47.589 344.464 47.5593 343.361C47.9484 342.328 48.6842 341.463 49.6408 340.913C50.5974 340.363 51.7154 340.162 52.8035 340.345C53.8917 340.528 54.8824 341.084 55.6063 341.917C56.3301 342.75 56.7421 343.808 56.7718 344.911Z" fill="#19004E"/>
<path d="M38.5278 342.249C37.8238 341.485 36.8891 340.972 35.8662 340.788C34.8433 340.605 33.7885 340.761 32.8628 341.233C31.937 341.705 31.1912 342.467 30.7391 343.403C30.287 344.339 30.1534 345.397 30.3589 346.415C29.8618 345.875 29.4966 345.227 29.2916 344.522C29.0867 343.817 29.0476 343.074 29.1775 342.351C29.3073 341.629 29.6026 340.946 30.0402 340.356C30.4777 339.767 31.0458 339.286 31.6998 338.953C32.3539 338.619 33.0762 338.441 33.8104 338.433C34.5446 338.425 35.2706 338.587 35.9318 338.906C36.593 339.226 37.1714 339.694 37.6217 340.273C38.0721 340.853 38.3822 341.529 38.5278 342.249Z" fill="white"/>
<path d="M28.8473 333.572C30.6228 332.716 31.1366 330.102 29.9949 327.734C28.8532 325.366 26.4884 324.14 24.713 324.996C22.9375 325.852 22.4237 328.466 23.5654 330.834C24.7071 333.202 27.0719 334.428 28.8473 333.572Z" fill="#592DB5"/>
<path d="M61.7895 330.277C63.1039 328.001 62.7857 325.356 61.0787 324.371C59.3718 323.385 56.9224 324.432 55.608 326.708C54.2936 328.985 54.6118 331.629 56.3188 332.615C58.0257 333.601 60.4751 332.554 61.7895 330.277Z" fill="#592DB5"/>
<path d="M38.6209 343.189C38.6203 344.146 38.331 345.081 37.7909 345.871C37.2508 346.661 36.485 347.271 35.5933 347.619C34.7017 347.967 33.7257 348.039 32.7929 347.824C31.86 347.609 31.0136 347.118 30.3641 346.415C30.1579 345.396 30.291 344.338 30.743 343.401C31.1949 342.465 31.9409 341.703 32.867 341.231C33.793 340.758 34.8482 340.602 35.8714 340.786C36.8945 340.97 37.8294 341.484 38.5331 342.249C38.5936 342.558 38.623 342.873 38.6209 343.189Z" fill="#19004E"/>
<path d="M30.8244 336.257C31.2317 335.549 31.8897 335.02 32.6684 334.774C33.4471 334.528 34.2898 334.582 35.0301 334.927" stroke="#19004E" stroke-width="0.439191" stroke-linecap="round" stroke-linejoin="round"/>
<path d="M51.39 334.956C52.0705 334.505 52.8958 334.325 53.7027 334.452C54.5095 334.579 55.2393 335.005 55.7476 335.644" stroke="#19004E" stroke-width="0.439191" stroke-linecap="round" stroke-linejoin="round"/>
</g>
<g opacity="0.3" filter="url(#filter3_d_477_543)">
<rect x="114" y="275" width="160" height="24" rx="5" fill="#FCB7A8"/>
</g>
<path d="M121.868 269L119.348 265.192C120.622 265.08 121.77 264.156 121.77 262.476C121.77 260.754 120.552 259.662 118.844 259.662H115.092V269H116.254V265.29H118.116L120.496 269H121.868ZM120.566 262.476C120.566 263.526 119.81 264.268 118.704 264.268H116.254V260.698H118.704C119.81 260.698 120.566 261.426 120.566 262.476ZM122.752 265.612C122.752 267.726 124.194 269.168 126.196 269.168C127.302 269.168 128.212 268.804 128.884 268.132L128.38 267.446C127.848 267.992 127.064 268.3 126.294 268.3C124.838 268.3 123.942 267.236 123.858 265.962H129.332V265.696C129.332 263.666 128.128 262.07 126.084 262.07C124.152 262.07 122.752 263.652 122.752 265.612ZM126.07 262.938C127.61 262.938 128.282 264.184 128.296 265.192H123.858C123.914 264.156 124.628 262.938 126.07 262.938ZM132.082 269V259.662H131.032V269H132.082ZM139.455 269V264.352C139.455 262.714 138.265 262.07 136.837 262.07C135.731 262.07 134.863 262.434 134.135 263.19L134.625 263.918C135.227 263.274 135.885 262.98 136.697 262.98C137.677 262.98 138.405 263.498 138.405 264.408V265.626C137.859 264.996 137.089 264.702 136.165 264.702C135.017 264.702 133.799 265.416 133.799 266.928C133.799 268.398 135.017 269.168 136.165 269.168C137.075 269.168 137.845 268.846 138.405 268.23V269H139.455ZM138.405 267.572C137.999 268.132 137.285 268.412 136.543 268.412C135.563 268.412 134.877 267.796 134.877 266.942C134.877 266.074 135.563 265.458 136.543 265.458C137.285 265.458 137.999 265.738 138.405 266.298V267.572ZM143.268 269.168C143.884 269.168 144.262 268.986 144.528 268.734L144.22 267.95C144.08 268.104 143.8 268.23 143.506 268.23C143.044 268.23 142.82 267.866 142.82 267.362V263.162H144.192V262.238H142.82V260.39H141.77V262.238H140.65V263.162H141.77V267.586C141.77 268.594 142.274 269.168 143.268 269.168ZM146.193 261.104C146.585 261.104 146.907 260.782 146.907 260.39C146.907 259.998 146.585 259.69 146.193 259.69C145.815 259.69 145.493 259.998 145.493 260.39C145.493 260.782 145.815 261.104 146.193 261.104ZM146.725 269V262.238H145.675V269H146.725ZM151.774 269.168C153.832 269.168 155.12 267.572 155.12 265.612C155.12 263.652 153.832 262.07 151.774 262.07C149.716 262.07 148.428 263.652 148.428 265.612C148.428 267.572 149.716 269.168 151.774 269.168ZM151.774 268.23C150.332 268.23 149.52 266.998 149.52 265.612C149.52 264.24 150.332 263.008 151.774 263.008C153.216 263.008 154.014 264.24 154.014 265.612C154.014 266.998 153.216 268.23 151.774 268.23ZM162.445 269V264.254C162.445 262.784 161.703 262.07 160.289 262.07C159.281 262.07 158.357 262.658 157.881 263.218V262.238H156.831V269H157.881V264.058C158.273 263.512 159.057 263.008 159.883 263.008C160.793 263.008 161.395 263.386 161.395 264.576V269H162.445ZM163.954 268.104C164.64 268.832 165.578 269.168 166.684 269.168C168.434 269.168 169.344 268.258 169.344 267.124C169.344 265.626 167.986 265.29 166.81 265.024C165.928 264.814 165.158 264.604 165.158 263.946C165.158 263.344 165.732 262.924 166.656 262.924C167.524 262.924 168.266 263.288 168.672 263.778L169.162 263.05C168.616 262.504 167.804 262.07 166.656 262.07C165.046 262.07 164.136 262.966 164.136 264.016C164.136 265.416 165.438 265.724 166.586 265.99C167.496 266.214 168.322 266.452 168.322 267.194C168.322 267.852 167.762 268.314 166.726 268.314C165.802 268.314 164.948 267.866 164.5 267.348L163.954 268.104ZM176.678 269V264.226C176.678 262.756 175.936 262.07 174.522 262.07C173.5 262.07 172.576 262.658 172.1 263.218V259.662H171.05V269H172.1V264.058C172.506 263.512 173.29 263.008 174.102 263.008C175.012 263.008 175.628 263.358 175.628 264.548V269H176.678ZM179.293 261.104C179.685 261.104 180.007 260.782 180.007 260.39C180.007 259.998 179.685 259.69 179.293 259.69C178.915 259.69 178.593 259.998 178.593 260.39C178.593 260.782 178.915 261.104 179.293 261.104ZM179.825 269V262.238H178.775V269H179.825ZM182.969 267.978C183.515 268.734 184.327 269.168 185.251 269.168C187.029 269.168 188.261 267.796 188.261 265.612C188.261 263.414 187.029 262.07 185.251 262.07C184.299 262.07 183.459 262.56 182.969 263.246V262.238H181.919V271.576H182.969V267.978ZM187.155 265.612C187.155 267.11 186.343 268.23 184.985 268.23C184.159 268.23 183.333 267.726 182.969 267.138V264.086C183.333 263.498 184.159 263.008 184.985 263.008C186.343 263.008 187.155 264.114 187.155 265.612ZM193.05 267.684C193.82 268.552 195.01 269.168 196.634 269.168C199.154 269.168 200.078 267.782 200.078 266.424C200.078 264.464 198.342 263.988 196.816 263.582C195.626 263.26 194.548 262.98 194.548 262.042C194.548 261.16 195.346 260.558 196.466 260.558C197.488 260.558 198.468 260.908 199.168 261.678L199.868 260.824C199.084 259.998 197.978 259.522 196.55 259.522C194.716 259.522 193.344 260.572 193.344 262.112C193.344 263.946 195.01 264.366 196.508 264.758C197.74 265.094 198.874 265.402 198.874 266.522C198.874 267.236 198.342 268.132 196.676 268.132C195.36 268.132 194.352 267.488 193.736 266.802L193.05 267.684ZM207.721 269L204.711 265.304L207.707 262.238H206.377L202.821 265.836V259.662H201.771V269H202.821V267.068L203.941 265.962L206.377 269H207.721ZM209.48 261.104C209.872 261.104 210.194 260.782 210.194 260.39C210.194 259.998 209.872 259.69 209.48 259.69C209.102 259.69 208.78 259.998 208.78 260.39C208.78 260.782 209.102 261.104 209.48 261.104ZM210.012 269V262.238H208.962V269H210.012ZM213.157 269V259.662H212.107V269H213.157ZM216.301 269V259.662H215.251V269H216.301ZM217.808 268.104C218.494 268.832 219.432 269.168 220.538 269.168C222.288 269.168 223.198 268.258 223.198 267.124C223.198 265.626 221.84 265.29 220.664 265.024C219.782 264.814 219.012 264.604 219.012 263.946C219.012 263.344 219.586 262.924 220.51 262.924C221.378 262.924 222.12 263.288 222.526 263.778L223.016 263.05C222.47 262.504 221.658 262.07 220.51 262.07C218.9 262.07 217.99 262.966 217.99 264.016C217.99 265.416 219.292 265.724 220.44 265.99C221.35 266.214 222.176 266.452 222.176 267.194C222.176 267.852 221.616 268.314 220.58 268.314C219.656 268.314 218.802 267.866 218.354 267.348L217.808 268.104Z" fill="#992600"/>
<g clip-path="url(#clip3_477_543)">
<path d="M18.0496 270.122C14.9112 269.237 12.7466 263.952 13.0236 259.776C13.0867 258.831 13.2579 256.678 14.7986 254.564C15.0489 254.22 16.4808 252.307 19.0029 251.363C23.0719 249.842 28.4578 251.414 30.041 254.386C32.8379 259.634 22.9136 271.496 18.0496 270.122Z" fill="#FFB2B2"/>
<path d="M70.8946 267.032C73.8192 265.966 75.3614 260.706 74.927 256.863C74.8136 255.86 74.5724 253.948 73.1238 252.146C71.4804 250.101 69.3196 249.483 68.6608 249.31C64.7044 248.244 59.7035 250.016 58.4071 252.958C56.1269 258.136 66.379 268.681 70.8946 267.032Z" fill="#FFB2B2"/>
<path d="M74.1015 273.15C73.6501 273.913 73.1553 274.65 72.6194 275.356C71.7018 276.567 68.695 280.534 64.725 281.944C60.2194 283.542 58.7083 280.346 50.8444 279.604C43.8372 278.941 37.6493 280.782 35.3045 281.479C29.6705 283.153 27.9084 284.893 23.536 284.788C20.7323 284.72 18.3228 283.93 16.4435 283.038C16.4024 282.832 16.3639 282.625 16.3279 282.417C15.8907 279.891 15.8361 277.314 16.1658 274.772C16.2596 274.047 16.3839 273.331 16.5386 272.625C18.9527 261.568 28.597 252.94 40.6942 251.181C42.2089 250.96 43.7376 250.85 45.2683 250.851C45.6533 250.851 46.0365 250.857 46.4179 250.871C59.0659 251.324 69.659 259.217 73.263 269.968C73.4659 270.573 73.6457 271.186 73.8024 271.808C73.914 272.252 74.0137 272.699 74.1015 273.15Z" fill="#FFB2B2"/>
<path d="M73.2965 278.756C73.2965 279.09 73.2899 279.422 73.2767 279.752C73.2508 280.344 73.2044 280.931 73.1375 281.514C72.8113 284.301 71.9978 287.009 70.734 289.515C70.5474 289.885 70.3518 290.251 70.1474 290.611C65.5064 298.789 56.2166 304.369 45.5133 304.369C36.289 304.369 28.1162 300.226 23.0627 293.848C22.7077 293.398 22.3668 292.937 22.0402 292.465C20.4271 290.135 19.232 287.541 18.5084 284.801C18.3897 284.353 18.285 283.9 18.1942 283.442C19.9753 284.279 22.2585 285.022 24.9161 285.086C29.0603 285.185 30.7304 283.548 36.0706 281.972C38.293 281.315 44.1582 279.584 50.7995 280.207C58.2557 280.907 59.6852 283.915 63.9558 282.409C67.7188 281.082 70.5689 277.349 71.4385 276.209C71.9465 275.544 72.4155 274.85 72.843 274.13C73.1454 275.654 73.2973 277.203 73.2965 278.756Z" fill="white" stroke="#FFB2B2" stroke-width="3.04332" stroke-linecap="round" stroke-linejoin="round"/>
<path d="M38.662 271.09C38.6721 272.098 38.4823 273.097 38.1038 274.031C37.7252 274.965 37.1653 275.814 36.4564 276.53C35.7475 277.246 34.9037 277.815 33.9739 278.202C33.044 278.59 32.0464 278.79 31.0389 278.79C30.0313 278.79 29.0338 278.59 28.1039 278.202C27.174 277.815 26.3303 277.246 25.6214 276.53C24.9125 275.814 24.3526 274.965 23.974 274.031C23.5954 273.097 23.4057 272.098 23.4158 271.09C23.4158 266.881 25.1109 261.594 29.3213 261.594C32.1128 261.594 36.2715 264.968 37.5991 267.207C38.2969 268.382 38.6641 269.724 38.662 271.09Z" fill="white"/>
<path d="M64.7699 270.511C64.2776 274.838 60.8394 277.735 56.629 277.735C55.6279 277.735 54.6365 277.538 53.7116 277.155C52.7867 276.772 51.9463 276.21 51.2384 275.503C50.5305 274.795 49.9691 273.954 49.5861 273.029C49.2031 272.104 49.0061 271.113 49.0063 270.112C49.0063 265.902 54.1677 259.712 58.3782 259.712C61.1704 259.712 63.5252 262.499 64.2769 264.991C64.6466 266.212 64.9297 269.102 64.7699 270.511Z" fill="white"/>
<path d="M36.1452 273.124C36.145 274.398 35.6828 275.628 34.8443 276.586C34.0058 277.545 32.848 278.167 31.5858 278.336C30.3236 278.506 29.0427 278.212 27.981 277.508C26.9192 276.805 26.1488 275.74 25.8125 274.512C25.4763 273.284 25.5972 271.975 26.1528 270.829C26.7084 269.683 27.6609 268.777 28.8335 268.281C30.0061 267.784 31.3192 267.729 32.529 268.127C33.7387 268.525 34.763 269.348 35.4117 270.444C35.8919 271.256 36.1452 272.181 36.1452 273.124Z" fill="white" stroke="#992600" stroke-width="0.380415" stroke-linecap="round" stroke-linejoin="round"/>
<path d="M36.1452 273.124C36.1453 274.074 35.8881 275.007 35.4011 275.822C34.914 276.638 34.2151 277.307 33.3787 277.757C32.5423 278.207 31.5996 278.423 30.6505 278.381C29.7014 278.339 28.7815 278.04 27.9883 277.517C27.3814 276.494 27.1395 275.295 27.3021 274.116C27.4646 272.937 28.0221 271.848 28.8834 271.027C29.7447 270.205 30.8589 269.7 32.0442 269.594C33.2296 269.488 34.4159 269.787 35.4095 270.442C35.8924 271.253 36.1467 272.18 36.1452 273.124Z" fill="#992600"/>
<path d="M34.2127 287.922C35.1953 288.892 36.5211 289.435 37.9019 289.433H37.9057" stroke="#992600" stroke-width="0.380415" stroke-linecap="round" stroke-linejoin="round"/>
<path d="M50.2213 289.095C50.2213 292.858 47.8627 295.908 44.9609 295.908C42.0591 295.908 39.7005 292.854 39.7005 289.095C39.7005 289.056 39.7005 289.019 39.7005 288.977C40.7451 288.643 41.6591 287.991 42.3147 287.111C42.9703 286.232 43.3347 285.17 43.3571 284.074L43.9399 284.712C44.0333 284.814 44.1463 284.897 44.2722 284.955C44.3981 285.012 44.5343 285.044 44.6727 285.048C44.8112 285.053 44.9491 285.029 45.0782 284.979C45.2073 284.928 45.325 284.853 45.4243 284.756C45.8584 285.668 46.5242 286.449 47.3551 287.022C48.186 287.596 49.1528 287.941 50.1589 288.023C50.2016 288.379 50.2224 288.737 50.2213 289.095Z" fill="#992600"/>
<path d="M51.3047 288.17C52.3706 287.943 53.3507 287.42 54.1317 286.66C54.9126 285.9 55.4624 284.935 55.7175 283.875" stroke="#992600" stroke-width="0.380415" stroke-linecap="round" stroke-linejoin="round"/>
<path d="M62.18 271.651C62.18 272.341 62.0439 273.026 61.7796 273.664C61.5152 274.302 61.1277 274.882 60.6393 275.37C60.1508 275.859 59.5709 276.246 58.9327 276.511C58.2945 276.775 57.6104 276.911 56.9196 276.911C56.2288 276.911 55.5448 276.775 54.9066 276.511C54.2684 276.246 53.6885 275.859 53.2 275.37C52.7115 274.882 52.324 274.302 52.0597 273.664C51.7953 273.026 51.6593 272.341 51.6593 271.651C51.6593 271.598 51.6593 271.546 51.6593 271.499C51.6999 270.118 52.2822 268.808 53.2803 267.853C54.2783 266.898 55.6121 266.374 56.9934 266.394C58.3748 266.414 59.6928 266.976 60.6628 267.96C61.6329 268.943 62.177 270.269 62.1777 271.651H62.18Z" fill="white" stroke="#992600" stroke-width="0.380415" stroke-linecap="round" stroke-linejoin="round"/>
<path d="M61.4397 274.19C61.4397 274.242 61.4397 274.294 61.4397 274.346C60.8498 275.335 59.9515 276.103 58.8829 276.533C57.8142 276.962 56.6342 277.029 55.5239 276.723C54.4136 276.417 53.4345 275.755 52.7368 274.838C52.0391 273.922 51.6613 272.802 51.6615 271.651C51.6615 271.598 51.6615 271.546 51.6615 271.498C52.2515 270.509 53.1497 269.741 54.2184 269.312C55.2871 268.882 56.4671 268.816 57.5774 269.122C58.6876 269.428 59.6668 270.09 60.3645 271.006C61.0622 271.922 61.4399 273.042 61.4397 274.194V274.19Z" fill="#992600"/>
<path d="M48.0225 281.031L46.9414 282.542L46.691 282.893L45.2592 284.891C45.2301 284.932 45.198 284.971 45.1633 285.008C45.0683 285.111 44.9522 285.192 44.823 285.246C44.6937 285.301 44.5542 285.326 44.4141 285.322C44.274 285.317 44.1365 285.283 44.0109 285.22C43.8854 285.158 43.7747 285.069 43.6865 284.96L43.1075 284.276L42.2158 283.219L41.8309 282.762L40.6424 281.35C40.1502 280.766 40.3731 279.884 40.9704 279.59C41.0919 279.529 41.2249 279.495 41.3607 279.489L47.1681 279.236C48.0408 279.197 48.5574 280.28 48.0225 281.031Z" fill="#FCDDD6"/>
<path d="M39.5849 289.365L39.1725 290.593L38.8682 291.488C38.8566 291.522 38.8343 291.552 38.8045 291.572C38.7748 291.592 38.7393 291.603 38.7033 291.601C38.6673 291.6 38.6328 291.586 38.6049 291.564C38.577 291.541 38.5573 291.509 38.5486 291.475L38.3204 290.562L38.0602 289.476C38.5759 289.475 39.0887 289.398 39.5819 289.248C39.5974 289.285 39.5985 289.327 39.5849 289.365Z" fill="white" stroke="#992600" stroke-width="0.456498" stroke-linecap="round" stroke-linejoin="round"/>
<path d="M51.6418 288.137L51.4812 289.4L51.3625 290.337C51.3582 290.373 51.3422 290.407 51.3171 290.433C51.292 290.459 51.259 290.476 51.2232 290.482C51.1875 290.487 51.1508 290.481 51.1188 290.464C51.0869 290.447 51.0613 290.42 51.046 290.387L50.6451 289.532L50.0942 288.36C50.0774 288.325 50.0741 288.284 50.0851 288.247C50.2053 288.255 50.3263 288.258 50.4488 288.258C50.8496 288.259 51.2494 288.219 51.6418 288.137Z" fill="white" stroke="#992600" stroke-width="0.456498" stroke-linecap="round" stroke-linejoin="round"/>
<path d="M19.3468 264.144C18.1866 263.816 17.2827 261.879 17.4623 260.264C17.5363 259.656 17.7464 259.073 18.077 258.557C18.2231 258.329 18.7678 257.505 19.7044 257.111C21.185 256.487 23.2392 257.111 23.8441 258.245C24.8933 260.212 21.1713 264.659 19.3468 264.144Z" fill="#992600"/>
<path d="M68.4865 261.319C69.5806 260.919 70.1535 258.939 69.9991 257.505C69.9603 257.146 69.8796 256.476 69.3904 255.822C68.7673 254.985 67.8954 254.739 67.6481 254.672C66.163 254.269 64.2906 254.934 63.8029 256.041C62.9484 257.982 66.7906 261.934 68.4865 261.319Z" fill="#992600"/>
<path d="M49.6187 256.955C49.6183 257.334 49.4747 257.7 49.2166 257.978C48.9584 258.256 48.6048 258.427 48.2264 258.456L45.5498 258.655L45.3603 260.347L46.5685 260.26C46.7138 260.249 46.8598 260.267 46.9981 260.313C47.1365 260.358 47.2645 260.431 47.3748 260.526C47.4852 260.621 47.5757 260.737 47.6413 260.867C47.7069 260.997 47.7462 261.139 47.757 261.284C47.757 261.312 47.757 261.34 47.757 261.368C47.7568 261.647 47.6508 261.917 47.4603 262.122C47.2699 262.327 47.0089 262.452 46.7298 262.473L45.107 262.591L44.8635 264.766L45.6031 264.711C45.8001 264.697 45.9947 264.762 46.1442 264.891C46.2937 265.02 46.3858 265.204 46.4004 265.401C46.4004 265.42 46.4004 265.438 46.4004 265.457C46.4001 265.645 46.3287 265.827 46.2005 265.964C46.0722 266.102 45.8966 266.187 45.7088 266.2L44.6901 266.276L44.194 270.713C44.0456 272.038 43.0208 272.038 42.8724 270.713L42.3954 266.447L40.8912 266.559C40.7934 266.566 40.6951 266.554 40.6019 266.523C40.5087 266.493 40.4225 266.444 40.3481 266.38C40.2738 266.316 40.2128 266.238 40.1687 266.15C40.1245 266.063 40.0981 265.967 40.0908 265.869C40.0908 265.85 40.0908 265.832 40.0908 265.814C40.0911 265.625 40.1625 265.444 40.2907 265.306C40.419 265.168 40.5946 265.084 40.7824 265.07L42.2318 264.962L41.9922 262.822L39.5712 263.003C39.4258 263.013 39.2797 262.995 39.1413 262.95C39.0029 262.904 38.8748 262.832 38.7644 262.736C38.6539 262.641 38.5633 262.525 38.4977 262.395C38.4321 262.265 38.3928 262.123 38.382 261.978C38.382 261.95 38.382 261.921 38.382 261.894C38.3831 261.615 38.4893 261.347 38.6794 261.143C38.8695 260.938 39.1295 260.813 39.4076 260.792L41.7472 260.618L41.5615 258.951L38.4969 259.179C38.0983 259.209 37.7043 259.079 37.4015 258.818C37.0987 258.557 36.912 258.186 36.8824 257.788C36.8824 257.75 36.8779 257.712 36.8779 257.674C36.8784 257.294 37.0225 256.928 37.2814 256.65C37.5403 256.372 37.8949 256.201 38.274 256.173L41.2268 255.954L40.6942 251.181C42.2089 250.96 43.7376 250.85 45.2683 250.851C45.6533 250.851 46.0365 250.857 46.4179 250.871L45.8853 255.607L47.9981 255.451C48.1955 255.436 48.3939 255.46 48.5818 255.522C48.7698 255.584 48.9438 255.682 49.0937 255.811C49.2437 255.94 49.3667 256.098 49.4557 256.275C49.5448 256.451 49.5981 256.644 49.6126 256.841C49.6172 256.879 49.6187 256.917 49.6187 256.955Z" fill="#992600"/>
<path d="M73.8009 271.81L70.3346 272.104L67.3171 272.357C66.8302 272.399 66.7571 272.031 67.2228 271.883L70.1094 270.97L73.2615 269.97C73.4618 270.574 73.6416 271.188 73.8009 271.81Z" fill="#992600"/>
<path d="M74.7428 279.565C74.7159 280.194 74.667 280.818 74.596 281.437L71.4408 280.498L68.5405 279.636C68.0726 279.497 68.1388 279.128 68.6265 279.16L71.6447 279.357L74.7428 279.565Z" fill="#992600"/>
<path d="M72.3302 289.892C72.1339 290.286 71.9277 290.675 71.7117 291.058L71.1791 290.784L68.4835 289.4C68.049 289.177 68.1791 288.826 68.6554 288.947L71.5884 289.7L72.3302 289.892Z" fill="#992600"/>
<path d="M23.7984 273.968L20.7863 274.288L16.1658 274.778C16.2596 274.053 16.3839 273.337 16.5386 272.631L20.7932 273.131L23.8038 273.485C24.2861 273.542 24.2839 273.917 23.7984 273.968Z" fill="#992600"/>
<path d="M24.0731 280.879L21.3859 282.275L17.2553 284.42C17.1099 284.504 16.9386 284.529 16.7752 284.492C16.5982 283.813 16.4491 283.125 16.3279 282.426C16.3727 282.405 16.4193 282.389 16.4671 282.376L20.9697 281.195L23.8989 280.422C24.3714 280.301 24.5068 280.65 24.0731 280.879Z" fill="#992600"/>
<path d="M26.2468 290.449L23.8624 292.316L21.5799 294.103C21.203 293.624 20.8434 293.134 20.501 292.633L23.2537 291.332L25.9927 290.038C26.434 289.829 26.631 290.149 26.2468 290.449Z" fill="#992600"/>
</g>
<g opacity="0.3" filter="url(#filter4_d_477_543)">
<rect x="114" y="39" width="201" height="24" rx="5" fill="#00BD79"/>
</g>
<path d="M121.868 33L119.348 29.192C120.622 29.08 121.77 28.156 121.77 26.476C121.77 24.754 120.552 23.662 118.844 23.662H115.092V33H116.254V29.29H118.116L120.496 33H121.868ZM120.566 26.476C120.566 27.526 119.81 28.268 118.704 28.268H116.254V24.698H118.704C119.81 24.698 120.566 25.426 120.566 26.476ZM122.752 29.612C122.752 31.726 124.194 33.168 126.196 33.168C127.302 33.168 128.212 32.804 128.884 32.132L128.38 31.446C127.848 31.992 127.064 32.3 126.294 32.3C124.838 32.3 123.942 31.236 123.858 29.962H129.332V29.696C129.332 27.666 128.128 26.07 126.084 26.07C124.152 26.07 122.752 27.652 122.752 29.612ZM126.07 26.938C127.61 26.938 128.282 28.184 128.296 29.192H123.858C123.914 28.156 124.628 26.938 126.07 26.938ZM130.444 32.104C131.13 32.832 132.068 33.168 133.174 33.168C134.924 33.168 135.834 32.258 135.834 31.124C135.834 29.626 134.476 29.29 133.3 29.024C132.418 28.814 131.648 28.604 131.648 27.946C131.648 27.344 132.222 26.924 133.146 26.924C134.014 26.924 134.756 27.288 135.162 27.778L135.652 27.05C135.106 26.504 134.294 26.07 133.146 26.07C131.536 26.07 130.626 26.966 130.626 28.016C130.626 29.416 131.928 29.724 133.076 29.99C133.986 30.214 134.812 30.452 134.812 31.194C134.812 31.852 134.252 32.314 133.216 32.314C132.292 32.314 131.438 31.866 130.99 31.348L130.444 32.104ZM138.59 31.978C139.136 32.734 139.948 33.168 140.872 33.168C142.65 33.168 143.882 31.796 143.882 29.612C143.882 27.414 142.65 26.07 140.872 26.07C139.92 26.07 139.08 26.56 138.59 27.246V26.238H137.54V35.576H138.59V31.978ZM142.776 29.612C142.776 31.11 141.964 32.23 140.606 32.23C139.78 32.23 138.954 31.726 138.59 31.138V28.086C138.954 27.498 139.78 27.008 140.606 27.008C141.964 27.008 142.776 28.114 142.776 29.612ZM148.533 33.168C150.591 33.168 151.879 31.572 151.879 29.612C151.879 27.652 150.591 26.07 148.533 26.07C146.475 26.07 145.187 27.652 145.187 29.612C145.187 31.572 146.475 33.168 148.533 33.168ZM148.533 32.23C147.091 32.23 146.279 30.998 146.279 29.612C146.279 28.24 147.091 27.008 148.533 27.008C149.975 27.008 150.773 28.24 150.773 29.612C150.773 30.998 149.975 32.23 148.533 32.23ZM159.205 33V28.254C159.205 26.784 158.463 26.07 157.049 26.07C156.041 26.07 155.117 26.658 154.641 27.218V26.238H153.591V33H154.641V28.058C155.033 27.512 155.817 27.008 156.643 27.008C157.553 27.008 158.155 27.386 158.155 28.576V33H159.205ZM160.714 32.104C161.4 32.832 162.338 33.168 163.444 33.168C165.194 33.168 166.104 32.258 166.104 31.124C166.104 29.626 164.746 29.29 163.57 29.024C162.688 28.814 161.918 28.604 161.918 27.946C161.918 27.344 162.492 26.924 163.416 26.924C164.284 26.924 165.026 27.288 165.432 27.778L165.922 27.05C165.376 26.504 164.564 26.07 163.416 26.07C161.806 26.07 160.896 26.966 160.896 28.016C160.896 29.416 162.198 29.724 163.346 29.99C164.256 30.214 165.082 30.452 165.082 31.194C165.082 31.852 164.522 32.314 163.486 32.314C162.562 32.314 161.708 31.866 161.26 31.348L160.714 32.104ZM168.328 25.104C168.72 25.104 169.042 24.782 169.042 24.39C169.042 23.998 168.72 23.69 168.328 23.69C167.95 23.69 167.628 23.998 167.628 24.39C167.628 24.782 167.95 25.104 168.328 25.104ZM168.86 33V26.238H167.81V33H168.86ZM172.004 33V31.992C172.508 32.678 173.334 33.168 174.286 33.168C176.05 33.168 177.296 31.824 177.296 29.626C177.296 27.47 176.05 26.07 174.286 26.07C173.362 26.07 172.55 26.518 172.004 27.26V23.662H170.954V33H172.004ZM172.004 28.1C172.368 27.512 173.194 27.008 174.02 27.008C175.392 27.008 176.204 28.128 176.204 29.626C176.204 31.124 175.392 32.23 174.02 32.23C173.194 32.23 172.368 31.754 172.004 31.166V28.1ZM180.057 33V23.662H179.007V33H180.057ZM181.76 29.612C181.76 31.726 183.202 33.168 185.204 33.168C186.31 33.168 187.22 32.804 187.892 32.132L187.388 31.446C186.856 31.992 186.072 32.3 185.302 32.3C183.846 32.3 182.95 31.236 182.866 29.962H188.34V29.696C188.34 27.666 187.136 26.07 185.092 26.07C183.16 26.07 181.76 27.652 181.76 29.612ZM185.078 26.938C186.618 26.938 187.29 28.184 187.304 29.192H182.866C182.922 28.156 183.636 26.938 185.078 26.938ZM196.884 33C199.782 33 201.672 30.998 201.672 28.338C201.672 25.692 199.782 23.662 196.884 23.662H193.692V33H196.884ZM194.854 24.698H196.884C199.194 24.698 200.468 26.322 200.468 28.338C200.468 30.34 199.152 31.964 196.884 31.964H194.854V24.698ZM203.06 29.612C203.06 31.726 204.502 33.168 206.504 33.168C207.61 33.168 208.52 32.804 209.192 32.132L208.688 31.446C208.156 31.992 207.372 32.3 206.602 32.3C205.146 32.3 204.25 31.236 204.166 29.962H209.64V29.696C209.64 27.666 208.436 26.07 206.392 26.07C204.46 26.07 203.06 27.652 203.06 29.612ZM206.378 26.938C207.918 26.938 208.59 28.184 208.604 29.192H204.166C204.222 28.156 204.936 26.938 206.378 26.938ZM210.949 29.612C210.949 31.628 212.307 33.168 214.323 33.168C215.555 33.168 216.283 32.664 216.801 31.992L216.101 31.348C215.653 31.95 215.079 32.23 214.379 32.23C212.937 32.23 212.041 31.11 212.041 29.612C212.041 28.114 212.937 27.008 214.379 27.008C215.079 27.008 215.653 27.274 216.101 27.89L216.801 27.246C216.283 26.574 215.555 26.07 214.323 26.07C212.307 26.07 210.949 27.61 210.949 29.612ZM218.791 25.104C219.183 25.104 219.505 24.782 219.505 24.39C219.505 23.998 219.183 23.69 218.791 23.69C218.413 23.69 218.091 23.998 218.091 24.39C218.091 24.782 218.413 25.104 218.791 25.104ZM219.323 33V26.238H218.273V33H219.323ZM220.829 32.104C221.515 32.832 222.453 33.168 223.559 33.168C225.309 33.168 226.219 32.258 226.219 31.124C226.219 29.626 224.861 29.29 223.685 29.024C222.803 28.814 222.033 28.604 222.033 27.946C222.033 27.344 222.607 26.924 223.531 26.924C224.399 26.924 225.141 27.288 225.547 27.778L226.037 27.05C225.491 26.504 224.679 26.07 223.531 26.07C221.921 26.07 221.011 26.966 221.011 28.016C221.011 29.416 222.313 29.724 223.461 29.99C224.371 30.214 225.197 30.452 225.197 31.194C225.197 31.852 224.637 32.314 223.601 32.314C222.677 32.314 221.823 31.866 221.375 31.348L220.829 32.104ZM228.443 25.104C228.835 25.104 229.157 24.782 229.157 24.39C229.157 23.998 228.835 23.69 228.443 23.69C228.065 23.69 227.743 23.998 227.743 24.39C227.743 24.782 228.065 25.104 228.443 25.104ZM228.975 33V26.238H227.925V33H228.975ZM234.024 33.168C236.082 33.168 237.37 31.572 237.37 29.612C237.37 27.652 236.082 26.07 234.024 26.07C231.966 26.07 230.678 27.652 230.678 29.612C230.678 31.572 231.966 33.168 234.024 33.168ZM234.024 32.23C232.582 32.23 231.77 30.998 231.77 29.612C231.77 28.24 232.582 27.008 234.024 27.008C235.466 27.008 236.264 28.24 236.264 29.612C236.264 30.998 235.466 32.23 234.024 32.23ZM244.695 33V28.254C244.695 26.784 243.953 26.07 242.539 26.07C241.531 26.07 240.607 26.658 240.131 27.218V26.238H239.081V33H240.131V28.058C240.523 27.512 241.307 27.008 242.133 27.008C243.043 27.008 243.645 27.386 243.645 28.576V33H244.695ZM259.586 33V23.662H257.92L255.008 30.774L252.11 23.662H250.444V33H251.606V25.23L254.77 33H255.246L258.424 25.23V33H259.586ZM267 33V28.352C267 26.714 265.81 26.07 264.382 26.07C263.276 26.07 262.408 26.434 261.68 27.19L262.17 27.918C262.772 27.274 263.43 26.98 264.242 26.98C265.222 26.98 265.95 27.498 265.95 28.408V29.626C265.404 28.996 264.634 28.702 263.71 28.702C262.562 28.702 261.344 29.416 261.344 30.928C261.344 32.398 262.562 33.168 263.71 33.168C264.62 33.168 265.39 32.846 265.95 32.23V33H267ZM265.95 31.572C265.544 32.132 264.83 32.412 264.088 32.412C263.108 32.412 262.422 31.796 262.422 30.942C262.422 30.074 263.108 29.458 264.088 29.458C264.83 29.458 265.544 29.738 265.95 30.298V31.572ZM275.055 33L272.045 29.304L275.041 26.238H273.711L270.155 29.836V23.662H269.105V33H270.155V31.068L271.275 29.962L273.711 33H275.055ZM276.814 25.104C277.206 25.104 277.528 24.782 277.528 24.39C277.528 23.998 277.206 23.69 276.814 23.69C276.436 23.69 276.114 23.998 276.114 24.39C276.114 24.782 276.436 25.104 276.814 25.104ZM277.346 33V26.238H276.296V33H277.346ZM285.055 33V28.254C285.055 26.784 284.313 26.07 282.899 26.07C281.891 26.07 280.967 26.658 280.491 27.218V26.238H279.441V33H280.491V28.058C280.883 27.512 281.667 27.008 282.493 27.008C283.403 27.008 284.005 27.386 284.005 28.576V33H285.055ZM287.138 34.736C287.936 35.52 288.72 35.744 289.868 35.744C291.52 35.744 293.088 35.044 293.088 32.804V26.238H292.038V27.26C291.492 26.518 290.68 26.07 289.77 26.07C287.992 26.07 286.76 27.414 286.76 29.584C286.76 31.768 288.006 33.084 289.77 33.084C290.722 33.084 291.548 32.566 292.038 31.88V32.846C292.038 34.33 290.988 34.876 289.868 34.876C288.902 34.876 288.23 34.624 287.67 33.952L287.138 34.736ZM292.038 31.054C291.674 31.642 290.862 32.16 290.022 32.16C288.664 32.16 287.852 31.068 287.852 29.584C287.852 28.086 288.664 27.008 290.022 27.008C290.862 27.008 291.674 27.512 292.038 28.1V31.054Z" fill="#006249"/>
<g clip-path="url(#clip4_477_543)">
<path d="M74.1739 32.592C74.3884 31.5241 76.1417 31.7393 77.388 29.9971C78.3063 28.7173 78.1601 27.4927 78.4264 27.5045C78.7977 27.5228 79.2903 29.9151 78.6337 32.2791C78.3365 33.351 77.8793 34.998 76.7655 35.1857C75.5225 35.3969 73.9521 33.6947 74.1739 32.592Z" fill="#00BD79"/>
<path d="M61.7554 43.2041C63.19 45.8935 63.2503 47.9027 63.0306 49.2539C62.6698 51.475 64.9827 52.8262 65.5652 54.7941C66.0243 56.3454 63.6629 56.9292 63.4458 57.2467C63.1257 57.719 60.0008 56.9961 57.8407 54.7541C56.332 53.1877 56.4016 52.0299 54.0572 47.8331C53.415 46.6833 52.8502 45.7682 52.4829 45.1903L61.7554 43.2041Z" fill="#00BD79"/>
<path d="M67.678 45.4591C69.0286 48.1891 70.6298 49.4086 71.8557 50.0166C73.8721 51.0156 73.6268 53.6827 74.8856 55.3016C75.88 56.5781 77.7304 54.9959 78.1135 55.0051C78.6842 55.0195 79.9154 52.0586 79.35 48.9973C78.9564 46.8576 77.9725 46.2423 75.9233 41.8933C75.3624 40.7015 74.9466 39.7097 74.6901 39.0728L67.678 45.4591Z" fill="#00BD79"/>
<path d="M37.951 50.6644C37.3902 53.6575 37.9366 55.5939 38.5519 56.8172C39.5633 58.8277 41.1593 59.7034 41.1947 61.7526C41.2222 63.3708 40.256 64.3272 40.5564 64.5653C41.0038 64.9202 43.7706 63.2921 45.1546 60.5056C46.1241 58.5581 45.7089 57.4751 46.6843 52.7654C46.952 51.4752 47.2156 50.4328 47.3921 49.771L37.951 50.6644Z" fill="#00BD79"/>
<path d="M30.0403 45.5464C28.6057 48.2358 28.5453 50.2443 28.7651 51.5956C29.1259 53.8173 30.3859 55.1292 29.8028 57.097C29.3436 58.6483 28.1347 59.2708 28.3499 59.5896C28.67 60.0619 31.7949 59.3397 33.955 57.097C35.4636 55.5306 35.3941 54.3728 37.7385 50.1767C38.3807 49.0269 38.9454 48.1118 39.3128 47.5333L30.0403 45.5464Z" fill="#00BD79"/>
<path d="M29.3712 30.0718C32.0435 26.4208 33.766 24.0679 36.8962 22.0456C43.6709 17.6685 52.9991 17.454 59.9857 20.4058C65.655 22.8033 65.3782 25.4244 74.1955 29.6966C79.493 32.2627 81.2798 32.1335 81.8465 33.7957C83.4778 38.5703 71.8682 48.7644 59.4393 52.9238C49.7509 56.1662 50.1995 52.1819 32.3872 55.1121C30.0225 55.501 26.2003 56.1983 23.9812 54.0461C21.7084 51.8428 22.3263 47.8245 22.8235 44.5919C23.019 43.3181 24.0252 37.3739 29.3712 30.0718Z" fill="#006249"/>
<mask id="mask0_477_543" style="mask-type:alpha" maskUnits="userSpaceOnUse" x="22" y="18" width="61" height="38">
<path d="M29.3712 30.0718C32.0435 26.4208 33.766 24.0679 36.8962 22.0456C43.6709 17.6685 52.9991 17.454 59.9857 20.4058C65.655 22.8033 65.3782 25.4244 74.1955 29.6966C79.493 32.2627 81.2798 32.1335 81.8465 33.7957C83.4778 38.5703 71.8682 48.7644 59.4393 52.9238C49.7509 56.1662 50.1995 52.1819 32.3872 55.1121C30.0225 55.501 26.2003 56.1983 23.9812 54.0461C21.7084 51.8428 22.3263 47.8245 22.8235 44.5919C23.019 43.3181 24.0252 37.3739 29.3712 30.0718Z" fill="#006249"/>
</mask>
<g mask="url(#mask0_477_543)">
<path d="M26.7362 28.063L31.6145 23.4412C32.1208 22.9617 32.7443 22.6238 33.4225 22.4616C34.1007 22.2993 34.8096 22.3184 35.4781 22.517L41.9195 24.4304C42.5883 24.6291 43.193 25.0005 43.6728 25.5071C44.1525 26.0138 44.4903 26.6379 44.6522 27.3166L46.216 33.8518C46.3775 34.5295 46.358 35.2377 46.1594 35.9055C45.9608 36.5733 45.5901 37.1771 45.0845 37.6563L40.2068 42.2788C39.7006 42.7583 39.077 43.0962 38.3988 43.2584C37.7207 43.4207 37.0117 43.4016 36.3433 43.203L29.9018 41.2896C29.2331 41.0908 28.6284 40.7194 28.1487 40.2127C27.669 39.7061 27.3312 39.0821 27.1692 38.4034L25.6054 31.8675C25.4439 31.1899 25.4633 30.4817 25.6618 29.814C25.8603 29.1463 26.2308 28.5424 26.7362 28.063Z" fill="#BEE8DA" stroke="#006249" stroke-width="0.327975" stroke-linecap="round" stroke-linejoin="round"/>
<path d="M47.2012 22.8745L52.0795 18.2527C52.5859 17.7734 53.2095 17.4358 53.8877 17.2738C54.5658 17.1118 55.2747 17.1311 55.943 17.3298L62.3845 19.2432C63.0532 19.442 63.6579 19.8134 64.1376 20.3201C64.6173 20.8267 64.9551 21.4507 65.1172 22.1294L66.6809 28.6646C66.8431 29.3428 66.8239 30.0517 66.6253 30.7201C66.4267 31.3885 66.0556 31.9928 65.5494 32.4724L60.6718 37.0949C60.1655 37.5744 59.542 37.9123 58.8638 38.0745C58.1856 38.2368 57.4767 38.2176 56.8082 38.0191L50.3662 36.1057C49.6975 35.9068 49.093 35.5353 48.6134 35.0287C48.1338 34.522 47.7961 33.8981 47.6341 33.2195L46.0703 26.683C45.9082 26.0048 45.9273 25.2958 46.1258 24.6273C46.3243 23.9588 46.6952 23.3543 47.2012 22.8745Z" fill="#BEE8DA" stroke="#006249" stroke-width="0.327975" stroke-linecap="round" stroke-linejoin="round"/>
<path d="M61.781 38.0573L66.6593 33.4349C67.1655 32.9553 67.7891 32.6174 68.4673 32.4552C69.1454 32.293 69.8544 32.3121 70.5228 32.5106L76.9643 34.424C77.633 34.6229 78.2377 34.9943 78.7174 35.5009C79.1971 36.0076 79.5349 36.6316 79.697 37.3102L81.2607 43.8461C81.4229 44.5243 81.4037 45.2332 81.2051 45.9016C81.0065 46.57 80.6354 47.1743 80.1292 47.6539L75.2516 52.2757C74.7454 52.7553 74.1219 53.0933 73.4437 53.2556C72.7655 53.418 72.0566 53.399 71.388 53.2006L64.9466 51.2872C64.2779 51.0882 63.6733 50.7168 63.1936 50.2102C62.714 49.7035 62.3761 49.0796 62.2139 48.401L60.6501 41.8651C60.488 41.187 60.5072 40.4782 60.7057 39.8098C60.9042 39.1414 61.275 38.537 61.781 38.0573Z" fill="#BEE8DA" stroke="#006249" stroke-width="0.327975" stroke-linecap="round" stroke-linejoin="round"/>
<path d="M41.8723 43.4524L46.7493 38.8299C47.2555 38.3503 47.879 38.0125 48.5572 37.8502C49.2354 37.688 49.9443 37.7071 50.6128 37.9057L57.0549 39.8191C57.7236 40.0179 58.3281 40.3894 58.8077 40.896C59.2873 41.4027 59.625 42.0267 59.7869 42.7052L61.3507 49.2411C61.5128 49.9192 61.4937 50.6281 61.2952 51.2965C61.0967 51.9648 60.7258 52.5692 60.2198 53.0489L55.3422 57.6707C54.8361 58.1503 54.2127 58.4882 53.5346 58.6504C52.8565 58.8126 52.1477 58.7935 51.4793 58.595L45.0372 56.6789C44.3684 56.4803 43.7637 56.1089 43.2841 55.6023C42.8045 55.0956 42.4669 54.4715 42.3052 53.7928L40.7408 47.2602C40.5786 46.582 40.5978 45.8731 40.7964 45.2047C40.995 44.5363 41.3661 43.9319 41.8723 43.4524Z" fill="#BEE8DA" stroke="#006249" stroke-width="0.327975" stroke-linecap="round" stroke-linejoin="round"/>
</g>
<path d="M39.1658 42.6419C39.257 47.4225 32.8608 51.3005 25.0826 51.3005C17.3043 51.3005 11 47.4232 11 42.6419C11 41.2152 11.5615 39.8686 12.5566 38.682C12.4786 38.4862 12.4385 38.2774 12.4385 38.0667C12.4385 37.9053 12.4457 36.8335 12.4595 36.6754C12.8367 32.3357 18.3407 28.1533 25.0727 28.1533C31.8048 28.1533 37.3213 32.3475 37.688 36.6951C37.7011 36.8486 37.7076 37.9145 37.7076 38.0726C37.7076 38.2569 37.6775 38.4399 37.6184 38.6144C38.5827 39.6646 39.1343 40.9909 39.1658 42.6419Z" fill="#00BD79"/>
<path d="M21.1233 34.2123C21.1249 34.8508 20.8749 35.4642 20.4274 35.9196C19.9799 36.375 19.3709 36.6357 18.7325 36.6453C18.0941 36.6548 17.4777 36.4124 17.0167 35.9706C16.5558 35.5287 16.2876 34.9231 16.2702 34.2848C16.2527 33.6466 16.4875 33.0272 16.9236 32.5608C17.3597 32.0945 17.962 31.8187 18.6 31.7934C19.238 31.7681 19.8602 31.9952 20.3319 32.4255C20.8036 32.8558 21.0868 33.4546 21.12 34.0922C21.122 34.1322 21.1233 34.1723 21.1233 34.2123Z" fill="white"/>
<path d="M21.1233 34.2128C21.1233 34.7417 20.9502 35.2562 20.6304 35.6775C20.3106 36.0988 19.8617 36.4039 19.3522 36.5461C18.8428 36.6883 18.3008 36.6599 17.809 36.4652C17.3172 36.2704 16.9027 35.9201 16.6287 35.4676C16.6287 35.4283 16.6287 35.3883 16.6287 35.3482C16.629 34.8195 16.8023 34.3054 17.1221 33.8843C17.4419 33.4633 17.8906 33.1583 18.3999 33.0161C18.9091 32.8738 19.4509 32.9021 19.9426 33.0965C20.4343 33.2909 20.849 33.6407 21.1233 34.0928C21.122 34.1328 21.1233 34.1728 21.1233 34.2128Z" fill="#006249"/>
<path d="M34.0986 34.3926C34.0882 35.028 33.8284 35.634 33.3753 36.0797C32.9222 36.5254 32.3121 36.7751 31.6765 36.7751C31.041 36.7751 30.4309 36.5254 29.9778 36.0797C29.5247 35.634 29.2649 35.028 29.2544 34.3926C29.2544 34.3184 29.2544 34.245 29.2643 34.1728C29.3221 33.553 29.6164 32.9793 30.0859 32.5707C30.5555 32.162 31.1644 31.9498 31.7862 31.9781C32.408 32.0064 32.9951 32.2729 33.4257 32.7225C33.8562 33.172 34.0972 33.7701 34.0986 34.3926Z" fill="white"/>
<path d="M33.8185 35.3241C33.8185 35.3982 33.8152 35.4717 33.8087 35.5439C33.5522 36.0179 33.145 36.3929 32.6515 36.6096C32.1579 36.8262 31.6062 36.8722 31.0837 36.7401C30.5611 36.608 30.0975 36.3054 29.7662 35.8803C29.4349 35.4551 29.2548 34.9317 29.2544 34.3927C29.2544 34.3185 29.2544 34.2451 29.2643 34.1729C29.5207 33.6989 29.9279 33.3238 30.4215 33.1072C30.915 32.8905 31.4667 32.8446 31.9893 32.9767C32.5118 33.1088 32.9754 33.4114 33.3067 33.8365C33.638 34.2617 33.8181 34.7851 33.8185 35.3241Z" fill="#006249"/>
<path d="M23.1843 39.8185C23.1843 39.8726 23.1682 39.9254 23.1382 39.9704C23.1081 40.0154 23.0654 40.0505 23.0154 40.0712C22.9654 40.0919 22.9104 40.0973 22.8574 40.0867C22.8043 40.0762 22.7556 40.0501 22.7173 40.0119C22.6791 39.9736 22.653 39.9249 22.6425 39.8718C22.6319 39.8188 22.6373 39.7638 22.658 39.7138C22.6787 39.6638 22.7138 39.6211 22.7588 39.591C22.8038 39.561 22.8566 39.5449 22.9107 39.5449C22.9833 39.5449 23.0529 39.5737 23.1042 39.625C23.1555 39.6763 23.1843 39.7459 23.1843 39.8185Z" fill="black"/>
<path d="M27.5562 40.1867C27.7072 40.1867 27.8297 40.0642 27.8297 39.9132C27.8297 39.7621 27.7072 39.6396 27.5562 39.6396C27.4051 39.6396 27.2826 39.7621 27.2826 39.9132C27.2826 40.0642 27.4051 40.1867 27.5562 40.1867Z" fill="black"/>
<path d="M21.0813 39.2512C21.7786 38.6578 22.5917 38.2159 23.469 37.9537C24.056 37.7792 25.3791 37.406 26.9455 37.9019C27.9612 38.2303 28.8616 38.8426 29.5404 39.6664" stroke="#006249" stroke-width="0.327975" stroke-linecap="round" stroke-linejoin="round"/>
<path d="M18.8511 42.7944C19.3148 43.1598 20.3053 43.8505 21.8796 44.3221" stroke="#006249" stroke-width="0.327975" stroke-linecap="round" stroke-linejoin="round"/>
<path d="M28.9855 44.2569C29.972 44.0081 30.9227 43.6344 31.8146 43.145" stroke="#006249" stroke-width="0.327975" stroke-linecap="round" stroke-linejoin="round"/>
<path d="M29.5299 43.918C29.1003 44.6395 28.3295 45.7336 27.2098 46.4106C26.6287 46.7609 25.3168 47.5139 23.7176 46.6677C22.5113 46.0295 21.6841 44.7655 21.2289 43.9212C21.5896 44.0619 21.9577 44.183 22.3315 44.284C25.1403 45.0416 27.5135 44.4709 28.5631 44.204C28.9033 44.1174 29.2256 44.022 29.5299 43.918Z" fill="#006249"/>
<path d="M28.018 44.0923C27.9373 44.1645 27.8493 44.2283 27.7556 44.2825C27.3476 44.5206 26.9383 44.5049 26.7867 44.5068C26.4391 44.5127 25.978 44.6433 25.2925 45.1989C25.0229 44.9713 24.7209 44.7851 24.3965 44.6466C24.1925 44.5604 23.9743 44.5131 23.753 44.5068C23.6021 44.5068 23.1921 44.5206 22.7841 44.2825C22.6905 44.2281 22.6026 44.1644 22.5218 44.0923H28.018Z" fill="#00BD79"/>
</g>
<defs>
<filter id="filter0_d_477_543" x="110" y="193" width="59" height="32" filterUnits="userSpaceOnUse" color-interpolation-filters="sRGB">
<feFlood flood-opacity="0" result="BackgroundImageFix"/>
<feColorMatrix in="SourceAlpha" type="matrix" values="0 0 0 0 0 0 0 0 0 0 0 0 0 0 0 0 0 0 127 0" result="hardAlpha"/>
<feOffset dy="2"/>
<feGaussianBlur stdDeviation="2"/>
<feComposite in2="hardAlpha" operator="out"/>
<feColorMatrix type="matrix" values="0 0 0 0 0 0 0 0 0 0 0 0 0 0 0 0 0 0 0.25 0"/>
<feBlend mode="normal" in2="BackgroundImageFix" result="effect1_dropShadow_477_543"/>
<feBlend mode="normal" in="SourceGraphic" in2="effect1_dropShadow_477_543" result="shape"/>
</filter>
<filter id="filter1_d_477_543" x="110" y="110" width="117" height="32" filterUnits="userSpaceOnUse" color-interpolation-filters="sRGB">
<feFlood flood-opacity="0" result="BackgroundImageFix"/>
<feColorMatrix in="SourceAlpha" type="matrix" values="0 0 0 0 0 0 0 0 0 0 0 0 0 0 0 0 0 0 127 0" result="hardAlpha"/>
<feOffset dy="2"/>
<feGaussianBlur stdDeviation="2"/>
<feComposite in2="hardAlpha" operator="out"/>
<feColorMatrix type="matrix" values="0 0 0 0 0 0 0 0 0 0 0 0 0 0 0 0 0 0 0.25 0"/>
<feBlend mode="normal" in2="BackgroundImageFix" result="effect1_dropShadow_477_543"/>
<feBlend mode="normal" in="SourceGraphic" in2="effect1_dropShadow_477_543" result="shape"/>
</filter>
<filter id="filter2_d_477_543" x="110" y="353" width="89" height="32" filterUnits="userSpaceOnUse" color-interpolation-filters="sRGB">
<feFlood flood-opacity="0" result="BackgroundImageFix"/>
<feColorMatrix in="SourceAlpha" type="matrix" values="0 0 0 0 0 0 0 0 0 0 0 0 0 0 0 0 0 0 127 0" result="hardAlpha"/>
<feOffset dy="2"/>
<feGaussianBlur stdDeviation="2"/>
<feComposite in2="hardAlpha" operator="out"/>
<feColorMatrix type="matrix" values="0 0 0 0 0 0 0 0 0 0 0 0 0 0 0 0 0 0 0.25 0"/>
<feBlend mode="normal" in2="BackgroundImageFix" result="effect1_dropShadow_477_543"/>
<feBlend mode="normal" in="SourceGraphic" in2="effect1_dropShadow_477_543" result="shape"/>
</filter>
<filter id="filter3_d_477_543" x="110" y="273" width="168" height="32" filterUnits="userSpaceOnUse" color-interpolation-filters="sRGB">
<feFlood flood-opacity="0" result="BackgroundImageFix"/>
<feColorMatrix in="SourceAlpha" type="matrix" values="0 0 0 0 0 0 0 0 0 0 0 0 0 0 0 0 0 0 127 0" result="hardAlpha"/>
<feOffset dy="2"/>
<feGaussianBlur stdDeviation="2"/>
<feComposite in2="hardAlpha" operator="out"/>
<feColorMatrix type="matrix" values="0 0 0 0 0 0 0 0 0 0 0 0 0 0 0 0 0 0 0.25 0"/>
<feBlend mode="normal" in2="BackgroundImageFix" result="effect1_dropShadow_477_543"/>
<feBlend mode="normal" in="SourceGraphic" in2="effect1_dropShadow_477_543" result="shape"/>
</filter>
<filter id="filter4_d_477_543" x="110" y="37" width="209" height="32" filterUnits="userSpaceOnUse" color-interpolation-filters="sRGB">
<feFlood flood-opacity="0" result="BackgroundImageFix"/>
<feColorMatrix in="SourceAlpha" type="matrix" values="0 0 0 0 0 0 0 0 0 0 0 0 0 0 0 0 0 0 127 0" result="hardAlpha"/>
<feOffset dy="2"/>
<feGaussianBlur stdDeviation="2"/>
<feComposite in2="hardAlpha" operator="out"/>
<feColorMatrix type="matrix" values="0 0 0 0 0 0 0 0 0 0 0 0 0 0 0 0 0 0 0.25 0"/>
<feBlend mode="normal" in2="BackgroundImageFix" result="effect1_dropShadow_477_543"/>
<feBlend mode="normal" in="SourceGraphic" in2="effect1_dropShadow_477_543" result="shape"/>
</filter>
<clipPath id="clip0_477_543">
<rect width="36.4207" height="66.71" fill="white" transform="translate(25 164)"/>
</clipPath>
<clipPath id="clip1_477_543">
<rect width="44.9661" height="62.9312" fill="white" transform="translate(21 83)"/>
</clipPath>
<clipPath id="clip2_477_543">
<rect width="50.3656" height="66.83" fill="white" transform="translate(18 324)"/>
</clipPath>
<clipPath id="clip3_477_543">
<rect width="62" height="56.891" fill="white" transform="translate(13 249)"/>
</clipPath>
<clipPath id="clip4_477_543">
<rect width="71" height="47.6141" fill="white" transform="translate(11 17)"/>
</clipPath>
</defs>
</svg>
