<svg width="206" height="63" viewBox="0 0 206 63" fill="none" xmlns="http://www.w3.org/2000/svg">
<g opacity="0.3" filter="url(#filter0_d_418_809)">
<rect x="93" y="29" width="109" height="24" rx="5" fill="#82CDED"/>
</g>
<path d="M93.532 21.684C94.302 22.552 95.492 23.168 97.116 23.168C99.636 23.168 100.56 21.782 100.56 20.424C100.56 18.464 98.824 17.988 97.298 17.582C96.108 17.26 95.03 16.98 95.03 16.042C95.03 15.16 95.828 14.558 96.948 14.558C97.97 14.558 98.95 14.908 99.65 15.678L100.35 14.824C99.566 13.998 98.46 13.522 97.032 13.522C95.198 13.522 93.826 14.572 93.826 16.112C93.826 17.946 95.492 18.366 96.99 18.758C98.222 19.094 99.356 19.402 99.356 20.522C99.356 21.236 98.824 22.132 97.158 22.132C95.842 22.132 94.834 21.488 94.218 20.802L93.532 21.684ZM101.861 19.612C101.861 21.726 103.303 23.168 105.305 23.168C106.411 23.168 107.321 22.804 107.993 22.132L107.489 21.446C106.957 21.992 106.173 22.3 105.403 22.3C103.947 22.3 103.051 21.236 102.967 19.962H108.441V19.696C108.441 17.666 107.237 16.07 105.193 16.07C103.261 16.07 101.861 17.652 101.861 19.612ZM105.179 16.938C106.719 16.938 107.391 18.184 107.405 19.192H102.967C103.023 18.156 103.737 16.938 105.179 16.938ZM111.192 23V13.662H110.142V23H111.192ZM116.002 17.162V16.238H114.63V15.72C114.63 14.866 115.008 14.39 115.694 14.39C115.932 14.39 116.128 14.446 116.296 14.544L116.562 13.76C116.296 13.592 115.932 13.522 115.54 13.522C114.364 13.522 113.58 14.32 113.58 15.72V16.238H112.46V17.162H113.58V23H114.63V17.162H116.002ZM128.897 23L125.131 13.662H123.689L119.937 23H121.225L122.051 20.928H126.783L127.609 23H128.897ZM126.433 19.892H122.387L124.417 14.698L126.433 19.892ZM136.745 23L138.901 16.238H137.809L136.157 21.628L134.379 16.238H133.483L131.705 21.628L130.053 16.238H128.961L131.117 23H132.167L133.931 17.568L135.695 23H136.745ZM145.402 23V18.352C145.402 16.714 144.212 16.07 142.784 16.07C141.678 16.07 140.81 16.434 140.082 17.19L140.572 17.918C141.174 17.274 141.832 16.98 142.644 16.98C143.624 16.98 144.352 17.498 144.352 18.408V19.626C143.806 18.996 143.036 18.702 142.112 18.702C140.964 18.702 139.746 19.416 139.746 20.928C139.746 22.398 140.964 23.168 142.112 23.168C143.022 23.168 143.792 22.846 144.352 22.23V23H145.402ZM144.352 21.572C143.946 22.132 143.232 22.412 142.49 22.412C141.51 22.412 140.824 21.796 140.824 20.942C140.824 20.074 141.51 19.458 142.49 19.458C143.232 19.458 143.946 19.738 144.352 20.298V21.572ZM148.557 23V18.212C148.865 17.666 149.747 17.134 150.391 17.134C150.559 17.134 150.685 17.148 150.811 17.176V16.098C149.887 16.098 149.103 16.616 148.557 17.33V16.238H147.507V23H148.557ZM151.736 19.612C151.736 21.726 153.178 23.168 155.18 23.168C156.286 23.168 157.196 22.804 157.868 22.132L157.364 21.446C156.832 21.992 156.048 22.3 155.278 22.3C153.822 22.3 152.926 21.236 152.842 19.962H158.316V19.696C158.316 17.666 157.112 16.07 155.068 16.07C153.136 16.07 151.736 17.652 151.736 19.612ZM155.054 16.938C156.594 16.938 157.266 18.184 157.28 19.192H152.842C152.898 18.156 153.612 16.938 155.054 16.938ZM165.631 23V18.254C165.631 16.784 164.889 16.07 163.475 16.07C162.467 16.07 161.543 16.658 161.067 17.218V16.238H160.017V23H161.067V18.058C161.459 17.512 162.243 17.008 163.069 17.008C163.979 17.008 164.581 17.386 164.581 18.576V23H165.631ZM167.336 19.612C167.336 21.726 168.778 23.168 170.78 23.168C171.886 23.168 172.796 22.804 173.468 22.132L172.964 21.446C172.432 21.992 171.648 22.3 170.878 22.3C169.422 22.3 168.526 21.236 168.442 19.962H173.916V19.696C173.916 17.666 172.712 16.07 170.668 16.07C168.736 16.07 167.336 17.652 167.336 19.612ZM170.654 16.938C172.194 16.938 172.866 18.184 172.88 19.192H168.442C168.498 18.156 169.212 16.938 170.654 16.938ZM175.028 22.104C175.714 22.832 176.652 23.168 177.758 23.168C179.508 23.168 180.418 22.258 180.418 21.124C180.418 19.626 179.06 19.29 177.884 19.024C177.002 18.814 176.232 18.604 176.232 17.946C176.232 17.344 176.806 16.924 177.73 16.924C178.598 16.924 179.34 17.288 179.746 17.778L180.236 17.05C179.69 16.504 178.878 16.07 177.73 16.07C176.12 16.07 175.21 16.966 175.21 18.016C175.21 19.416 176.512 19.724 177.66 19.99C178.57 20.214 179.396 20.452 179.396 21.194C179.396 21.852 178.836 22.314 177.8 22.314C176.876 22.314 176.022 21.866 175.574 21.348L175.028 22.104ZM181.536 22.104C182.222 22.832 183.16 23.168 184.266 23.168C186.016 23.168 186.926 22.258 186.926 21.124C186.926 19.626 185.568 19.29 184.392 19.024C183.51 18.814 182.74 18.604 182.74 17.946C182.74 17.344 183.314 16.924 184.238 16.924C185.106 16.924 185.848 17.288 186.254 17.778L186.744 17.05C186.198 16.504 185.386 16.07 184.238 16.07C182.628 16.07 181.718 16.966 181.718 18.016C181.718 19.416 183.02 19.724 184.168 19.99C185.078 20.214 185.904 20.452 185.904 21.194C185.904 21.852 185.344 22.314 184.308 22.314C183.384 22.314 182.53 21.866 182.082 21.348L181.536 22.104Z" fill="#017B6D"/>
<g clip-path="url(#clip0_418_809)">
<path d="M26.9892 4.89569C28.3232 4.37384 31.2399 3.44666 34.8791 4.04145C37.8306 4.52413 39.7623 5.76364 41.3978 6.81321C42.8875 7.76928 45.2299 9.27266 44.9421 10.357C44.7061 11.245 42.8899 11.1642 40.5852 11.8677C37.786 12.7219 35.6017 14.3247 33.9275 15.994" fill="#007B6D"/>
<path d="M16.7559 17.3389C15.2925 18.5036 14.1024 19.9751 13.2694 21.6497C12.3442 23.5173 12.1748 25.0334 12.0319 26.317C11.9016 27.486 11.6965 29.3247 12.3217 29.5024C12.8337 29.6493 13.5049 28.5669 14.7385 27.4518C16.236 26.0972 17.8471 25.3384 19.2912 24.8973" fill="#007B6D"/>
<path d="M11.3573 12.5635C11.3343 12.6496 9.8588 18.155 6.71302 19.6701C5.42113 20.2923 4.71473 20.4573 4.10427 20.7305C4.45625 19.8003 4.92914 18.6401 4.48954 18.1765C4.27512 17.9494 3.85314 17.9518 3.30828 18.0164C2.80993 18.0767 2.82951 18.1697 2.19703 18.2088C2.72279 18.1202 3.22898 17.9327 5.41428 17.4682C8.78475 16.7525 11.3108 12.6403 11.3573 12.5635Z" fill="black"/>
<path d="M19.0328 45.8798C21.4697 46.8407 23.0215 47.9466 24.9209 45.7554C27.5258 42.7511 19.536 21.7416 14.6954 20.3484C12.0196 19.8001 4.38331 22.2527 3.99266 21.4165C3.93147 21.2853 4.02203 20.95 4.10525 20.7277C4.68046 20.4688 5.58562 20.2059 6.80261 19.6155C9.52004 18.2972 10.9147 13.7964 11.1443 12.993C11.1654 12.9201 11.1766 12.8775 11.1786 12.8707C11.1742 12.878 11.1468 12.9225 11.0983 12.9979C10.6577 13.6833 8.44012 16.9142 5.57925 17.5257C3.6255 17.9437 2.57104 18.1425 2.04527 18.2331L1.9645 18.2473C1.53711 18.2809 1.10715 18.2592 0.685334 18.1826C-0.460186 17.9555 -0.303044 15.2033 2.1936 13.8306L2.1985 13.8277C2.39129 13.7222 2.59024 13.6284 2.79427 13.5467C3.21625 13.3773 3.74152 13.253 4.07049 12.9877C4.48318 12.7865 4.86306 12.645 5.12007 12.3885C5.97725 11.5327 6.76981 7.67322 6.76981 7.67322C7.02094 6.99815 7.28089 6.35146 7.59322 5.78507C7.59322 5.78507 13.6557 -4.76155 25.9509 2.62559C45.6034 14.4333 28.6512 44.9805 27.6388 47.6142C26.6265 50.2479 30.415 56.2364 28.6762 60.1366C26.9373 64.0368 27.5566 64.0098 24.5352 59.0655C21.5137 54.1211 20.8901 54.6636 21.667 51.6421C20.7261 52.2619 19.9893 52.1072 18.6602 51.4101C17.3311 50.713 15.6814 48.3113 13.4461 48.0014C11.2109 47.6915 8.81951 45.1357 14.3924 44.9805C16.2869 44.9281 17.7781 45.3843 19.0337 45.8798" fill="#00DED1"/>
<path d="M17.0491 7.65611C17.0493 7.83529 17.0316 8.01404 16.9963 8.18971C16.9745 7.832 16.8777 7.48286 16.7122 7.16501C16.5467 6.84716 16.3161 6.56771 16.0354 6.34482C15.7548 6.12193 15.4304 5.9606 15.0833 5.87132C14.7363 5.78203 14.3743 5.76679 14.0209 5.82659C13.6676 5.88639 13.3308 6.01988 13.0324 6.21839C12.734 6.4169 12.4808 6.67598 12.2891 6.97879C12.0974 7.28161 11.9716 7.62137 11.9199 7.97599C11.8682 8.33061 11.8916 8.69215 11.9888 9.0371C11.7766 8.67702 11.6502 8.27285 11.6196 7.85601C11.589 7.43917 11.6549 7.02088 11.8123 6.63365C11.9696 6.24643 12.2141 5.9007 12.5267 5.62333C12.8394 5.34596 13.2118 5.14442 13.615 5.03438C14.0183 4.92434 14.4414 4.90876 14.8516 4.98885C15.2619 5.06894 15.6481 5.24255 15.9803 5.49618C16.3125 5.74981 16.5818 6.07662 16.7672 6.45123C16.9525 6.82584 17.049 7.23815 17.0491 7.65611V7.65611Z" fill="white"/>
<path d="M16.9963 8.18954C16.8881 8.72918 16.6187 9.22328 16.2237 9.60654C15.8287 9.98979 15.3267 10.2441 14.7841 10.336C14.2414 10.4278 13.6837 10.3528 13.1846 10.1208C12.6854 9.88889 12.2685 9.51093 11.9888 9.03693C11.8909 8.69172 11.8668 8.32976 11.9182 7.97462C11.9695 7.61949 12.0951 7.27915 12.2867 6.97579C12.4784 6.67243 12.7318 6.41285 13.0304 6.21395C13.3291 6.01506 13.6663 5.88132 14.0201 5.82145C14.3739 5.76158 14.7363 5.77692 15.0838 5.86647C15.4313 5.95602 15.756 6.11778 16.0368 6.34119C16.3175 6.56461 16.5481 6.84467 16.7134 7.16314C16.8788 7.48161 16.9751 7.83134 16.9963 8.18954V8.18954Z" fill="#007B6D"/>
<path d="M28.2909 40.3523C28.0912 43.8423 27.5326 45.3853 26.3156 46.3947C25.0712 47.4267 23.2638 47.7977 21.7257 47.4404C20.541 47.1653 19.6442 46.4872 19.0332 45.8797C21.4702 46.8407 23.022 47.9466 24.9214 45.7554C27.5263 42.7511 19.5365 21.7415 14.6959 20.3483C12.0201 19.8 4.3838 22.2526 3.99315 21.4165C3.93196 21.2853 4.02252 20.95 4.10574 20.7277C4.68095 20.4687 5.58611 20.2059 6.8031 19.6155C9.52053 18.2972 10.9152 13.7963 11.1448 12.993C11.9001 12.9111 12.6619 12.9087 13.4177 12.9857C17.0702 13.4052 19.467 15.7618 21.1451 17.4596C24.2782 20.6283 25.6376 23.9454 26.4321 25.9418C28.7785 31.8383 28.5092 36.5354 28.2909 40.3523Z" fill="#DEF1F6"/>
<path d="M24.3354 19.3173C24.0417 20.6391 26.6045 22.4949 28.8 24.0835C29.403 24.524 30.0359 24.9221 30.6941 25.275C31.8655 25.8977 32.9034 26.2497 33.8305 26.5635C35.1033 26.9952 37.107 27.6737 37.3503 27.0579C37.5491 26.5537 36.4143 25.5731 35.285 23.9899C34.6535 23.1054 34.0822 22.1855 33.5867 20.9279C32.9851 19.4005 33.2147 19.0779 32.8309 18.5409C31.3079 16.4138 24.7618 17.3836 24.3354 19.3173Z" fill="#007B6D"/>
</g>
<defs>
<filter id="filter0_d_418_809" x="89" y="27" width="117" height="32" filterUnits="userSpaceOnUse" color-interpolation-filters="sRGB">
<feFlood flood-opacity="0" result="BackgroundImageFix"/>
<feColorMatrix in="SourceAlpha" type="matrix" values="0 0 0 0 0 0 0 0 0 0 0 0 0 0 0 0 0 0 127 0" result="hardAlpha"/>
<feOffset dy="2"/>
<feGaussianBlur stdDeviation="2"/>
<feComposite in2="hardAlpha" operator="out"/>
<feColorMatrix type="matrix" values="0 0 0 0 0 0 0 0 0 0 0 0 0 0 0 0 0 0 0.25 0"/>
<feBlend mode="normal" in2="BackgroundImageFix" result="effect1_dropShadow_418_809"/>
<feBlend mode="normal" in="SourceGraphic" in2="effect1_dropShadow_418_809" result="shape"/>
</filter>
<clipPath id="clip0_418_809">
<rect width="44.9661" height="62.9312" fill="white"/>
</clipPath>
</defs>
</svg>
