<svg width="198" height="67" viewBox="0 0 198 67" fill="none" xmlns="http://www.w3.org/2000/svg">
<g opacity="0.3" filter="url(#filter0_d_418_810)">
<rect x="89" y="31" width="51" height="24" rx="5" fill="#FBBD33"/>
</g>
<path d="M89.532 23.684C90.302 24.552 91.492 25.168 93.116 25.168C95.636 25.168 96.56 23.782 96.56 22.424C96.56 20.464 94.824 19.988 93.298 19.582C92.108 19.26 91.03 18.98 91.03 18.042C91.03 17.16 91.828 16.558 92.948 16.558C93.97 16.558 94.95 16.908 95.65 17.678L96.35 16.824C95.566 15.998 94.46 15.522 93.032 15.522C91.198 15.522 89.826 16.572 89.826 18.112C89.826 19.946 91.492 20.366 92.99 20.758C94.222 21.094 95.356 21.402 95.356 22.522C95.356 23.236 94.824 24.132 93.158 24.132C91.842 24.132 90.834 23.488 90.218 22.802L89.532 23.684ZM101.207 25.168C103.265 25.168 104.553 23.572 104.553 21.612C104.553 19.652 103.265 18.07 101.207 18.07C99.1491 18.07 97.8611 19.652 97.8611 21.612C97.8611 23.572 99.1491 25.168 101.207 25.168ZM101.207 24.23C99.7651 24.23 98.9531 22.998 98.9531 21.612C98.9531 20.24 99.7651 19.008 101.207 19.008C102.649 19.008 103.447 20.24 103.447 21.612C103.447 22.998 102.649 24.23 101.207 24.23ZM105.873 21.612C105.873 23.628 107.231 25.168 109.247 25.168C110.479 25.168 111.207 24.664 111.725 23.992L111.025 23.348C110.577 23.95 110.003 24.23 109.303 24.23C107.861 24.23 106.965 23.11 106.965 21.612C106.965 20.114 107.861 19.008 109.303 19.008C110.003 19.008 110.577 19.274 111.025 19.89L111.725 19.246C111.207 18.574 110.479 18.07 109.247 18.07C107.231 18.07 105.873 19.61 105.873 21.612ZM113.714 17.104C114.106 17.104 114.428 16.782 114.428 16.39C114.428 15.998 114.106 15.69 113.714 15.69C113.336 15.69 113.014 15.998 113.014 16.39C113.014 16.782 113.336 17.104 113.714 17.104ZM114.246 25V18.238H113.196V25H114.246ZM121.619 25V20.352C121.619 18.714 120.429 18.07 119.001 18.07C117.895 18.07 117.027 18.434 116.299 19.19L116.789 19.918C117.391 19.274 118.049 18.98 118.861 18.98C119.841 18.98 120.569 19.498 120.569 20.408V21.626C120.023 20.996 119.253 20.702 118.329 20.702C117.181 20.702 115.963 21.416 115.963 22.928C115.963 24.398 117.181 25.168 118.329 25.168C119.239 25.168 120.009 24.846 120.569 24.23V25H121.619ZM120.569 23.572C120.163 24.132 119.449 24.412 118.707 24.412C117.727 24.412 117.041 23.796 117.041 22.942C117.041 22.074 117.727 21.458 118.707 21.458C119.449 21.458 120.163 21.738 120.569 22.298V23.572ZM124.774 25V15.662H123.724V25H124.774ZM138.514 25L134.748 15.662H133.306L129.554 25H130.842L131.668 22.928H136.4L137.226 25H138.514ZM136.05 21.892H132.004L134.034 16.698L136.05 21.892ZM146.362 25L148.518 18.238H147.426L145.774 23.628L143.996 18.238H143.1L141.322 23.628L139.67 18.238H138.578L140.734 25H141.784L143.548 19.568L145.312 25H146.362ZM155.019 25V20.352C155.019 18.714 153.829 18.07 152.401 18.07C151.295 18.07 150.427 18.434 149.699 19.19L150.189 19.918C150.791 19.274 151.449 18.98 152.261 18.98C153.241 18.98 153.969 19.498 153.969 20.408V21.626C153.423 20.996 152.653 20.702 151.729 20.702C150.581 20.702 149.363 21.416 149.363 22.928C149.363 24.398 150.581 25.168 151.729 25.168C152.639 25.168 153.409 24.846 153.969 24.23V25H155.019ZM153.969 23.572C153.563 24.132 152.849 24.412 152.107 24.412C151.127 24.412 150.441 23.796 150.441 22.942C150.441 22.074 151.127 21.458 152.107 21.458C152.849 21.458 153.563 21.738 153.969 22.298V23.572ZM158.174 25V20.212C158.482 19.666 159.364 19.134 160.008 19.134C160.176 19.134 160.302 19.148 160.428 19.176V18.098C159.504 18.098 158.72 18.616 158.174 19.33V18.238H157.124V25H158.174ZM161.353 21.612C161.353 23.726 162.795 25.168 164.797 25.168C165.903 25.168 166.813 24.804 167.485 24.132L166.981 23.446C166.449 23.992 165.665 24.3 164.895 24.3C163.439 24.3 162.543 23.236 162.459 21.962H167.933V21.696C167.933 19.666 166.729 18.07 164.685 18.07C162.753 18.07 161.353 19.652 161.353 21.612ZM164.671 18.938C166.211 18.938 166.883 20.184 166.897 21.192H162.459C162.515 20.156 163.229 18.938 164.671 18.938ZM175.248 25V20.254C175.248 18.784 174.506 18.07 173.092 18.07C172.084 18.07 171.16 18.658 170.684 19.218V18.238H169.634V25H170.684V20.058C171.076 19.512 171.86 19.008 172.686 19.008C173.596 19.008 174.198 19.386 174.198 20.576V25H175.248ZM176.953 21.612C176.953 23.726 178.395 25.168 180.397 25.168C181.503 25.168 182.413 24.804 183.085 24.132L182.581 23.446C182.049 23.992 181.265 24.3 180.495 24.3C179.039 24.3 178.143 23.236 178.059 21.962H183.533V21.696C183.533 19.666 182.329 18.07 180.285 18.07C178.353 18.07 176.953 19.652 176.953 21.612ZM180.271 18.938C181.811 18.938 182.483 20.184 182.497 21.192H178.059C178.115 20.156 178.829 18.938 180.271 18.938ZM184.646 24.104C185.332 24.832 186.27 25.168 187.376 25.168C189.126 25.168 190.036 24.258 190.036 23.124C190.036 21.626 188.678 21.29 187.502 21.024C186.62 20.814 185.85 20.604 185.85 19.946C185.85 19.344 186.424 18.924 187.348 18.924C188.216 18.924 188.958 19.288 189.364 19.778L189.854 19.05C189.308 18.504 188.496 18.07 187.348 18.07C185.738 18.07 184.828 18.966 184.828 20.016C184.828 21.416 186.13 21.724 187.278 21.99C188.188 22.214 189.014 22.452 189.014 23.194C189.014 23.852 188.454 24.314 187.418 24.314C186.494 24.314 185.64 23.866 185.192 23.348L184.646 24.104ZM191.153 24.104C191.839 24.832 192.777 25.168 193.883 25.168C195.633 25.168 196.543 24.258 196.543 23.124C196.543 21.626 195.185 21.29 194.009 21.024C193.127 20.814 192.357 20.604 192.357 19.946C192.357 19.344 192.931 18.924 193.855 18.924C194.723 18.924 195.465 19.288 195.871 19.778L196.361 19.05C195.815 18.504 195.003 18.07 193.855 18.07C192.245 18.07 191.335 18.966 191.335 20.016C191.335 21.416 192.637 21.724 193.785 21.99C194.695 22.214 195.521 22.452 195.521 23.194C195.521 23.852 194.961 24.314 193.925 24.314C193.001 24.314 192.147 23.866 191.699 23.348L191.153 24.104Z" fill="#B98000"/>
<g clip-path="url(#clip0_418_810)">
<path d="M5.46184 12.7721C8.47833 12.7721 10.9237 11.9805 10.9237 11.004C10.9237 10.0274 8.47833 9.23584 5.46184 9.23584C2.44535 9.23584 0 10.0274 0 11.004C0 11.9805 2.44535 12.7721 5.46184 12.7721Z" fill="#B98000"/>
<path d="M32.0256 10.2718C34.8058 9.10145 36.7524 7.42306 36.3735 6.52306C35.9947 5.62306 33.4337 5.84226 30.6536 7.01265C27.8734 8.18304 25.9267 9.86143 26.3056 10.7614C26.6845 11.6614 29.2454 11.4422 32.0256 10.2718Z" fill="#B98000"/>
<path d="M32.3283 13.6913V27.5642C32.3267 29.5779 31.7969 31.5559 30.7919 33.3008C29.7869 35.0458 28.3417 36.4966 26.6007 37.5084C26.5243 38.3836 26.46 39.2536 26.4077 40.1185C26.2507 42.5909 26.169 45.0221 26.1625 47.412C26.19 47.9191 26.2173 48.426 26.2444 48.9327C26.2731 49.46 26.3015 49.9877 26.3298 50.5158C26.4443 52.6709 26.5604 54.8264 26.678 56.9823L27.0921 64.6704L26.8533 66.7095H15.3981C15.1295 66.0222 14.878 65.2965 14.6535 64.533C14.0014 62.3313 13.6216 60.0581 13.5223 57.7641C13.4753 56.7331 13.4856 55.7423 13.5355 54.8064C13.5721 54.1191 13.63 53.465 13.7021 52.8407C13.8751 50.8933 14.0515 48.9445 14.2314 46.9945C14.2738 46.5412 14.3159 46.0886 14.358 45.6365C14.4916 44.2061 14.6271 42.7761 14.7646 41.3465C14.7726 41.2583 14.7812 41.1695 14.7898 41.0813C14.8837 40.1042 14.9792 39.1269 15.0762 38.1494C12.9978 37.2675 11.2248 35.7937 9.97788 33.9115C8.73099 32.0293 8.06536 29.8219 8.06389 27.5642V13.6913C8.06389 11.7239 8.84547 9.83696 10.2367 8.44575C11.6279 7.05453 13.5148 6.27295 15.4823 6.27295H24.9099C26.8774 6.27295 28.7643 7.05453 30.1555 8.44575C31.5467 9.83696 32.3283 11.7239 32.3283 13.6913V13.6913Z" fill="#FFCC5A"/>
<path d="M16.6977 16.2622C16.2627 15.7497 15.6642 15.403 15.0033 15.2805C14.3423 15.158 13.6594 15.2671 13.0696 15.5896C12.4798 15.912 12.0192 16.428 11.7656 17.0506C11.512 17.6731 11.4809 18.364 11.6774 19.0068C11.3968 18.6762 11.1932 18.2872 11.0816 17.8682C10.97 17.4491 10.9531 17.0104 11.0322 16.5839C11.1112 16.1575 11.2842 15.754 11.5386 15.4028C11.7931 15.0516 12.1225 14.7614 12.503 14.5534C12.8836 14.3453 13.3057 14.2246 13.7387 14.2C14.1717 14.1754 14.6047 14.2476 15.0063 14.4112C15.408 14.5748 15.7682 14.8258 16.0607 15.146C16.3533 15.4661 16.5709 15.8474 16.6977 16.2622Z" fill="white"/>
<path d="M16.9537 17.0226C16.9537 18.7323 15.5791 20.1195 13.8866 20.1195C13.4409 20.1196 13.0007 20.0218 12.5969 19.8332C12.1931 19.6446 11.8357 19.3697 11.5497 19.0278C11.4606 18.7343 11.4156 18.4291 11.4163 18.1223C11.4163 16.4115 12.7909 15.0254 14.4834 15.0254C14.9292 15.0253 15.3696 15.1231 15.7734 15.3119C16.1773 15.5006 16.5349 15.7757 16.8208 16.1176C16.9092 16.4112 16.954 16.7161 16.9537 17.0226V17.0226Z" fill="#B98000"/>
<path d="M24.147 16.2622C24.582 15.7497 25.1805 15.403 25.8414 15.2805C26.5024 15.158 27.1853 15.2671 27.7751 15.5896C28.3649 15.912 28.8255 16.428 29.0791 17.0506C29.3327 17.6731 29.3638 18.364 29.1672 19.0068C29.4479 18.6762 29.6515 18.2872 29.7631 17.8682C29.8747 17.4491 29.8916 17.0104 29.8125 16.5839C29.7335 16.1575 29.5605 15.754 29.306 15.4028C29.0516 15.0516 28.7222 14.7614 28.3417 14.5534C27.9611 14.3453 27.539 14.2246 27.106 14.2C26.673 14.1754 26.24 14.2476 25.8383 14.4112C25.4367 14.5748 25.0765 14.8258 24.784 15.146C24.4914 15.4661 24.2738 15.8474 24.147 16.2622V16.2622Z" fill="white"/>
<path d="M23.9225 17.0726C23.9225 18.8184 25.2794 20.2343 26.9524 20.2343C27.3959 20.2324 27.8334 20.1313 28.2328 19.9384C28.6321 19.7456 28.9833 19.4658 29.2606 19.1197C29.3485 18.8194 29.3929 18.5081 29.3923 18.1952C29.3923 16.4495 28.036 15.0342 26.363 15.0342C25.9195 15.0365 25.4821 15.138 25.0829 15.3312C24.6837 15.5245 24.3328 15.8046 24.0559 16.1511C23.968 16.4504 23.9231 16.7607 23.9225 17.0726Z" fill="#B98000"/>
<path d="M29.177 31.147V34.4421C27.083 37.2853 24.1195 39.058 20.8347 39.058H19.558C16.9571 39.058 14.5578 37.9468 12.6317 36.0722V31.1464C12.6317 26.4257 15.6066 22.5991 19.2757 22.5991H22.533C26.2021 22.5997 29.177 26.4263 29.177 31.147Z" fill="#FBDC97"/>
<path d="M17.558 26.3575C17.73 26.3575 17.8695 26.218 17.8695 26.046C17.8695 25.8739 17.73 25.7344 17.558 25.7344C17.3859 25.7344 17.2464 25.8739 17.2464 26.046C17.2464 26.218 17.3859 26.3575 17.558 26.3575Z" fill="#992600"/>
<path d="M24.2306 26.046C24.2306 26.1076 24.2123 26.1679 24.1781 26.2191C24.1438 26.2704 24.0951 26.3103 24.0382 26.3339C23.9812 26.3574 23.9185 26.3636 23.8581 26.3515C23.7976 26.3394 23.7421 26.3097 23.6985 26.2661C23.655 26.2224 23.6253 26.1669 23.6134 26.1064C23.6014 26.0459 23.6077 25.9832 23.6314 25.9263C23.655 25.8694 23.695 25.8208 23.7464 25.7866C23.7977 25.7524 23.858 25.7343 23.9196 25.7344C24.0022 25.7345 24.0813 25.7674 24.1396 25.8258C24.1979 25.8843 24.2306 25.9634 24.2306 26.046V26.046Z" fill="#992600"/>
<path d="M15.6094 34.1507C17.0986 34.8707 18.1055 35.4411 19.03 35.6548C19.9893 35.8764 21.0776 35.8656 22.1612 35.7968C22.8325 35.755 23.9265 35.6742 25.0382 34.9698C25.4234 34.7252 25.774 34.4301 26.0806 34.0923" stroke="#992600" stroke-width="0.28638" stroke-linecap="round" stroke-linejoin="round"/>
<path d="M17.0975 2.84424H15.2893V7.76425H17.0975V2.84424Z" fill="#FFCC5A"/>
<path d="M26.2141 2.84424H24.4059V7.76425H26.2141V2.84424Z" fill="#FFCC5A"/>
<path d="M16.24 3.90639C17.319 3.90639 18.1937 3.0317 18.1937 1.95271C18.1937 0.873718 17.319 -0.000976562 16.24 -0.000976562C15.1611 -0.000976562 14.2864 0.873718 14.2864 1.95271C14.2864 3.0317 15.1611 3.90639 16.24 3.90639Z" fill="#B98000"/>
<path d="M25.4482 3.89948C26.5244 3.8229 27.3348 2.88833 27.2583 1.81206C27.1817 0.735788 26.2471 -0.0746198 25.1708 0.00196177C24.0946 0.0785433 23.2842 1.01311 23.3607 2.08938C23.4373 3.16565 24.3719 3.97606 25.4482 3.89948Z" fill="#B98000"/>
<path d="M17.7636 8.65582C18.1473 9.90272 18.1525 10.2859 18.3364 10.3243C18.7946 10.4182 19.3897 8.21881 19.9647 8.29556C20.4367 8.35799 20.4722 9.89585 20.8891 9.92162C21.3153 9.94854 21.6051 8.35913 21.9894 8.39006C22.3949 8.42271 22.5186 10.2292 22.7117 10.22C22.9328 10.2097 22.7403 7.82475 23.3354 7.64547C23.8664 7.48567 24.8297 9.51725 24.9661 9.44451C25.0703 9.38724 24.2541 8.34195 24.5285 7.29437C24.7919 6.28746 25.8556 6.07668 25.757 5.53084C25.666 5.0251 24.6505 4.62817 23.7862 4.71523C22.7856 4.81604 22.5347 5.51022 21.8577 5.36188C21.2219 5.22327 21.1927 4.56001 20.455 4.23927C20.2259 4.13961 20.0317 4.12472 18.7556 4.30743C17.5666 4.47925 16.5745 4.65624 15.3569 5.05201C14.6077 5.29773 14.4404 5.40713 14.3373 5.59614C13.9576 6.29032 14.6558 7.67468 15.4932 7.83907C16.2 7.97825 16.6754 7.18154 17.1926 7.43126C17.3317 7.50228 17.4474 7.62886 17.7636 8.65582Z" fill="#B98000"/>
<path d="M18.8747 50.9859C18.8744 51.6276 18.7211 52.26 18.4276 52.8307C18.1341 53.4014 17.7088 53.8939 17.187 54.2675C16.6652 54.641 16.0619 54.8848 15.4271 54.9787C14.7923 55.0726 14.1442 55.0139 13.5366 54.8074C13.5733 54.12 13.6311 53.4659 13.7033 52.8416C13.8763 50.8943 14.0527 48.9455 14.2325 46.9955C14.8071 46.9087 15.3937 46.9469 15.9522 47.1076C16.5107 47.2682 17.0279 47.5475 17.4686 47.9263C17.9093 48.3051 18.263 48.7745 18.5057 49.3026C18.7484 49.8306 18.8743 50.4048 18.8747 50.9859V50.9859Z" fill="#B98000"/>
<path d="M26.1648 47.4117C26.1923 47.9188 26.2196 48.4257 26.2467 48.9324C25.5789 49.0773 24.8868 49.0692 24.2225 48.9086C23.5582 48.7481 22.9389 48.4394 22.4108 48.0055C21.8828 47.5716 21.4598 47.0238 21.1735 46.4033C20.8872 45.7827 20.7451 45.1054 20.7577 44.4221C20.7704 43.7388 20.9375 43.0672 21.2466 42.4576C21.5556 41.8481 21.9986 41.3164 22.5424 40.9024C23.0861 40.4883 23.7165 40.2027 24.3863 40.0669C25.0561 39.9311 25.7479 39.9486 26.41 40.1181C26.2534 42.5909 26.1717 45.0221 26.1648 47.4117Z" fill="#B98000"/>
<path d="M26.6803 56.9819C26.1796 57.1738 25.6406 57.2445 25.1074 57.1884C24.5741 57.1323 24.0617 56.9509 23.6119 56.659C23.162 56.3671 22.7876 55.9731 22.5191 55.509C22.2505 55.0448 22.0955 54.5238 22.0667 53.9884C22.0378 53.453 22.136 52.9183 22.3531 52.428C22.5702 51.9377 22.9002 51.5057 23.316 51.1672C23.7319 50.8288 24.2219 50.5934 24.7461 50.4803C25.2702 50.3672 25.8137 50.3797 26.3321 50.5166C26.4485 52.6713 26.5646 54.8264 26.6803 56.9819Z" fill="#B98000"/>
<path d="M17.4652 43.5547C17.4649 43.9242 17.3737 44.288 17.1997 44.614C17.0257 44.94 16.7741 45.2181 16.4672 45.4239C16.1603 45.6298 15.8075 45.7569 15.4399 45.7942C15.0722 45.8315 14.7011 45.7778 14.3591 45.6378C14.4927 44.2074 14.6283 42.7774 14.7658 41.3478C15.0927 41.2818 15.4303 41.2892 15.7541 41.3694C16.0779 41.4497 16.3798 41.6009 16.6381 41.812C16.8964 42.0231 17.1045 42.289 17.2476 42.5904C17.3906 42.8917 17.4649 43.2211 17.4652 43.5547V43.5547Z" fill="#B98000"/>
<path d="M24.0422 63.0886C24.0444 64.3752 23.6688 65.6341 22.962 66.7091H15.4015C15.1329 66.0218 14.8815 65.2961 14.6569 64.5326C14.0049 62.3309 13.625 60.0577 13.5257 57.7637C14.5099 57.0403 15.6754 56.6039 16.8927 56.503C18.11 56.4022 19.3314 56.6408 20.4212 57.1923C21.5111 57.7438 22.4267 58.5867 23.0663 59.6273C23.7059 60.6679 24.0445 61.8655 24.0445 63.0869L24.0422 63.0886Z" fill="#B98000"/>
<path d="M20.4888 15.2867C20.9003 15.2867 21.2339 14.9531 21.2339 14.5415C21.2339 14.13 20.9003 13.7964 20.4888 13.7964C20.0772 13.7964 19.7436 14.13 19.7436 14.5415C19.7436 14.9531 20.0772 15.2867 20.4888 15.2867Z" fill="#B98000"/>
<path d="M22.4619 13.2027C22.8735 13.2027 23.2071 12.8691 23.2071 12.4576C23.2071 12.046 22.8735 11.7124 22.4619 11.7124C22.0504 11.7124 21.7168 12.046 21.7168 12.4576C21.7168 12.8691 22.0504 13.2027 22.4619 13.2027Z" fill="#B98000"/>
<path d="M18.3558 13.4148C19.1223 13.4148 19.7436 12.7934 19.7436 12.027C19.7436 11.2605 19.1223 10.6392 18.3558 10.6392C17.5894 10.6392 16.968 11.2605 16.968 12.027C16.968 12.7934 17.5894 13.4148 18.3558 13.4148Z" fill="#B98000"/>
<path d="M18.7831 17.9509C19.2013 17.9509 19.5403 17.6119 19.5403 17.1937C19.5403 16.7755 19.2013 16.4365 18.7831 16.4365C18.3649 16.4365 18.0259 16.7755 18.0259 17.1937C18.0259 17.6119 18.3649 17.9509 18.7831 17.9509Z" fill="#B98000"/>
<path d="M19.0821 21.1936C19.5003 21.1936 19.8393 20.8546 19.8393 20.4364C19.8393 20.0182 19.5003 19.6792 19.0821 19.6792C18.6639 19.6792 18.3249 20.0182 18.3249 20.4364C18.3249 20.8546 18.6639 21.1936 19.0821 21.1936Z" fill="#B98000"/>
<path d="M21.6394 19.8769C22.5078 19.8769 23.2117 19.173 23.2117 18.3046C23.2117 17.4363 22.5078 16.7324 21.6394 16.7324C20.7711 16.7324 20.0672 17.4363 20.0672 18.3046C20.0672 19.173 20.7711 19.8769 21.6394 19.8769Z" fill="#B98000"/>
</g>
<defs>
<filter id="filter0_d_418_810" x="85" y="29" width="59" height="32" filterUnits="userSpaceOnUse" color-interpolation-filters="sRGB">
<feFlood flood-opacity="0" result="BackgroundImageFix"/>
<feColorMatrix in="SourceAlpha" type="matrix" values="0 0 0 0 0 0 0 0 0 0 0 0 0 0 0 0 0 0 127 0" result="hardAlpha"/>
<feOffset dy="2"/>
<feGaussianBlur stdDeviation="2"/>
<feComposite in2="hardAlpha" operator="out"/>
<feColorMatrix type="matrix" values="0 0 0 0 0 0 0 0 0 0 0 0 0 0 0 0 0 0 0.25 0"/>
<feBlend mode="normal" in2="BackgroundImageFix" result="effect1_dropShadow_418_810"/>
<feBlend mode="normal" in="SourceGraphic" in2="effect1_dropShadow_418_810" result="shape"/>
</filter>
<clipPath id="clip0_418_810">
<rect width="36.4207" height="66.71" fill="white"/>
</clipPath>
</defs>
</svg>
