<svg width="204" height="67" viewBox="0 0 204 67" fill="none" xmlns="http://www.w3.org/2000/svg">
<g opacity="0.3" filter="url(#filter0_d_418_812)">
<rect x="96" y="31" width="81" height="24" rx="5" fill="#592DB5"/>
</g>
<path d="M96.532 23.684C97.302 24.552 98.492 25.168 100.116 25.168C102.636 25.168 103.56 23.782 103.56 22.424C103.56 20.464 101.824 19.988 100.298 19.582C99.108 19.26 98.03 18.98 98.03 18.042C98.03 17.16 98.828 16.558 99.948 16.558C100.97 16.558 101.95 16.908 102.65 17.678L103.35 16.824C102.566 15.998 101.46 15.522 100.032 15.522C98.198 15.522 96.826 16.572 96.826 18.112C96.826 19.946 98.492 20.366 99.99 20.758C101.222 21.094 102.356 21.402 102.356 22.522C102.356 23.236 101.824 24.132 100.158 24.132C98.842 24.132 97.834 23.488 97.218 22.802L96.532 23.684ZM104.861 21.612C104.861 23.726 106.303 25.168 108.305 25.168C109.411 25.168 110.321 24.804 110.993 24.132L110.489 23.446C109.957 23.992 109.173 24.3 108.403 24.3C106.947 24.3 106.051 23.236 105.967 21.962H111.441V21.696C111.441 19.666 110.237 18.07 108.193 18.07C106.261 18.07 104.861 19.652 104.861 21.612ZM108.179 18.938C109.719 18.938 110.391 20.184 110.405 21.192H105.967C106.023 20.156 106.737 18.938 108.179 18.938ZM114.192 25V15.662H113.142V25H114.192ZM119.002 19.162V18.238H117.63V17.72C117.63 16.866 118.008 16.39 118.694 16.39C118.932 16.39 119.128 16.446 119.296 16.544L119.562 15.76C119.296 15.592 118.932 15.522 118.54 15.522C117.364 15.522 116.58 16.32 116.58 17.72V18.238H115.46V19.162H116.58V25H117.63V19.162H119.002ZM133.045 25V15.662H131.379L128.467 22.774L125.569 15.662H123.903V25H125.065V17.23L128.229 25H128.705L131.883 17.23V25H133.045ZM140.459 25V20.352C140.459 18.714 139.269 18.07 137.841 18.07C136.735 18.07 135.867 18.434 135.139 19.19L135.629 19.918C136.231 19.274 136.889 18.98 137.701 18.98C138.681 18.98 139.409 19.498 139.409 20.408V21.626C138.863 20.996 138.093 20.702 137.169 20.702C136.021 20.702 134.803 21.416 134.803 22.928C134.803 24.398 136.021 25.168 137.169 25.168C138.079 25.168 138.849 24.846 139.409 24.23V25H140.459ZM139.409 23.572C139.003 24.132 138.289 24.412 137.547 24.412C136.567 24.412 135.881 23.796 135.881 22.942C135.881 22.074 136.567 21.458 137.547 21.458C138.289 21.458 139.003 21.738 139.409 22.298V23.572ZM148.178 25V20.254C148.178 18.784 147.436 18.07 146.022 18.07C145.014 18.07 144.09 18.658 143.614 19.218V18.238H142.564V25H143.614V20.058C144.006 19.512 144.79 19.008 145.616 19.008C146.526 19.008 147.128 19.386 147.128 20.576V25H148.178ZM155.553 25V20.352C155.553 18.714 154.363 18.07 152.935 18.07C151.829 18.07 150.961 18.434 150.233 19.19L150.723 19.918C151.325 19.274 151.983 18.98 152.795 18.98C153.775 18.98 154.503 19.498 154.503 20.408V21.626C153.957 20.996 153.187 20.702 152.263 20.702C151.115 20.702 149.897 21.416 149.897 22.928C149.897 24.398 151.115 25.168 152.263 25.168C153.173 25.168 153.943 24.846 154.503 24.23V25H155.553ZM154.503 23.572C154.097 24.132 153.383 24.412 152.641 24.412C151.661 24.412 150.975 23.796 150.975 22.942C150.975 22.074 151.661 21.458 152.641 21.458C153.383 21.458 154.097 21.738 154.503 22.298V23.572ZM157.643 26.736C158.441 27.52 159.225 27.744 160.373 27.744C162.025 27.744 163.593 27.044 163.593 24.804V18.238H162.543V19.26C161.997 18.518 161.185 18.07 160.275 18.07C158.497 18.07 157.265 19.414 157.265 21.584C157.265 23.768 158.511 25.084 160.275 25.084C161.227 25.084 162.053 24.566 162.543 23.88V24.846C162.543 26.33 161.493 26.876 160.373 26.876C159.407 26.876 158.735 26.624 158.175 25.952L157.643 26.736ZM162.543 23.054C162.179 23.642 161.367 24.16 160.527 24.16C159.169 24.16 158.357 23.068 158.357 21.584C158.357 20.086 159.169 19.008 160.527 19.008C161.367 19.008 162.179 19.512 162.543 20.1V23.054ZM165.304 21.612C165.304 23.726 166.746 25.168 168.748 25.168C169.854 25.168 170.764 24.804 171.436 24.132L170.932 23.446C170.4 23.992 169.616 24.3 168.846 24.3C167.39 24.3 166.494 23.236 166.41 21.962H171.884V21.696C171.884 19.666 170.68 18.07 168.636 18.07C166.704 18.07 165.304 19.652 165.304 21.612ZM168.622 18.938C170.162 18.938 170.834 20.184 170.848 21.192H166.41C166.466 20.156 167.18 18.938 168.622 18.938ZM182.797 25V20.114C182.797 18.756 182.139 18.07 180.907 18.07C179.927 18.07 179.017 18.714 178.639 19.33C178.443 18.63 177.855 18.07 176.819 18.07C175.825 18.07 174.915 18.784 174.635 19.218V18.238H173.585V25H174.635V20.058C174.999 19.512 175.727 19.008 176.413 19.008C177.295 19.008 177.659 19.554 177.659 20.408V25H178.709V20.044C179.059 19.512 179.801 19.008 180.501 19.008C181.369 19.008 181.747 19.554 181.747 20.408V25H182.797ZM184.5 21.612C184.5 23.726 185.942 25.168 187.944 25.168C189.05 25.168 189.96 24.804 190.632 24.132L190.128 23.446C189.596 23.992 188.812 24.3 188.042 24.3C186.586 24.3 185.69 23.236 185.606 21.962H191.08V21.696C191.08 19.666 189.876 18.07 187.832 18.07C185.9 18.07 184.5 19.652 184.5 21.612ZM187.818 18.938C189.358 18.938 190.03 20.184 190.044 21.192H185.606C185.662 20.156 186.376 18.938 187.818 18.938ZM198.394 25V20.254C198.394 18.784 197.652 18.07 196.238 18.07C195.23 18.07 194.306 18.658 193.83 19.218V18.238H192.78V25H193.83V20.058C194.222 19.512 195.006 19.008 195.832 19.008C196.742 19.008 197.344 19.386 197.344 20.576V25H198.394ZM202.199 25.168C202.815 25.168 203.193 24.986 203.459 24.734L203.151 23.95C203.011 24.104 202.731 24.23 202.437 24.23C201.975 24.23 201.751 23.866 201.751 23.362V19.162H203.123V18.238H201.751V16.39H200.701V18.238H199.581V19.162H200.701V23.586C200.701 24.594 201.205 25.168 202.199 25.168Z" fill="#19004E"/>
<g clip-path="url(#clip0_418_812)">
<path d="M33.6473 34.7977H16.0077C10.5055 34.7977 3.39232 39.0219 3.39232 33.5197L6.04504 14.0442C6.04504 11.4019 7.09467 8.86788 8.96302 6.99953C10.8314 5.13117 13.3654 4.08154 16.0077 4.08154H33.6473C39.1495 4.08154 43.0232 8.49542 43.8665 14.0538L46.2513 32.8714C46.2513 38.371 39.1495 34.7977 33.6473 34.7977Z" fill="#592DB5"/>
<path d="M14.8137 60.6225L10.6643 59.0056C10.1747 58.8148 9.62325 59.057 9.43249 59.5465L7.81551 63.696C7.62475 64.1855 7.86695 64.737 8.35648 64.9278L12.506 66.5447C12.9955 66.7355 13.547 66.4933 13.7377 66.0038L15.3547 61.8543C15.5455 61.3648 15.3033 60.8133 14.8137 60.6225Z" fill="white" stroke="#D4C9E8" stroke-width="0.439191" stroke-linecap="round" stroke-linejoin="round"/>
<path d="M38.4283 66.31L42.5777 64.6931C43.0673 64.5023 43.3095 63.9508 43.1187 63.4613L41.5017 59.3118C41.311 58.8223 40.7595 58.5801 40.27 58.7708L36.1205 60.3878C35.631 60.5786 35.3888 61.1301 35.5795 61.6196L37.1965 65.7691C37.3873 66.2586 37.9387 66.5008 38.4283 66.31Z" fill="white" stroke="#D4C9E8" stroke-width="0.439191" stroke-linecap="round" stroke-linejoin="round"/>
<path d="M50.3656 42.1024V44.6444C50.3656 54.5921 42.3012 62.6574 32.3526 62.6574H27.4503C27.022 62.6619 26.5983 62.5681 26.2118 62.3833C25.5574 62.0592 25.1393 61.5331 24.8064 61.1316C24.7077 61.2469 24.6012 61.3552 24.4876 61.4558C23.6116 62.2351 22.4785 62.663 21.3061 62.6574H18.013C8.06531 62.6574 0 54.593 0 44.6444V42.1024C0 32.1538 8.06443 24.0894 18.013 24.0894H32.3526C42.3012 24.0894 50.3656 32.1538 50.3656 42.1024Z" fill="#D4C9E8"/>
<path d="M11.2275 43.7855C12.579 43.7855 13.6747 42.6898 13.6747 41.3383C13.6747 39.9867 12.579 38.8911 11.2275 38.8911C9.87596 38.8911 8.78032 39.9867 8.78032 41.3383C8.78032 42.6898 9.87596 43.7855 11.2275 43.7855Z" fill="#19004E"/>
<path d="M39.3674 43.846C40.7189 43.846 41.8145 42.7504 41.8145 41.3988C41.8145 40.0473 40.7189 38.9517 39.3674 38.9517C38.0158 38.9517 36.9202 40.0473 36.9202 41.3988C36.9202 42.7504 38.0158 43.846 39.3674 43.846Z" fill="#19004E"/>
<path d="M39.0766 19.2362C39.0776 19.8096 38.9744 20.3784 38.7718 20.9148C38.7421 19.8118 38.3301 18.7533 37.6063 17.9204C36.8824 17.0875 35.8917 16.532 34.8035 16.3489C33.7154 16.1658 32.5974 16.3664 31.6408 16.9165C30.6842 17.4665 29.9484 18.3319 29.5593 19.3645C29.5593 19.3214 29.5593 19.2766 29.5593 19.2362C29.5508 18.6058 29.6676 17.9799 29.9029 17.3949C30.1382 16.81 30.4875 16.2776 30.9303 15.8287C31.3731 15.3799 31.9007 15.0234 32.4824 14.7802C33.0641 14.5369 33.6883 14.4116 34.3189 14.4116C34.9494 14.4116 35.5736 14.5369 36.1553 14.7802C36.737 15.0234 37.2646 15.3799 37.7074 15.8287C38.1503 16.2776 38.4995 16.81 38.7348 17.3949C38.9702 17.9799 39.0869 18.6058 39.0784 19.2362H39.0766Z" fill="white"/>
<path d="M38.7718 20.9112C38.3827 21.9438 37.647 22.8092 36.6904 23.3593C35.7338 23.9093 34.6158 24.11 33.5276 23.9268C32.4395 23.7437 31.4487 23.1882 30.7249 22.3553C30.001 21.5225 29.589 20.464 29.5593 19.3609C29.9484 18.3283 30.6842 17.463 31.6408 16.9129C32.5974 16.3628 33.7154 16.1622 34.8035 16.3453C35.8917 16.5284 36.8824 17.0839 37.6063 17.9168C38.3301 18.7497 38.7421 19.8082 38.7718 20.9112V20.9112Z" fill="#19004E"/>
<path d="M20.5278 18.2491C19.8238 17.4846 18.8891 16.9715 17.8662 16.7881C16.8433 16.6046 15.7885 16.7609 14.8628 17.233C13.937 17.7051 13.1912 18.4672 12.7391 19.4029C12.287 20.3386 12.1534 21.3965 12.3589 22.4152C11.8618 21.8748 11.4966 21.2268 11.2916 20.5217C11.0867 19.8167 11.0476 19.0738 11.1775 18.3512C11.3073 17.6286 11.6026 16.9458 12.0402 16.3562C12.4777 15.7666 13.0458 15.2863 13.6998 14.9527C14.3539 14.6192 15.0762 14.4414 15.8104 14.4334C16.5446 14.4254 17.2706 14.5873 17.9318 14.9065C18.593 15.2257 19.1714 15.6935 19.6217 16.2734C20.0721 16.8532 20.3822 17.5294 20.5278 18.2491V18.2491Z" fill="white"/>
<path d="M10.8473 9.57176C12.6228 8.71577 13.1366 6.1022 11.9949 3.7342C10.8532 1.3662 8.48842 0.140473 6.71296 0.996469C4.93751 1.85247 4.42373 4.46603 5.56541 6.83403C6.70709 9.20203 9.07189 10.4278 10.8473 9.57176Z" fill="#592DB5"/>
<path d="M43.7895 6.27719C45.1039 4.00054 44.7857 1.35603 43.0787 0.370511C41.3718 -0.615006 38.9224 0.431669 37.608 2.70832C36.2936 4.98497 36.6118 7.62949 38.3188 8.615C40.0257 9.60052 42.4751 8.55384 43.7895 6.27719Z" fill="#592DB5"/>
<path d="M20.6209 19.1886C20.6203 20.1459 20.331 21.0807 19.7909 21.8711C19.2508 22.6614 18.485 23.2706 17.5933 23.619C16.7017 23.9674 15.7257 24.0389 14.7929 23.8241C13.86 23.6092 13.0136 23.1182 12.3641 22.4149C12.1579 21.396 12.291 20.3376 12.743 19.4015C13.1949 18.4653 13.9409 17.7029 14.867 17.2306C15.793 16.7583 16.8482 16.6021 17.8714 16.786C18.8945 16.9698 19.8294 17.4836 20.5331 18.2487C20.5936 18.5583 20.623 18.8732 20.6209 19.1886V19.1886Z" fill="#19004E"/>
<path d="M12.8244 12.2573C13.2317 11.5494 13.8897 11.0201 14.6684 10.7739C15.4471 10.5276 16.2898 10.5824 17.0301 10.9274" stroke="#19004E" stroke-width="0.439191" stroke-linecap="round" stroke-linejoin="round"/>
<path d="M33.39 10.9564C34.0705 10.5046 34.8958 10.3247 35.7027 10.452C36.5095 10.5794 37.2393 11.0048 37.7476 11.6441" stroke="#19004E" stroke-width="0.439191" stroke-linecap="round" stroke-linejoin="round"/>
</g>
<defs>
<filter id="filter0_d_418_812" x="92" y="29" width="89" height="32" filterUnits="userSpaceOnUse" color-interpolation-filters="sRGB">
<feFlood flood-opacity="0" result="BackgroundImageFix"/>
<feColorMatrix in="SourceAlpha" type="matrix" values="0 0 0 0 0 0 0 0 0 0 0 0 0 0 0 0 0 0 127 0" result="hardAlpha"/>
<feOffset dy="2"/>
<feGaussianBlur stdDeviation="2"/>
<feComposite in2="hardAlpha" operator="out"/>
<feColorMatrix type="matrix" values="0 0 0 0 0 0 0 0 0 0 0 0 0 0 0 0 0 0 0.25 0"/>
<feBlend mode="normal" in2="BackgroundImageFix" result="effect1_dropShadow_418_812"/>
<feBlend mode="normal" in="SourceGraphic" in2="effect1_dropShadow_418_812" result="shape"/>
</filter>
<clipPath id="clip0_418_812">
<rect width="50.3656" height="66.83" fill="white"/>
</clipPath>
</defs>
</svg>
