<svg width="265" height="57" viewBox="0 0 265 57" fill="none" xmlns="http://www.w3.org/2000/svg">
<g opacity="0.3" filter="url(#filter0_d_418_811)">
<rect x="101" y="26" width="160" height="24" rx="5" fill="#FCB7A8"/>
</g>
<path d="M108.868 20L106.348 16.192C107.622 16.08 108.77 15.156 108.77 13.476C108.77 11.754 107.552 10.662 105.844 10.662H102.092V20H103.254V16.29H105.116L107.496 20H108.868ZM107.566 13.476C107.566 14.526 106.81 15.268 105.704 15.268H103.254V11.698H105.704C106.81 11.698 107.566 12.426 107.566 13.476ZM109.752 16.612C109.752 18.726 111.194 20.168 113.196 20.168C114.302 20.168 115.212 19.804 115.884 19.132L115.38 18.446C114.848 18.992 114.064 19.3 113.294 19.3C111.838 19.3 110.942 18.236 110.858 16.962H116.332V16.696C116.332 14.666 115.128 13.07 113.084 13.07C111.152 13.07 109.752 14.652 109.752 16.612ZM113.07 13.938C114.61 13.938 115.282 15.184 115.296 16.192H110.858C110.914 15.156 111.628 13.938 113.07 13.938ZM119.082 20V10.662H118.032V20H119.082ZM126.455 20V15.352C126.455 13.714 125.265 13.07 123.837 13.07C122.731 13.07 121.863 13.434 121.135 14.19L121.625 14.918C122.227 14.274 122.885 13.98 123.697 13.98C124.677 13.98 125.405 14.498 125.405 15.408V16.626C124.859 15.996 124.089 15.702 123.165 15.702C122.017 15.702 120.799 16.416 120.799 17.928C120.799 19.398 122.017 20.168 123.165 20.168C124.075 20.168 124.845 19.846 125.405 19.23V20H126.455ZM125.405 18.572C124.999 19.132 124.285 19.412 123.543 19.412C122.563 19.412 121.877 18.796 121.877 17.942C121.877 17.074 122.563 16.458 123.543 16.458C124.285 16.458 124.999 16.738 125.405 17.298V18.572ZM130.268 20.168C130.884 20.168 131.262 19.986 131.528 19.734L131.22 18.95C131.08 19.104 130.8 19.23 130.506 19.23C130.044 19.23 129.82 18.866 129.82 18.362V14.162H131.192V13.238H129.82V11.39H128.77V13.238H127.65V14.162H128.77V18.586C128.77 19.594 129.274 20.168 130.268 20.168ZM133.193 12.104C133.585 12.104 133.907 11.782 133.907 11.39C133.907 10.998 133.585 10.69 133.193 10.69C132.815 10.69 132.493 10.998 132.493 11.39C132.493 11.782 132.815 12.104 133.193 12.104ZM133.725 20V13.238H132.675V20H133.725ZM138.774 20.168C140.832 20.168 142.12 18.572 142.12 16.612C142.12 14.652 140.832 13.07 138.774 13.07C136.716 13.07 135.428 14.652 135.428 16.612C135.428 18.572 136.716 20.168 138.774 20.168ZM138.774 19.23C137.332 19.23 136.52 17.998 136.52 16.612C136.52 15.24 137.332 14.008 138.774 14.008C140.216 14.008 141.014 15.24 141.014 16.612C141.014 17.998 140.216 19.23 138.774 19.23ZM149.445 20V15.254C149.445 13.784 148.703 13.07 147.289 13.07C146.281 13.07 145.357 13.658 144.881 14.218V13.238H143.831V20H144.881V15.058C145.273 14.512 146.057 14.008 146.883 14.008C147.793 14.008 148.395 14.386 148.395 15.576V20H149.445ZM150.954 19.104C151.64 19.832 152.578 20.168 153.684 20.168C155.434 20.168 156.344 19.258 156.344 18.124C156.344 16.626 154.986 16.29 153.81 16.024C152.928 15.814 152.158 15.604 152.158 14.946C152.158 14.344 152.732 13.924 153.656 13.924C154.524 13.924 155.266 14.288 155.672 14.778L156.162 14.05C155.616 13.504 154.804 13.07 153.656 13.07C152.046 13.07 151.136 13.966 151.136 15.016C151.136 16.416 152.438 16.724 153.586 16.99C154.496 17.214 155.322 17.452 155.322 18.194C155.322 18.852 154.762 19.314 153.726 19.314C152.802 19.314 151.948 18.866 151.5 18.348L150.954 19.104ZM163.678 20V15.226C163.678 13.756 162.936 13.07 161.522 13.07C160.5 13.07 159.576 13.658 159.1 14.218V10.662H158.05V20H159.1V15.058C159.506 14.512 160.29 14.008 161.102 14.008C162.012 14.008 162.628 14.358 162.628 15.548V20H163.678ZM166.293 12.104C166.685 12.104 167.007 11.782 167.007 11.39C167.007 10.998 166.685 10.69 166.293 10.69C165.915 10.69 165.593 10.998 165.593 11.39C165.593 11.782 165.915 12.104 166.293 12.104ZM166.825 20V13.238H165.775V20H166.825ZM169.969 18.978C170.515 19.734 171.327 20.168 172.251 20.168C174.029 20.168 175.261 18.796 175.261 16.612C175.261 14.414 174.029 13.07 172.251 13.07C171.299 13.07 170.459 13.56 169.969 14.246V13.238H168.919V22.576H169.969V18.978ZM174.155 16.612C174.155 18.11 173.343 19.23 171.985 19.23C171.159 19.23 170.333 18.726 169.969 18.138V15.086C170.333 14.498 171.159 14.008 171.985 14.008C173.343 14.008 174.155 15.114 174.155 16.612ZM180.05 18.684C180.82 19.552 182.01 20.168 183.634 20.168C186.154 20.168 187.078 18.782 187.078 17.424C187.078 15.464 185.342 14.988 183.816 14.582C182.626 14.26 181.548 13.98 181.548 13.042C181.548 12.16 182.346 11.558 183.466 11.558C184.488 11.558 185.468 11.908 186.168 12.678L186.868 11.824C186.084 10.998 184.978 10.522 183.55 10.522C181.716 10.522 180.344 11.572 180.344 13.112C180.344 14.946 182.01 15.366 183.508 15.758C184.74 16.094 185.874 16.402 185.874 17.522C185.874 18.236 185.342 19.132 183.676 19.132C182.36 19.132 181.352 18.488 180.736 17.802L180.05 18.684ZM194.721 20L191.711 16.304L194.707 13.238H193.377L189.821 16.836V10.662H188.771V20H189.821V18.068L190.941 16.962L193.377 20H194.721ZM196.48 12.104C196.872 12.104 197.194 11.782 197.194 11.39C197.194 10.998 196.872 10.69 196.48 10.69C196.102 10.69 195.78 10.998 195.78 11.39C195.78 11.782 196.102 12.104 196.48 12.104ZM197.012 20V13.238H195.962V20H197.012ZM200.157 20V10.662H199.107V20H200.157ZM203.301 20V10.662H202.251V20H203.301ZM204.808 19.104C205.494 19.832 206.432 20.168 207.538 20.168C209.288 20.168 210.198 19.258 210.198 18.124C210.198 16.626 208.84 16.29 207.664 16.024C206.782 15.814 206.012 15.604 206.012 14.946C206.012 14.344 206.586 13.924 207.51 13.924C208.378 13.924 209.12 14.288 209.526 14.778L210.016 14.05C209.47 13.504 208.658 13.07 207.51 13.07C205.9 13.07 204.99 13.966 204.99 15.016C204.99 16.416 206.292 16.724 207.44 16.99C208.35 17.214 209.176 17.452 209.176 18.194C209.176 18.852 208.616 19.314 207.58 19.314C206.656 19.314 205.802 18.866 205.354 18.348L204.808 19.104Z" fill="#992600"/>
<g clip-path="url(#clip0_418_811)">
<path d="M5.04962 21.1223C1.91119 20.2375 -0.253366 14.952 0.0235758 10.7758C0.0867246 9.83084 0.257911 7.67769 1.79859 5.56411C2.0489 5.22022 3.48079 3.30749 6.00294 2.3633C10.0719 0.841641 15.4578 2.41428 17.041 5.38608C19.8379 10.6343 9.9136 22.4956 5.04962 21.1223Z" fill="#FFB2B2"/>
<path d="M57.8946 18.0315C60.8192 16.9664 62.3614 11.706 61.9269 7.86306C61.8136 6.86029 61.5724 4.94756 60.1238 3.14592C58.4804 1.10081 56.3196 0.483013 55.6608 0.309544C51.7044 -0.755617 46.7035 1.01635 45.4071 3.95772C43.1269 9.13593 53.379 19.681 57.8946 18.0315Z" fill="#FFB2B2"/>
<path d="M61.1015 24.1497C60.6501 24.913 60.1553 25.6497 59.6194 26.3561C58.7018 27.5666 55.695 31.5336 51.725 32.9442C47.2194 34.5419 45.7083 31.3464 37.8444 30.6039C30.8372 29.9412 24.6493 31.7816 22.3045 32.4793C16.6705 34.1531 14.9084 35.8931 10.536 35.7881C7.7323 35.7204 5.32275 34.9299 3.4435 34.0382C3.40242 33.8318 3.36387 33.6249 3.32786 33.4174C2.89073 30.8914 2.8361 28.3141 3.1658 25.7718C3.25964 25.047 3.38391 24.3313 3.53861 23.6248C5.95272 12.5676 15.597 3.93983 27.6942 2.18079C29.2089 1.96028 30.7376 1.84992 32.2683 1.85059C32.6533 1.85059 33.0365 1.85744 33.4179 1.87113C46.0659 2.32382 56.659 10.2174 60.263 20.968C60.4659 21.5726 60.6457 22.186 60.8024 22.8084C60.914 23.2522 61.0137 23.6993 61.1015 24.1497Z" fill="#FFB2B2"/>
<path d="M60.2965 29.7565C60.2965 30.0897 60.2899 30.4217 60.2767 30.7524C60.2508 31.3443 60.2044 31.9314 60.1375 32.5137C59.8113 35.3009 58.9978 38.0091 57.734 40.5146C57.5474 40.8854 57.3518 41.2508 57.1474 41.611C52.5064 49.7891 43.2166 55.3691 32.5133 55.3691C23.289 55.3691 15.1162 51.2263 10.0627 44.8483C9.70767 44.3979 9.36682 43.9368 9.04017 43.4651C7.42707 41.1348 6.23197 38.5415 5.5084 35.8013C5.38971 35.3534 5.28497 34.9002 5.19418 34.4417C6.97528 35.2786 9.25853 36.0219 11.9161 36.0858C16.0603 36.1847 17.7304 34.5482 23.0706 32.9718C25.293 32.3152 31.1582 30.5835 37.7995 31.2066C45.2557 31.9066 46.6853 34.9149 50.9558 33.4092C54.7188 32.0816 57.5689 28.349 58.4385 27.2092C58.9465 26.5438 59.4155 25.8496 59.843 25.1299C60.1454 26.6535 60.2973 28.2032 60.2965 29.7565V29.7565Z" fill="white" stroke="#FFB2B2" stroke-width="3.04332" stroke-linecap="round" stroke-linejoin="round"/>
<path d="M25.662 22.0904C25.6721 23.0979 25.4823 24.0974 25.1038 25.0311C24.7252 25.9648 24.1653 26.8142 23.4564 27.5302C22.7475 28.2462 21.9037 28.8146 20.9739 29.2025C20.044 29.5904 19.0464 29.7901 18.0389 29.7901C17.0313 29.7901 16.0338 29.5904 15.1039 29.2025C14.174 28.8146 13.3303 28.2462 12.6214 27.5302C11.9125 26.8142 11.3526 25.9648 10.974 25.0311C10.5954 24.0974 10.4057 23.0979 10.4158 22.0904C10.4158 17.8808 12.1109 12.5938 16.3213 12.5938C19.1128 12.5938 23.2715 15.968 24.5991 18.2071C25.2969 19.3822 25.6641 20.7239 25.662 22.0904V22.0904Z" fill="white"/>
<path d="M51.7699 21.5111C51.2776 25.838 47.8394 28.7352 43.629 28.7352C42.6279 28.7353 41.6365 28.5382 40.7116 28.1551C39.7867 27.772 38.9463 27.2104 38.2384 26.5025C37.5305 25.7946 36.9691 24.9541 36.5861 24.0291C36.2031 23.1042 36.0061 22.1128 36.0063 21.1117C36.0063 16.902 41.1677 10.7119 45.3782 10.7119C48.1704 10.7119 50.5252 13.4988 51.2769 15.9913C51.6466 17.2117 51.9297 20.1021 51.7699 21.5111Z" fill="white"/>
<path d="M23.1452 24.124C23.145 25.3975 22.6828 26.6278 21.8443 27.5863C21.0058 28.5449 19.848 29.1666 18.5858 29.3362C17.3236 29.5057 16.0427 29.2115 14.981 28.5082C13.9192 27.8049 13.1488 26.7403 12.8125 25.5119C12.4763 24.2835 12.5972 22.9749 13.1528 21.8289C13.7084 20.683 14.6609 19.7775 15.8335 19.2806C17.0061 18.7837 18.3192 18.7292 19.529 19.1271C20.7387 19.525 21.763 20.3484 22.4117 21.4443C22.8919 22.2557 23.1452 23.1812 23.1452 24.124V24.124Z" fill="white" stroke="#992600" stroke-width="0.380415" stroke-linecap="round" stroke-linejoin="round"/>
<path d="M23.1452 24.1244C23.1453 25.0744 22.8881 26.0067 22.4011 26.8224C21.914 27.638 21.2151 28.3065 20.3787 28.757C19.5423 29.2075 18.5996 29.4231 17.6505 29.3809C16.7014 29.3387 15.7815 29.0404 14.9883 28.5175C14.3814 27.4938 14.1395 26.2946 14.3021 25.1157C14.4646 23.9368 15.0221 22.8479 15.8834 22.0266C16.7447 21.2054 17.8589 20.7005 19.0442 20.5943C20.2296 20.488 21.4159 20.7868 22.4095 21.4418C22.8924 22.2532 23.1467 23.1802 23.1452 24.1244Z" fill="#992600"/>
<path d="M21.2127 38.9224C22.1953 39.8924 23.5211 40.4354 24.9019 40.4334H24.9057" stroke="#992600" stroke-width="0.380415" stroke-linecap="round" stroke-linejoin="round"/>
<path d="M37.2213 40.0952C37.2213 43.8575 34.8627 46.9077 31.9609 46.9077C29.0591 46.9077 26.7005 43.8545 26.7005 40.0952C26.7005 40.0556 26.7005 40.0191 26.7005 39.9773C27.7451 39.643 28.6591 38.9907 29.3147 38.1115C29.9703 37.2323 30.3347 36.1702 30.3571 35.0737L30.9399 35.7121C31.0333 35.8144 31.1463 35.8968 31.2722 35.9546C31.3981 36.0124 31.5343 36.0443 31.6727 36.0484C31.8112 36.0525 31.9491 36.0288 32.0782 35.9786C32.2073 35.9284 32.325 35.8528 32.4243 35.7562C32.8584 36.6675 33.5242 37.4489 34.3551 38.0222C35.186 38.5956 36.1528 38.9407 37.1589 39.0232C37.2016 39.3789 37.2224 39.7369 37.2213 40.0952V40.0952Z" fill="#992600"/>
<path d="M38.3047 39.1696C39.3706 38.9435 40.3507 38.4202 41.1317 37.6602C41.9126 36.9003 42.4624 35.9348 42.7175 34.8755" stroke="#992600" stroke-width="0.380415" stroke-linecap="round" stroke-linejoin="round"/>
<path d="M49.18 22.6507C49.18 23.3415 49.0439 24.0255 48.7796 24.6637C48.5152 25.302 48.1277 25.8819 47.6393 26.3703C47.1508 26.8588 46.5709 27.2463 45.9327 27.5106C45.2945 27.775 44.6104 27.9111 43.9196 27.9111C43.2288 27.9111 42.5448 27.775 41.9066 27.5106C41.2684 27.2463 40.6885 26.8588 40.2 26.3703C39.7115 25.8819 39.324 25.302 39.0597 24.6637C38.7953 24.0255 38.6593 23.3415 38.6593 22.6507C38.6593 22.5982 38.6593 22.5465 38.6593 22.4985C38.6999 21.1176 39.2822 19.8082 40.2803 18.853C41.2783 17.8978 42.6121 17.3736 43.9934 17.3936C45.3748 17.4136 46.6928 17.9762 47.6628 18.9598C48.6329 19.9435 49.177 21.2692 49.1777 22.6507H49.18Z" fill="white" stroke="#992600" stroke-width="0.380415" stroke-linecap="round" stroke-linejoin="round"/>
<path d="M48.4397 25.1902C48.4397 25.2419 48.4397 25.2944 48.4397 25.3462C47.8498 26.3353 46.9515 27.1034 45.8829 27.5328C44.8142 27.9621 43.6342 28.0288 42.5239 27.7227C41.4136 27.4167 40.4345 26.7547 39.7368 25.8384C39.0391 24.9221 38.6613 23.8022 38.6615 22.6505C38.6615 22.598 38.6615 22.5463 38.6615 22.4984C39.2515 21.5093 40.1497 20.7411 41.2184 20.3118C42.2871 19.8825 43.4671 19.8157 44.5774 20.1218C45.6876 20.4279 46.6668 21.0898 47.3645 22.0061C48.0622 22.9224 48.4399 24.0423 48.4397 25.194V25.1902Z" fill="#992600"/>
<path d="M35.0225 32.0307L33.9414 33.5424L33.691 33.8932L32.2592 35.8911C32.2301 35.9322 32.198 35.9711 32.1633 36.0075C32.0683 36.1107 31.9522 36.1921 31.823 36.2464C31.6937 36.3006 31.5542 36.3264 31.4141 36.3219C31.274 36.3174 31.1365 36.2828 31.0109 36.2204C30.8854 36.158 30.7747 36.0693 30.6865 35.9604L30.1075 35.2756L29.2158 34.2188L28.8309 33.7623L27.6424 32.3502C27.1502 31.7659 27.3731 30.8841 27.9704 30.5897C28.0919 30.5291 28.2249 30.4948 28.3607 30.4892L34.1681 30.2359C35.0408 30.1971 35.5574 31.2797 35.0225 32.0307Z" fill="#FCDDD6"/>
<path d="M26.5849 40.3647L26.1725 41.5935L25.8682 42.4882C25.8566 42.5223 25.8343 42.5518 25.8045 42.5721C25.7748 42.5925 25.7393 42.6026 25.7033 42.6011C25.6673 42.5995 25.6328 42.5864 25.6049 42.5636C25.577 42.5407 25.5573 42.5095 25.5486 42.4745L25.3204 41.5615L25.0602 40.4758C25.5759 40.4753 26.0887 40.3984 26.5819 40.2476C26.5974 40.2849 26.5985 40.3266 26.5849 40.3647V40.3647Z" fill="white" stroke="#992600" stroke-width="0.456498" stroke-linecap="round" stroke-linejoin="round"/>
<path d="M38.6418 39.1367L38.4812 40.4005L38.3625 41.337C38.3582 41.373 38.3422 41.4066 38.3171 41.4326C38.292 41.4587 38.259 41.4759 38.2232 41.4816C38.1875 41.4872 38.1508 41.4811 38.1188 41.4641C38.0869 41.4471 38.0613 41.4201 38.046 41.3872L37.6451 40.5321L37.0942 39.3596C37.0774 39.3245 37.0741 39.2844 37.0851 39.247C37.2053 39.2546 37.3263 39.2584 37.4488 39.2584C37.8496 39.2595 38.2494 39.2187 38.6418 39.1367V39.1367Z" fill="white" stroke="#992600" stroke-width="0.456498" stroke-linecap="round" stroke-linejoin="round"/>
<path d="M6.34683 15.1444C5.18657 14.8164 4.2827 12.8794 4.46226 11.2641C4.53627 10.6561 4.7464 10.0725 5.07701 9.55683C5.22309 9.32858 5.76784 8.5046 6.70442 8.11125C8.185 7.48737 10.2392 8.11125 10.8441 9.24489C11.8933 11.2116 8.1713 15.6594 6.34683 15.1444Z" fill="#992600"/>
<path d="M55.4865 12.3185C56.5806 11.9191 57.1535 9.93864 56.9991 8.50524C56.9603 8.14613 56.8796 7.47584 56.3904 6.82229C55.7673 5.98537 54.8954 5.73887 54.6481 5.67191C53.163 5.26867 51.2906 5.9344 50.8029 7.04141C49.9484 8.98152 53.7906 12.934 55.4865 12.3185Z" fill="#992600"/>
<path d="M36.6187 7.95472C36.6183 8.33428 36.4747 8.6997 36.2166 8.97798C35.9584 9.25626 35.6048 9.42691 35.2264 9.45584L32.5498 9.65518L32.3603 11.3465L33.5685 11.2598C33.7138 11.249 33.8598 11.2669 33.9981 11.3125C34.1365 11.3582 34.2645 11.4306 34.3748 11.5257C34.4852 11.6208 34.5757 11.7367 34.6413 11.8668C34.7069 11.9968 34.7462 12.1386 34.757 12.2838C34.757 12.312 34.757 12.3401 34.757 12.3675C34.7568 12.6474 34.6508 12.9168 34.4603 13.1218C34.2699 13.3268 34.0089 13.4523 33.7298 13.473L32.107 13.591L31.8635 15.7662L32.6031 15.7114C32.8001 15.6973 32.9947 15.762 33.1442 15.8912C33.2937 16.0205 33.3858 16.2037 33.4004 16.4007C33.4004 16.4197 33.4004 16.438 33.4004 16.457C33.4001 16.6453 33.3287 16.8265 33.2005 16.9644C33.0722 17.1022 32.8966 17.1865 32.7088 17.2003L31.6901 17.2764L31.194 21.7128C31.0456 23.0382 30.0208 23.0382 29.8724 21.7128L29.3954 17.4468L27.8912 17.5587C27.7934 17.566 27.6951 17.5541 27.6019 17.5234C27.5087 17.4927 27.4225 17.444 27.3481 17.38C27.2738 17.3159 27.2128 17.2379 27.1687 17.1503C27.1245 17.0627 27.0981 16.9672 27.0908 16.8694C27.0908 16.8503 27.0908 16.8321 27.0908 16.8138C27.0911 16.6255 27.1625 16.4441 27.2907 16.3062C27.419 16.1682 27.5946 16.0837 27.7824 16.0697L29.2318 15.9617L28.9922 13.8222L26.5712 14.0026C26.4258 14.0134 26.2797 13.9954 26.1413 13.9497C26.0029 13.9041 25.8748 13.8316 25.7644 13.7364C25.6539 13.6413 25.5633 13.5253 25.4977 13.3951C25.4321 13.2649 25.3928 13.1231 25.382 12.9777C25.382 12.9496 25.382 12.9214 25.382 12.894C25.3831 12.6151 25.4893 12.3468 25.6794 12.1426C25.8695 11.9385 26.1295 11.8134 26.4076 11.7923L28.7472 11.6181L28.5615 9.95114L25.4969 10.1794C25.0983 10.2089 24.7043 10.0789 24.4015 9.81796C24.0987 9.557 23.912 9.18645 23.8824 8.78783C23.8824 8.74979 23.8779 8.71175 23.8779 8.67447C23.8784 8.29431 24.0225 7.92837 24.2814 7.65C24.5403 7.37162 24.8949 7.20137 25.274 7.17335L28.2268 6.95423L27.6942 2.18079C29.2089 1.96028 30.7376 1.84992 32.2683 1.85059C32.6533 1.85059 33.0365 1.85744 33.4179 1.87113L32.8853 6.6073L34.9981 6.45056C35.1955 6.43573 35.3939 6.45995 35.5818 6.52184C35.7698 6.58373 35.9438 6.68207 36.0937 6.81124C36.2437 6.94042 36.3667 7.09789 36.4557 7.27464C36.5448 7.4514 36.5981 7.64398 36.6126 7.84136C36.6172 7.8794 36.6187 7.91668 36.6187 7.95472Z" fill="#992600"/>
<path d="M60.8009 22.8099L57.3346 23.1036L54.3171 23.3569C53.8302 23.3988 53.7571 23.0305 54.2228 22.8829L57.1094 21.9699L60.2615 20.9702C60.4618 21.5743 60.6416 22.1875 60.8009 22.8099Z" fill="#992600"/>
<path d="M61.7428 30.5652C61.7159 31.1941 61.667 31.818 61.596 32.4368L58.4408 31.498L55.5405 30.6359C55.0726 30.4975 55.1388 30.1277 55.6265 30.1597L58.6447 30.3567L61.7428 30.5652Z" fill="#992600"/>
<path d="M59.3302 40.892C59.1339 41.2861 58.9277 41.6747 58.7117 42.0576L58.1791 41.7837L55.4835 40.3998C55.049 40.1769 55.1791 39.8261 55.6554 39.9471L58.5884 40.7003L59.3302 40.892Z" fill="#992600"/>
<path d="M10.7984 24.9684L7.78632 25.2879L3.1658 25.7779C3.25964 25.0531 3.38391 24.3374 3.53861 23.6309L7.79317 24.1307L10.8038 24.4845C11.2861 24.5416 11.2839 24.9167 10.7984 24.9684Z" fill="#992600"/>
<path d="M11.0731 31.8787L8.38586 33.2749L4.25532 35.4204C4.10994 35.5037 3.93856 35.5292 3.77523 35.4919C3.59821 34.8133 3.44909 34.1247 3.32787 33.4263C3.37266 33.4054 3.41926 33.3885 3.4671 33.3761L7.96969 32.1952L10.8989 31.4222C11.3714 31.3013 11.5068 31.6505 11.0731 31.8787Z" fill="#992600"/>
<path d="M13.2468 41.4492L10.8624 43.3163L8.57986 45.1027C8.203 44.6244 7.84338 44.1344 7.50101 43.6328L10.2537 42.3318L12.9927 41.0384C13.434 40.8291 13.631 41.1487 13.2468 41.4492Z" fill="#992600"/>
</g>
<defs>
<filter id="filter0_d_418_811" x="97" y="24" width="168" height="32" filterUnits="userSpaceOnUse" color-interpolation-filters="sRGB">
<feFlood flood-opacity="0" result="BackgroundImageFix"/>
<feColorMatrix in="SourceAlpha" type="matrix" values="0 0 0 0 0 0 0 0 0 0 0 0 0 0 0 0 0 0 127 0" result="hardAlpha"/>
<feOffset dy="2"/>
<feGaussianBlur stdDeviation="2"/>
<feComposite in2="hardAlpha" operator="out"/>
<feColorMatrix type="matrix" values="0 0 0 0 0 0 0 0 0 0 0 0 0 0 0 0 0 0 0.25 0"/>
<feBlend mode="normal" in2="BackgroundImageFix" result="effect1_dropShadow_418_811"/>
<feBlend mode="normal" in="SourceGraphic" in2="effect1_dropShadow_418_811" result="shape"/>
</filter>
<clipPath id="clip0_418_811">
<rect width="62" height="56.891" fill="white"/>
</clipPath>
</defs>
</svg>
