<svg width="308" height="52" viewBox="0 0 308 52" fill="none" xmlns="http://www.w3.org/2000/svg">
<g opacity="0.3" filter="url(#filter0_d_418_808)">
<rect x="103" y="22" width="201" height="24" rx="5" fill="#00BD79"/>
</g>
<path d="M110.868 16L108.348 12.192C109.622 12.08 110.77 11.156 110.77 9.476C110.77 7.754 109.552 6.662 107.844 6.662H104.092V16H105.254V12.29H107.116L109.496 16H110.868ZM109.566 9.476C109.566 10.526 108.81 11.268 107.704 11.268H105.254V7.698H107.704C108.81 7.698 109.566 8.426 109.566 9.476ZM111.752 12.612C111.752 14.726 113.194 16.168 115.196 16.168C116.302 16.168 117.212 15.804 117.884 15.132L117.38 14.446C116.848 14.992 116.064 15.3 115.294 15.3C113.838 15.3 112.942 14.236 112.858 12.962H118.332V12.696C118.332 10.666 117.128 9.07 115.084 9.07C113.152 9.07 111.752 10.652 111.752 12.612ZM115.07 9.938C116.61 9.938 117.282 11.184 117.296 12.192H112.858C112.914 11.156 113.628 9.938 115.07 9.938ZM119.444 15.104C120.13 15.832 121.068 16.168 122.174 16.168C123.924 16.168 124.834 15.258 124.834 14.124C124.834 12.626 123.476 12.29 122.3 12.024C121.418 11.814 120.648 11.604 120.648 10.946C120.648 10.344 121.222 9.924 122.146 9.924C123.014 9.924 123.756 10.288 124.162 10.778L124.652 10.05C124.106 9.504 123.294 9.07 122.146 9.07C120.536 9.07 119.626 9.966 119.626 11.016C119.626 12.416 120.928 12.724 122.076 12.99C122.986 13.214 123.812 13.452 123.812 14.194C123.812 14.852 123.252 15.314 122.216 15.314C121.292 15.314 120.438 14.866 119.99 14.348L119.444 15.104ZM127.59 14.978C128.136 15.734 128.948 16.168 129.872 16.168C131.65 16.168 132.882 14.796 132.882 12.612C132.882 10.414 131.65 9.07 129.872 9.07C128.92 9.07 128.08 9.56 127.59 10.246V9.238H126.54V18.576H127.59V14.978ZM131.776 12.612C131.776 14.11 130.964 15.23 129.606 15.23C128.78 15.23 127.954 14.726 127.59 14.138V11.086C127.954 10.498 128.78 10.008 129.606 10.008C130.964 10.008 131.776 11.114 131.776 12.612ZM137.533 16.168C139.591 16.168 140.879 14.572 140.879 12.612C140.879 10.652 139.591 9.07 137.533 9.07C135.475 9.07 134.187 10.652 134.187 12.612C134.187 14.572 135.475 16.168 137.533 16.168ZM137.533 15.23C136.091 15.23 135.279 13.998 135.279 12.612C135.279 11.24 136.091 10.008 137.533 10.008C138.975 10.008 139.773 11.24 139.773 12.612C139.773 13.998 138.975 15.23 137.533 15.23ZM148.205 16V11.254C148.205 9.784 147.463 9.07 146.049 9.07C145.041 9.07 144.117 9.658 143.641 10.218V9.238H142.591V16H143.641V11.058C144.033 10.512 144.817 10.008 145.643 10.008C146.553 10.008 147.155 10.386 147.155 11.576V16H148.205ZM149.714 15.104C150.4 15.832 151.338 16.168 152.444 16.168C154.194 16.168 155.104 15.258 155.104 14.124C155.104 12.626 153.746 12.29 152.57 12.024C151.688 11.814 150.918 11.604 150.918 10.946C150.918 10.344 151.492 9.924 152.416 9.924C153.284 9.924 154.026 10.288 154.432 10.778L154.922 10.05C154.376 9.504 153.564 9.07 152.416 9.07C150.806 9.07 149.896 9.966 149.896 11.016C149.896 12.416 151.198 12.724 152.346 12.99C153.256 13.214 154.082 13.452 154.082 14.194C154.082 14.852 153.522 15.314 152.486 15.314C151.562 15.314 150.708 14.866 150.26 14.348L149.714 15.104ZM157.328 8.104C157.72 8.104 158.042 7.782 158.042 7.39C158.042 6.998 157.72 6.69 157.328 6.69C156.95 6.69 156.628 6.998 156.628 7.39C156.628 7.782 156.95 8.104 157.328 8.104ZM157.86 16V9.238H156.81V16H157.86ZM161.004 16V14.992C161.508 15.678 162.334 16.168 163.286 16.168C165.05 16.168 166.296 14.824 166.296 12.626C166.296 10.47 165.05 9.07 163.286 9.07C162.362 9.07 161.55 9.518 161.004 10.26V6.662H159.954V16H161.004ZM161.004 11.1C161.368 10.512 162.194 10.008 163.02 10.008C164.392 10.008 165.204 11.128 165.204 12.626C165.204 14.124 164.392 15.23 163.02 15.23C162.194 15.23 161.368 14.754 161.004 14.166V11.1ZM169.057 16V6.662H168.007V16H169.057ZM170.76 12.612C170.76 14.726 172.202 16.168 174.204 16.168C175.31 16.168 176.22 15.804 176.892 15.132L176.388 14.446C175.856 14.992 175.072 15.3 174.302 15.3C172.846 15.3 171.95 14.236 171.866 12.962H177.34V12.696C177.34 10.666 176.136 9.07 174.092 9.07C172.16 9.07 170.76 10.652 170.76 12.612ZM174.078 9.938C175.618 9.938 176.29 11.184 176.304 12.192H171.866C171.922 11.156 172.636 9.938 174.078 9.938ZM185.884 16C188.782 16 190.672 13.998 190.672 11.338C190.672 8.692 188.782 6.662 185.884 6.662H182.692V16H185.884ZM183.854 7.698H185.884C188.194 7.698 189.468 9.322 189.468 11.338C189.468 13.34 188.152 14.964 185.884 14.964H183.854V7.698ZM192.06 12.612C192.06 14.726 193.502 16.168 195.504 16.168C196.61 16.168 197.52 15.804 198.192 15.132L197.688 14.446C197.156 14.992 196.372 15.3 195.602 15.3C194.146 15.3 193.25 14.236 193.166 12.962H198.64V12.696C198.64 10.666 197.436 9.07 195.392 9.07C193.46 9.07 192.06 10.652 192.06 12.612ZM195.378 9.938C196.918 9.938 197.59 11.184 197.604 12.192H193.166C193.222 11.156 193.936 9.938 195.378 9.938ZM199.949 12.612C199.949 14.628 201.307 16.168 203.323 16.168C204.555 16.168 205.283 15.664 205.801 14.992L205.101 14.348C204.653 14.95 204.079 15.23 203.379 15.23C201.937 15.23 201.041 14.11 201.041 12.612C201.041 11.114 201.937 10.008 203.379 10.008C204.079 10.008 204.653 10.274 205.101 10.89L205.801 10.246C205.283 9.574 204.555 9.07 203.323 9.07C201.307 9.07 199.949 10.61 199.949 12.612ZM207.791 8.104C208.183 8.104 208.505 7.782 208.505 7.39C208.505 6.998 208.183 6.69 207.791 6.69C207.413 6.69 207.091 6.998 207.091 7.39C207.091 7.782 207.413 8.104 207.791 8.104ZM208.323 16V9.238H207.273V16H208.323ZM209.829 15.104C210.515 15.832 211.453 16.168 212.559 16.168C214.309 16.168 215.219 15.258 215.219 14.124C215.219 12.626 213.861 12.29 212.685 12.024C211.803 11.814 211.033 11.604 211.033 10.946C211.033 10.344 211.607 9.924 212.531 9.924C213.399 9.924 214.141 10.288 214.547 10.778L215.037 10.05C214.491 9.504 213.679 9.07 212.531 9.07C210.921 9.07 210.011 9.966 210.011 11.016C210.011 12.416 211.313 12.724 212.461 12.99C213.371 13.214 214.197 13.452 214.197 14.194C214.197 14.852 213.637 15.314 212.601 15.314C211.677 15.314 210.823 14.866 210.375 14.348L209.829 15.104ZM217.443 8.104C217.835 8.104 218.157 7.782 218.157 7.39C218.157 6.998 217.835 6.69 217.443 6.69C217.065 6.69 216.743 6.998 216.743 7.39C216.743 7.782 217.065 8.104 217.443 8.104ZM217.975 16V9.238H216.925V16H217.975ZM223.024 16.168C225.082 16.168 226.37 14.572 226.37 12.612C226.37 10.652 225.082 9.07 223.024 9.07C220.966 9.07 219.678 10.652 219.678 12.612C219.678 14.572 220.966 16.168 223.024 16.168ZM223.024 15.23C221.582 15.23 220.77 13.998 220.77 12.612C220.77 11.24 221.582 10.008 223.024 10.008C224.466 10.008 225.264 11.24 225.264 12.612C225.264 13.998 224.466 15.23 223.024 15.23ZM233.695 16V11.254C233.695 9.784 232.953 9.07 231.539 9.07C230.531 9.07 229.607 9.658 229.131 10.218V9.238H228.081V16H229.131V11.058C229.523 10.512 230.307 10.008 231.133 10.008C232.043 10.008 232.645 10.386 232.645 11.576V16H233.695ZM248.586 16V6.662H246.92L244.008 13.774L241.11 6.662H239.444V16H240.606V8.23L243.77 16H244.246L247.424 8.23V16H248.586ZM256 16V11.352C256 9.714 254.81 9.07 253.382 9.07C252.276 9.07 251.408 9.434 250.68 10.19L251.17 10.918C251.772 10.274 252.43 9.98 253.242 9.98C254.222 9.98 254.95 10.498 254.95 11.408V12.626C254.404 11.996 253.634 11.702 252.71 11.702C251.562 11.702 250.344 12.416 250.344 13.928C250.344 15.398 251.562 16.168 252.71 16.168C253.62 16.168 254.39 15.846 254.95 15.23V16H256ZM254.95 14.572C254.544 15.132 253.83 15.412 253.088 15.412C252.108 15.412 251.422 14.796 251.422 13.942C251.422 13.074 252.108 12.458 253.088 12.458C253.83 12.458 254.544 12.738 254.95 13.298V14.572ZM264.055 16L261.045 12.304L264.041 9.238H262.711L259.155 12.836V6.662H258.105V16H259.155V14.068L260.275 12.962L262.711 16H264.055ZM265.814 8.104C266.206 8.104 266.528 7.782 266.528 7.39C266.528 6.998 266.206 6.69 265.814 6.69C265.436 6.69 265.114 6.998 265.114 7.39C265.114 7.782 265.436 8.104 265.814 8.104ZM266.346 16V9.238H265.296V16H266.346ZM274.055 16V11.254C274.055 9.784 273.313 9.07 271.899 9.07C270.891 9.07 269.967 9.658 269.491 10.218V9.238H268.441V16H269.491V11.058C269.883 10.512 270.667 10.008 271.493 10.008C272.403 10.008 273.005 10.386 273.005 11.576V16H274.055ZM276.138 17.736C276.936 18.52 277.72 18.744 278.868 18.744C280.52 18.744 282.088 18.044 282.088 15.804V9.238H281.038V10.26C280.492 9.518 279.68 9.07 278.77 9.07C276.992 9.07 275.76 10.414 275.76 12.584C275.76 14.768 277.006 16.084 278.77 16.084C279.722 16.084 280.548 15.566 281.038 14.88V15.846C281.038 17.33 279.988 17.876 278.868 17.876C277.902 17.876 277.23 17.624 276.67 16.952L276.138 17.736ZM281.038 14.054C280.674 14.642 279.862 15.16 279.022 15.16C277.664 15.16 276.852 14.068 276.852 12.584C276.852 11.086 277.664 10.008 279.022 10.008C279.862 10.008 280.674 10.512 281.038 11.1V14.054Z" fill="#006249"/>
<g clip-path="url(#clip0_418_808)">
<path d="M63.1739 15.592C63.3884 14.5241 65.1417 14.7393 66.388 12.9971C67.3063 11.7173 67.1601 10.4927 67.4264 10.5045C67.7977 10.5228 68.2903 12.9151 67.6337 15.2791C67.3365 16.351 66.8793 17.998 65.7655 18.1857C64.5225 18.3969 62.9521 16.6947 63.1739 15.592Z" fill="#00BD79"/>
<path d="M50.7554 26.2041C52.19 28.8935 52.2503 30.9027 52.0306 32.2539C51.6698 34.475 53.9827 35.8262 54.5652 37.7941C55.0243 39.3454 52.6629 39.9292 52.4458 40.2467C52.1257 40.719 49.0008 39.9961 46.8407 37.7541C45.332 36.1877 45.4016 35.0299 43.0572 30.8331C42.415 29.6833 41.8502 28.7682 41.4829 28.1903L50.7554 26.2041Z" fill="#00BD79"/>
<path d="M56.678 28.4591C58.0286 31.1891 59.6298 32.4086 60.8557 33.0166C62.8721 34.0156 62.6268 36.6827 63.8856 38.3016C64.88 39.5781 66.7304 37.9959 67.1135 38.0051C67.6842 38.0195 68.9154 35.0586 68.35 31.9973C67.9564 29.8576 66.9725 29.2423 64.9233 24.8933C64.3624 23.7015 63.9466 22.7097 63.6901 22.0728L56.678 28.4591Z" fill="#00BD79"/>
<path d="M26.951 33.6644C26.3902 36.6575 26.9366 38.5939 27.5519 39.8172C28.5633 41.8277 30.1593 42.7034 30.1947 44.7526C30.2222 46.3708 29.256 47.3272 29.5564 47.5653C30.0038 47.9202 32.7706 46.2921 34.1546 43.5056C35.1241 41.5581 34.7089 40.4751 35.6843 35.7654C35.952 34.4752 36.2156 33.4328 36.3921 32.771L26.951 33.6644Z" fill="#00BD79"/>
<path d="M19.0403 28.5464C17.6057 31.2358 17.5453 33.2443 17.7651 34.5956C18.1259 36.8173 19.3859 38.1292 18.8028 40.097C18.3436 41.6483 17.1347 42.2708 17.3499 42.5896C17.67 43.0619 20.7949 42.3397 22.955 40.097C24.4636 38.5306 24.3941 37.3728 26.7385 33.1767C27.3807 32.0269 27.9454 31.1118 28.3128 30.5333L19.0403 28.5464Z" fill="#00BD79"/>
<path d="M18.3712 13.0718C21.0435 9.42082 22.766 7.06793 25.8962 5.04563C32.6709 0.66848 41.9991 0.453984 48.9857 3.40576C54.655 5.80325 54.3782 8.42443 63.1955 12.6966C68.4929 15.2627 70.2798 15.1335 70.8465 16.7957C72.4778 21.5703 60.8682 31.7644 48.4393 35.9238C38.7509 39.1662 39.1995 35.1819 21.3872 38.1121C19.0225 38.501 15.2003 39.1983 12.9812 37.0461C10.7084 34.8428 11.3263 30.8245 11.8235 27.5919C12.019 26.3181 13.0252 20.3739 18.3712 13.0718Z" fill="#006249"/>
<mask id="mask0_418_808" style="mask-type:alpha" maskUnits="userSpaceOnUse" x="11" y="1" width="61" height="38">
<path d="M18.3712 13.0718C21.0435 9.42082 22.766 7.06793 25.8962 5.04563C32.6709 0.66848 41.9991 0.453984 48.9857 3.40576C54.655 5.80325 54.3782 8.42443 63.1955 12.6966C68.4929 15.2627 70.2798 15.1335 70.8465 16.7957C72.4778 21.5703 60.8682 31.7644 48.4393 35.9238C38.7509 39.1662 39.1995 35.1819 21.3872 38.1121C19.0225 38.501 15.2003 39.1983 12.9812 37.0461C10.7084 34.8428 11.3263 30.8245 11.8235 27.5919C12.019 26.3181 13.0252 20.3739 18.3712 13.0718Z" fill="#006249"/>
</mask>
<g mask="url(#mask0_418_808)">
<path d="M15.7362 11.063L20.6145 6.44122C21.1208 5.96166 21.7443 5.6238 22.4225 5.46156C23.1007 5.29933 23.8096 5.31844 24.4781 5.51698L30.9195 7.43039C31.5883 7.6291 32.193 8.00047 32.6728 8.50713C33.1525 9.0138 33.4903 9.63787 33.6522 10.3166L35.216 16.8518C35.3775 17.5295 35.358 18.2377 35.1594 18.9055C34.9608 19.5733 34.5901 20.1771 34.0845 20.6563L29.2068 25.2788C28.7006 25.7583 28.077 26.0962 27.3988 26.2584C26.7207 26.4207 26.0117 26.4016 25.3433 26.203L18.9018 24.2896C18.2331 24.0908 17.6284 23.7194 17.1487 23.2127C16.669 22.7061 16.3312 22.0821 16.1692 21.4034L14.6054 14.8675C14.4439 14.1899 14.4633 13.4817 14.6618 12.814C14.8603 12.1463 15.2308 11.5424 15.7362 11.063V11.063Z" fill="#BEE8DA" stroke="#006249" stroke-width="0.327975" stroke-linecap="round" stroke-linejoin="round"/>
<path d="M36.2012 5.87454L41.0795 1.25272C41.5859 0.773392 42.2095 0.435769 42.8877 0.273766C43.5658 0.111764 44.2747 0.131088 44.943 0.329796L51.3845 2.2432C52.0532 2.44203 52.6579 2.81344 53.1376 3.32009C53.6173 3.82673 53.9551 4.45074 54.1172 5.12938L55.6809 11.6646C55.8431 12.3428 55.8239 13.0517 55.6253 13.7201C55.4267 14.3885 55.0556 14.9928 54.5494 15.4724L49.6718 20.0949C49.1655 20.5744 48.542 20.9123 47.8638 21.0745C47.1856 21.2368 46.4767 21.2176 45.8082 21.0191L39.3662 19.1057C38.6975 18.9068 38.093 18.5353 37.6134 18.0287C37.1338 17.522 36.7961 16.8981 36.6341 16.2195L35.0703 9.68298C34.9082 9.00477 34.9273 8.29582 35.1258 7.62733C35.3243 6.95884 35.6952 6.35434 36.2012 5.87454V5.87454Z" fill="#BEE8DA" stroke="#006249" stroke-width="0.327975" stroke-linecap="round" stroke-linejoin="round"/>
<path d="M50.781 21.0573L55.6593 16.4349C56.1655 15.9553 56.7891 15.6174 57.4673 15.4552C58.1454 15.293 58.8544 15.3121 59.5228 15.5106L65.9643 17.424C66.633 17.6229 67.2377 17.9943 67.7174 18.5009C68.1971 19.0076 68.5349 19.6316 68.697 20.3102L70.2607 26.8461C70.4229 27.5243 70.4037 28.2332 70.2051 28.9016C70.0065 29.57 69.6354 30.1743 69.1292 30.6539L64.2516 35.2757C63.7454 35.7553 63.1219 36.0933 62.4437 36.2556C61.7655 36.418 61.0566 36.399 60.388 36.2006L53.9466 34.2872C53.2779 34.0882 52.6733 33.7168 52.1936 33.2102C51.714 32.7035 51.3761 32.0796 51.2139 31.401L49.6501 24.8651C49.488 24.187 49.5072 23.4782 49.7057 22.8098C49.9042 22.1414 50.275 21.537 50.781 21.0573Z" fill="#BEE8DA" stroke="#006249" stroke-width="0.327975" stroke-linecap="round" stroke-linejoin="round"/>
<path d="M30.8723 26.4524L35.7493 21.8299C36.2555 21.3503 36.879 21.0125 37.5572 20.8502C38.2354 20.688 38.9443 20.7071 39.6128 20.9057L46.0549 22.8191C46.7236 23.0179 47.3281 23.3894 47.8077 23.896C48.2873 24.4027 48.625 25.0267 48.7869 25.7052L50.3507 32.2411C50.5128 32.9192 50.4937 33.6281 50.2952 34.2965C50.0967 34.9648 49.7258 35.5692 49.2198 36.0489L44.3422 40.6707C43.8361 41.1503 43.2127 41.4882 42.5346 41.6504C41.8565 41.8126 41.1477 41.7935 40.4793 41.595L34.0372 39.6789C33.3684 39.4803 32.7637 39.1089 32.2841 38.6023C31.8045 38.0956 31.4669 37.4715 31.3052 36.7928L29.7408 30.2602C29.5786 29.582 29.5978 28.8731 29.7964 28.2047C29.995 27.5363 30.3661 26.9319 30.8723 26.4524V26.4524Z" fill="#BEE8DA" stroke="#006249" stroke-width="0.327975" stroke-linecap="round" stroke-linejoin="round"/>
</g>
<path d="M28.1658 25.6419C28.257 30.4225 21.8608 34.3005 14.0826 34.3005C6.30433 34.3005 0 30.4232 0 25.6419C0 24.2152 0.561493 22.8686 1.55657 21.682C1.4786 21.4862 1.43853 21.2774 1.4385 21.0667C1.4385 20.9053 1.44571 19.8335 1.45949 19.6754C1.83666 15.3357 7.34073 11.1533 14.0727 11.1533C20.8048 11.1533 26.3213 15.3475 26.688 19.6951C26.7011 19.8486 26.7076 20.9145 26.7076 21.0726C26.7076 21.2569 26.6775 21.4399 26.6184 21.6144C27.5827 22.6646 28.1343 23.9909 28.1658 25.6419Z" fill="#00BD79"/>
<path d="M10.1233 17.2123C10.1249 17.8508 9.87489 18.4642 9.42739 18.9196C8.97988 19.375 8.37095 19.6357 7.73253 19.6453C7.09412 19.6548 6.47766 19.4124 6.01675 18.9706C5.55583 18.5287 5.28759 17.9231 5.27016 17.2848C5.25272 16.6466 5.48749 16.0272 5.92359 15.5608C6.35969 15.0945 6.96199 14.8187 7.59997 14.7934C8.23795 14.7681 8.86022 14.9952 9.33192 15.4255C9.80363 15.8558 10.0868 16.4546 10.12 17.0922V17.0922C10.122 17.1322 10.1233 17.1723 10.1233 17.2123Z" fill="white"/>
<path d="M10.1233 17.2128C10.1233 17.7417 9.95019 18.2562 9.6304 18.6775C9.31061 19.0988 8.8617 19.4039 8.35225 19.5461C7.84279 19.6883 7.30078 19.6599 6.80899 19.4652C6.31721 19.2704 5.90267 18.9201 5.6287 18.4676C5.6287 18.4283 5.6287 18.3883 5.6287 18.3482C5.62905 17.8195 5.80233 17.3054 6.12212 16.8843C6.4419 16.4633 6.89064 16.1583 7.39988 16.0161C7.90913 15.8738 8.45092 15.9021 8.94263 16.0965C9.43434 16.2909 9.84896 16.6407 10.1233 17.0928V17.0928C10.122 17.1328 10.1233 17.1728 10.1233 17.2128Z" fill="#006249"/>
<path d="M23.0986 17.3926C23.0882 18.028 22.8284 18.634 22.3753 19.0797C21.9222 19.5254 21.3121 19.7751 20.6765 19.7751C20.041 19.7751 19.4309 19.5254 18.9778 19.0797C18.5247 18.634 18.2649 18.028 18.2544 17.3926C18.2544 17.3184 18.2544 17.245 18.2643 17.1728C18.3221 16.553 18.6164 15.9793 19.0859 15.5707C19.5555 15.162 20.1644 14.9498 20.7862 14.9781C21.408 15.0064 21.9951 15.2729 22.4257 15.7225C22.8562 16.172 23.0972 16.7701 23.0986 17.3926V17.3926Z" fill="white"/>
<path d="M22.8185 18.3241C22.8185 18.3982 22.8152 18.4717 22.8087 18.5439C22.5522 19.0179 22.145 19.3929 21.6515 19.6096C21.1579 19.8262 20.6062 19.8722 20.0837 19.7401C19.5611 19.608 19.0975 19.3054 18.7662 18.8803C18.4349 18.4551 18.2548 17.9317 18.2544 17.3927C18.2544 17.3185 18.2544 17.2451 18.2643 17.1729C18.5207 16.6989 18.9279 16.3238 19.4215 16.1072C19.915 15.8905 20.4667 15.8446 20.9893 15.9767C21.5118 16.1088 21.9754 16.4114 22.3067 16.8365C22.638 17.2617 22.8181 17.7851 22.8185 18.3241Z" fill="#006249"/>
<path d="M12.1843 22.8185C12.1843 22.8726 12.1682 22.9254 12.1382 22.9704C12.1081 23.0154 12.0654 23.0505 12.0154 23.0712C11.9654 23.0919 11.9104 23.0973 11.8574 23.0867C11.8043 23.0762 11.7556 23.0501 11.7173 23.0119C11.6791 22.9736 11.653 22.9249 11.6425 22.8718C11.6319 22.8188 11.6373 22.7638 11.658 22.7138C11.6787 22.6638 11.7138 22.6211 11.7588 22.591C11.8038 22.561 11.8566 22.5449 11.9107 22.5449C11.9833 22.5449 12.0529 22.5737 12.1042 22.625C12.1555 22.6763 12.1843 22.7459 12.1843 22.8185V22.8185Z" fill="black"/>
<path d="M16.5562 23.1867C16.7072 23.1867 16.8297 23.0642 16.8297 22.9132C16.8297 22.7621 16.7072 22.6396 16.5562 22.6396C16.4051 22.6396 16.2826 22.7621 16.2826 22.9132C16.2826 23.0642 16.4051 23.1867 16.5562 23.1867Z" fill="black"/>
<path d="M10.0813 22.2512C10.7786 21.6578 11.5917 21.2159 12.469 20.9537C13.056 20.7792 14.3791 20.406 15.9455 20.9019C16.9612 21.2303 17.8616 21.8426 18.5404 22.6664" stroke="#006249" stroke-width="0.327975" stroke-linecap="round" stroke-linejoin="round"/>
<path d="M7.85106 25.7944C8.31482 26.1598 9.3053 26.8505 10.8796 27.3221" stroke="#006249" stroke-width="0.327975" stroke-linecap="round" stroke-linejoin="round"/>
<path d="M17.9855 27.2569C18.972 27.0081 19.9227 26.6344 20.8146 26.145" stroke="#006249" stroke-width="0.327975" stroke-linecap="round" stroke-linejoin="round"/>
<path d="M18.5299 26.918C18.1003 27.6395 17.3295 28.7336 16.2098 29.4106C15.6287 29.7609 14.3168 30.5139 12.7176 29.6677C11.5113 29.0295 10.6841 27.7655 10.2289 26.9212C10.5896 27.0619 10.9577 27.183 11.3315 27.284C14.1403 28.0416 16.5135 27.4709 17.5631 27.204C17.9033 27.1174 18.2256 27.022 18.5299 26.918Z" fill="#006249"/>
<path d="M17.018 27.0923C16.9372 27.1645 16.8493 27.2283 16.7556 27.2825C16.3476 27.5206 15.9383 27.5049 15.7867 27.5068C15.4391 27.5127 14.978 27.6433 14.2925 28.1989C14.0229 27.9713 13.7209 27.7851 13.3965 27.6466C13.1925 27.5604 12.9743 27.5131 12.753 27.5068C12.6021 27.5068 12.1921 27.5206 11.7841 27.2825C11.6905 27.2281 11.6026 27.1644 11.5218 27.0923H17.018Z" fill="#00BD79"/>
</g>
<defs>
<filter id="filter0_d_418_808" x="99" y="20" width="209" height="32" filterUnits="userSpaceOnUse" color-interpolation-filters="sRGB">
<feFlood flood-opacity="0" result="BackgroundImageFix"/>
<feColorMatrix in="SourceAlpha" type="matrix" values="0 0 0 0 0 0 0 0 0 0 0 0 0 0 0 0 0 0 127 0" result="hardAlpha"/>
<feOffset dy="2"/>
<feGaussianBlur stdDeviation="2"/>
<feComposite in2="hardAlpha" operator="out"/>
<feColorMatrix type="matrix" values="0 0 0 0 0 0 0 0 0 0 0 0 0 0 0 0 0 0 0.25 0"/>
<feBlend mode="normal" in2="BackgroundImageFix" result="effect1_dropShadow_418_808"/>
<feBlend mode="normal" in="SourceGraphic" in2="effect1_dropShadow_418_808" result="shape"/>
</filter>
<clipPath id="clip0_418_808">
<rect width="71" height="47.6141" fill="white"/>
</clipPath>
</defs>
</svg>
